<svg width="150" height="47" viewBox="0 0 150 47" fill="none" xmlns="http://www.w3.org/2000/svg">
<g clip-path="url(#clip0_2178_79)">
<path d="M51.4948 23.2123C51.4513 22.1422 51.6205 21.0742 51.9925 20.0698C52.3646 19.0654 52.9321 18.1445 53.6624 17.3602C54.3927 16.576 55.2713 15.9438 56.2475 15.5004C57.2237 15.0569 58.2782 14.8108 59.3502 14.7764H59.6832C63.8262 14.7764 66.2714 17.2098 66.9944 20.0569L64.4192 20.9167C64.1879 19.8558 63.5822 18.9132 62.7128 18.261C61.8434 17.6088 60.7682 17.2904 59.6832 17.3639C57.0025 17.3639 54.3136 19.3188 54.3136 23.2609C54.3136 27.2031 56.9375 29.085 59.7157 29.085C60.8061 29.1147 61.8749 28.7784 62.7512 28.1299C63.6274 27.4814 64.2606 26.5581 64.5492 25.5078L67.0756 26.319C66.6395 27.9211 65.6695 29.327 64.3256 30.3047C62.9817 31.2823 61.3442 31.7734 59.6832 31.6968C57.5494 31.7359 55.4874 30.9274 53.9504 29.4489C52.4134 27.9705 51.5272 25.9431 51.4866 23.8125C51.4785 23.6178 51.4866 23.4151 51.4948 23.2123Z" fill="white"/>
<path d="M72.0874 31.3236H69.4229V14.7275H72.0874V21.2167C72.4742 20.7586 72.9606 20.3948 73.5097 20.153C74.0588 19.9112 74.6559 19.7978 75.2555 19.8215C78.0094 19.8215 79.3172 21.7926 79.3172 24.2504V31.3236H76.7502V24.7208C76.8271 24.158 76.6795 23.5875 76.3391 23.1323C75.9987 22.6771 75.4929 22.3737 74.9306 22.2874C74.7712 22.2711 74.6106 22.2711 74.4513 22.2874C73.8351 22.2874 73.2442 22.5318 72.8085 22.9669C72.3728 23.4019 72.128 23.992 72.128 24.6073C72.1239 24.6748 72.1239 24.7425 72.128 24.8101L72.0874 31.3236Z" fill="white"/>
<path d="M85.2969 24.9322L88.1564 24.486C88.8063 24.4049 88.9687 24.0724 88.9687 23.6749C88.9687 22.734 88.3351 21.9796 86.8566 21.9796C86.2983 21.9345 85.7446 22.1111 85.3158 22.471C84.8869 22.8308 84.6174 23.345 84.5658 23.902V24.0237L82.1288 23.4802C82.3318 21.5497 84.0865 19.8301 86.8323 19.8301C90.2766 19.8301 91.5845 21.7768 91.5845 24.048V29.5881C91.5817 30.1884 91.6279 30.788 91.7226 31.3808H89.2855C89.1977 30.9102 89.1623 30.4315 89.1799 29.9532C88.81 30.5216 88.2973 30.9833 87.693 31.2921C87.0886 31.601 86.4137 31.7462 85.7356 31.7133C84.8094 31.7897 83.8907 31.4961 83.181 30.897C82.4713 30.2978 82.0286 29.4421 81.95 28.5174C81.95 28.4607 81.95 28.4039 81.95 28.3552C81.9094 26.303 83.3798 25.1999 85.2969 24.9322ZM88.985 26.7248V26.2138L86.0686 26.6518C85.6727 26.6643 85.297 26.8292 85.02 27.1118C84.743 27.3945 84.586 27.7732 84.5821 28.1686C84.5852 28.3646 84.6274 28.558 84.7061 28.7375C84.7849 28.9171 84.8987 29.0791 85.0408 29.2143C85.183 29.3494 85.3507 29.455 85.5341 29.5247C85.7176 29.5945 85.9131 29.6271 86.1093 29.6206H86.2311C86.5636 29.6553 86.8997 29.6241 87.2201 29.5285C87.5404 29.433 87.8387 29.2752 88.0977 29.0641C88.3567 28.8529 88.5713 28.5928 88.7292 28.2985C88.887 28.0042 88.985 27.6816 89.0175 27.3494C89.0291 27.1403 89.0154 26.9306 88.9768 26.7248H88.985Z" fill="white"/>
<path d="M96.1174 14.5006C96.3463 14.4974 96.5737 14.5394 96.7864 14.6242C96.9991 14.7089 97.1929 14.8348 97.3567 14.9946C97.5205 15.1544 97.651 15.3449 97.7409 15.5553C97.8307 15.7656 97.878 15.9916 97.8802 16.2202C97.8801 16.5625 97.7788 16.8971 97.5888 17.182C97.3988 17.4669 97.1288 17.6894 96.8125 17.8215C96.4963 17.9535 96.148 17.9893 95.8115 17.9243C95.4749 17.8593 95.1651 17.6963 94.9211 17.456C94.677 17.2157 94.5096 16.9086 94.4397 16.5735C94.3699 16.2384 94.4009 15.8902 94.5288 15.5726C94.6566 15.2551 94.8756 14.9823 95.1583 14.7887C95.4409 14.595 95.7746 14.4892 96.1174 14.4844V14.5006ZM94.8176 31.3724V20.1624H97.4821V31.3237L94.8176 31.3724Z" fill="white"/>
<path d="M103.55 31.3239H100.894V20.1625H103.485V21.6469C103.823 21.0769 104.308 20.6082 104.89 20.2899C105.471 19.9717 106.128 19.8156 106.791 19.8381C109.521 19.8381 110.853 21.8091 110.853 24.2669V31.3239H108.197V24.7212C108.197 23.3503 107.571 22.239 105.898 22.239C105.588 22.2412 105.282 22.3041 104.997 22.4243C104.712 22.5445 104.454 22.7195 104.237 22.9395C104.019 23.1594 103.848 23.4199 103.731 23.7062C103.615 23.9924 103.556 24.2987 103.558 24.6076C103.558 24.6968 103.558 24.786 103.558 24.8753L103.55 31.3239Z" fill="white"/>
<path d="M114.07 31.3236V14.7275H116.735V31.3236H114.07Z" fill="white"/>
<path d="M121.487 14.5C121.83 14.4984 122.165 14.5986 122.451 14.7878C122.737 14.977 122.96 15.2468 123.092 15.5628C123.224 15.8789 123.259 16.2269 123.192 16.5628C123.126 16.8987 122.961 17.2073 122.718 17.4494C122.476 17.6915 122.167 17.8563 121.831 17.9227C121.494 17.9891 121.146 17.9542 120.829 17.8224C120.513 17.6906 120.242 17.4679 120.053 17.1826C119.863 16.8972 119.763 16.562 119.765 16.2196C119.769 15.7649 119.952 15.3299 120.274 15.0084C120.596 14.6868 121.031 14.5042 121.487 14.5ZM120.179 31.3718V20.1618H122.819V31.3232L120.179 31.3718Z" fill="white"/>
<path d="M128.928 31.3237H126.264V20.1624H128.855V21.6468C129.194 21.0774 129.679 20.6091 130.261 20.2909C130.842 19.9728 131.499 19.8163 132.161 19.8379C134.891 19.8379 136.223 21.809 136.223 24.2668V31.3237H133.559V24.721C133.635 24.1581 133.488 23.5876 133.147 23.1324C132.807 22.6773 132.301 22.3738 131.739 22.2876C131.577 22.2713 131.414 22.2713 131.251 22.2876C130.631 22.294 130.038 22.5446 129.601 22.9851C129.165 23.4255 128.92 24.0202 128.92 24.6399C128.912 24.7343 128.912 24.8293 128.92 24.9238L128.928 31.3237Z" fill="white"/>
<path d="M145.313 24.875L150 31.3641H146.751L143.501 26.7649L142.128 28.2088V31.3236H139.488V14.7275H142.128V24.6722L146.418 20.1622H149.951L145.313 24.875Z" fill="white"/>
<path d="M19.9513 10.2337L31.4704 16.8364V30.1068L19.9838 36.75L8.47279 30.1636V16.9013L19.9513 10.2337ZM19.9513 0.5L15.7271 2.93343L4.22421 9.60104L0 12.0345V35.0466L4.22421 37.4801L15.7433 44.0828L19.9675 46.5162L24.1917 44.0828L35.6702 37.4314L39.8944 34.998V11.9534L35.6702 9.51993L24.1592 2.93343L19.935 0.5H19.9513Z" fill="white"/>
</g>
<defs>
<clipPath id="clip0_2178_79">
<rect width="150" height="46" fill="white" transform="translate(0 0.5)"/>
</clipPath>
</defs>
</svg>
