<svg width="184" height="47" viewBox="0 0 184 47" fill="none" xmlns="http://www.w3.org/2000/svg">
<g clip-path="url(#clip0_2178_75)">
<path d="M52.1675 26.9681C52.1648 27.1281 52.0987 27.2804 51.9838 27.3919C51.8689 27.5034 51.7144 27.5649 51.5541 27.5631H40.2586C40.5482 30.351 42.6438 32.9009 45.6082 32.9009C47.6356 32.9009 49.1349 32.1359 50.2593 30.521C50.3117 30.4361 50.3841 30.3654 50.4702 30.315C50.5564 30.2646 50.6536 30.2361 50.7534 30.232C50.8278 30.2299 50.9018 30.243 50.971 30.2704C51.0402 30.2978 51.103 30.3391 51.1556 30.3916C51.2083 30.4441 51.2496 30.5068 51.2771 30.5758C51.3046 30.6448 51.3177 30.7187 51.3156 30.793C51.316 30.8955 51.2864 30.996 51.2304 31.082C50.0889 33.0539 47.823 34.0228 45.6082 34.0228C41.8089 34.0228 39.083 30.623 39.083 27.0021C39.083 23.3813 41.7919 19.9814 45.6082 19.9814C49.4245 19.9814 52.1504 23.3473 52.1675 26.9681ZM50.9578 26.4412C50.7193 23.6533 48.5726 21.1034 45.6082 21.1034C42.6438 21.1034 40.5482 23.6533 40.2586 26.4412H50.9578Z" fill="white"/>
<path d="M65.8993 20.253C66.047 20.2573 66.1876 20.3177 66.2921 20.422C66.3966 20.5263 66.4572 20.6665 66.4615 20.814C66.4636 20.8882 66.4505 20.9621 66.423 21.0311C66.3955 21.1001 66.3542 21.1628 66.3016 21.2153C66.2489 21.2678 66.1861 21.3091 66.1169 21.3365C66.0478 21.364 65.9737 21.377 65.8993 21.3749H62.8667V33.2574C62.8654 33.4058 62.8057 33.5477 62.7006 33.6526C62.5954 33.7575 62.4532 33.8171 62.3045 33.8184C62.1567 33.8141 62.0162 33.7536 61.9117 33.6493C61.8072 33.5451 61.7465 33.4048 61.7423 33.2574V21.3749H58.8289C58.7545 21.377 58.6805 21.364 58.6113 21.3365C58.5421 21.3091 58.4793 21.2678 58.4267 21.2153C58.374 21.1628 58.3327 21.1001 58.3052 21.0311C58.2777 20.9621 58.2646 20.8882 58.2667 20.814C58.268 20.6656 58.3277 20.5237 58.4328 20.4188C58.538 20.3138 58.6802 20.2543 58.8289 20.253H61.7423V15.9182C61.7425 15.7745 61.7942 15.6357 61.8879 15.5267C61.9815 15.4176 62.1111 15.3455 62.2534 15.3232C62.3329 15.3127 62.4137 15.3194 62.4904 15.3429C62.567 15.3664 62.6377 15.4061 62.6975 15.4594C62.7574 15.5126 62.805 15.5782 62.8371 15.6515C62.8693 15.7248 62.8852 15.8042 62.8837 15.8842V20.253H65.8993Z" fill="white"/>
<path d="M84.3842 25.9993V33.1899C84.3799 33.3374 84.3193 33.4776 84.2148 33.5819C84.1102 33.6862 83.9697 33.7466 83.8219 33.7509C83.7475 33.753 83.6735 33.74 83.6043 33.7125C83.5351 33.6851 83.4723 33.6438 83.4197 33.5913C83.367 33.5388 83.3257 33.4761 83.2982 33.4071C83.2707 33.3381 83.2576 33.2642 83.2597 33.1899V25.9993C83.2597 23.5684 81.8797 21.1545 79.1708 21.1545C75.6953 21.1545 74.196 24.1803 74.4005 27.2912C74.4005 27.3762 74.4345 27.7332 74.4345 27.7842V33.1729C74.4342 33.3166 74.3826 33.4554 74.2889 33.5645C74.1952 33.6735 74.0656 33.7457 73.9234 33.7679C73.8439 33.7785 73.7631 33.7717 73.6864 33.7482C73.6098 33.7247 73.5391 33.685 73.4793 33.6317C73.4194 33.5785 73.3718 33.5129 73.3397 33.4396C73.3075 33.3663 73.2916 33.287 73.2931 33.2069V9.56098C73.2944 9.41261 73.3541 9.27069 73.4592 9.16578C73.5644 9.06086 73.7066 9.00133 73.8553 9C74.003 9.00428 74.1436 9.06475 74.2481 9.16904C74.3526 9.27333 74.4132 9.41355 74.4175 9.56098V22.9224C75.3886 21.1885 77.1264 20.0155 79.1538 20.0155C82.4931 20.0155 84.3842 22.9224 84.3842 25.9993Z" fill="white"/>
<path d="M104.675 26.9672C104.673 27.1271 104.607 27.2794 104.492 27.3909C104.377 27.5024 104.222 27.564 104.062 27.5621H92.7664C93.056 30.35 95.1516 32.8999 98.116 32.8999C100.143 32.8999 101.643 32.1349 102.767 30.52C102.819 30.4352 102.892 30.3644 102.978 30.3141C103.064 30.2637 103.161 30.2352 103.261 30.231C103.336 30.2289 103.41 30.242 103.479 30.2694C103.548 30.2969 103.611 30.3381 103.663 30.3906C103.716 30.4431 103.757 30.5058 103.785 30.5748C103.812 30.6439 103.826 30.7178 103.823 30.792C103.824 30.8945 103.794 30.995 103.738 31.081C102.597 33.0529 100.331 34.0219 98.116 34.0219C94.3168 34.0219 91.5908 30.622 91.5908 27.0012C91.5908 23.3803 94.2997 19.9805 98.116 19.9805C101.898 19.9805 104.658 23.3463 104.675 26.9672ZM103.449 26.4402C103.21 23.6523 101.063 21.1024 98.099 21.1024C95.1345 21.1024 93.039 23.6523 92.7493 26.4402H103.449Z" fill="white"/>
<path d="M118.561 20.7799C118.572 20.9308 118.522 21.0799 118.423 21.1945C118.324 21.3092 118.184 21.3801 118.033 21.3919C114.71 21.8849 113.211 24.5877 113.211 27.7326V33.1214C113.211 33.265 113.159 33.4038 113.066 33.5129C112.972 33.622 112.842 33.6941 112.7 33.7163C112.621 33.7269 112.54 33.7202 112.463 33.6967C112.386 33.6732 112.316 33.6334 112.256 33.5802C112.196 33.5269 112.148 33.4614 112.116 33.3881C112.084 33.3147 112.068 33.2354 112.07 33.1554V20.8649C112.07 20.7213 112.122 20.5824 112.215 20.4734C112.309 20.3643 112.439 20.2922 112.581 20.2699C112.66 20.2594 112.741 20.2661 112.818 20.2896C112.894 20.3131 112.965 20.3529 113.025 20.4061C113.085 20.4594 113.132 20.5249 113.165 20.5982C113.197 20.6715 113.213 20.7509 113.211 20.8309V23.3298C114.148 21.7489 116.005 20.2529 117.947 20.2529C118.237 20.2529 118.561 20.4569 118.561 20.7799Z" fill="white"/>
<path d="M137.131 26.9681C137.128 27.1281 137.062 27.2804 136.947 27.3919C136.833 27.5034 136.678 27.5649 136.518 27.5631H125.222C125.512 30.351 127.607 32.9009 130.572 32.9009C132.599 32.9009 134.098 32.1359 135.223 30.521C135.275 30.4361 135.348 30.3654 135.434 30.315C135.52 30.2646 135.617 30.2361 135.717 30.232C135.791 30.2299 135.865 30.243 135.935 30.2704C136.004 30.2978 136.067 30.3391 136.119 30.3916C136.172 30.4441 136.213 30.5068 136.241 30.5758C136.268 30.6448 136.281 30.7187 136.279 30.793C136.28 30.8955 136.25 30.996 136.194 31.082C135.053 33.0539 132.787 34.0228 130.572 34.0228C126.773 34.0228 124.047 30.623 124.047 27.0021C124.047 23.3813 126.756 19.9814 130.572 19.9814C134.388 19.9814 137.114 23.3473 137.131 26.9681ZM135.921 26.4412C135.683 23.6533 133.536 21.1034 130.572 21.1034C127.607 21.1034 125.512 23.6533 125.222 26.4412H135.921Z" fill="white"/>
<path d="M155.394 20.9159V33.2574C155.39 33.4048 155.33 33.545 155.225 33.6493C155.121 33.7536 154.98 33.8141 154.832 33.8184C154.758 33.8205 154.684 33.8074 154.615 33.78C154.545 33.7525 154.483 33.7113 154.43 33.6587C154.377 33.6062 154.336 33.5435 154.309 33.4745C154.281 33.4055 154.268 33.3316 154.27 33.2574V30.9115C153.333 32.7644 151.68 34.1073 149.568 34.1073C146.212 34.1073 144.354 31.2005 144.354 28.1236V20.8989C144.356 20.7505 144.415 20.6086 144.521 20.5037C144.626 20.3988 144.768 20.3393 144.917 20.3379C145.064 20.3422 145.205 20.4027 145.31 20.507C145.414 20.6113 145.475 20.7515 145.479 20.8989V28.1236C145.479 30.5545 146.859 32.9684 149.568 32.9684C153.367 32.9684 154.27 29.4155 154.27 25.4887V20.8819C154.271 20.791 154.294 20.7017 154.337 20.6214C154.38 20.5412 154.442 20.4724 154.517 20.4208C154.592 20.3692 154.678 20.3363 154.769 20.3249C154.859 20.3134 154.951 20.3237 155.037 20.3549C155.144 20.4046 155.234 20.4838 155.298 20.5832C155.361 20.6826 155.395 20.7981 155.394 20.9159Z" fill="white"/>
<path d="M184 25.9484V33.1731C183.996 33.3205 183.935 33.4607 183.831 33.565C183.726 33.6693 183.586 33.7298 183.438 33.734C183.363 33.7361 183.289 33.7231 183.22 33.6956C183.151 33.6682 183.088 33.6269 183.036 33.5744C182.983 33.5219 182.942 33.4592 182.914 33.3902C182.887 33.3212 182.873 33.2473 182.876 33.1731V25.9484C182.876 23.5175 181.496 21.1376 178.787 21.1376C175.379 21.1376 174.084 24.7754 174.084 27.5973V33.1731C174.08 33.3205 174.02 33.4607 173.915 33.565C173.811 33.6693 173.67 33.7298 173.522 33.734C173.448 33.7361 173.374 33.7231 173.305 33.6956C173.235 33.6682 173.173 33.6269 173.12 33.5744C173.067 33.5219 173.026 33.4592 172.999 33.3902C172.971 33.3212 172.958 33.2473 172.96 33.1731V25.9484C172.96 23.5175 171.58 21.1376 168.871 21.1376C165.43 21.1376 164.016 23.8405 164.135 27.4443C164.135 27.5293 164.169 27.6823 164.135 27.7333V33.1561C164.135 33.2997 164.083 33.4385 163.989 33.5476C163.896 33.6566 163.766 33.7288 163.624 33.751C163.544 33.7616 163.463 33.7548 163.387 33.7313C163.31 33.7078 163.239 33.6681 163.18 33.6148C163.12 33.5616 163.072 33.4961 163.04 33.4227C163.008 33.3494 162.992 33.2701 162.993 33.1901V20.8656C162.994 20.7219 163.045 20.5831 163.139 20.4741C163.233 20.365 163.362 20.2929 163.504 20.2706C163.584 20.2601 163.665 20.2668 163.741 20.2903C163.818 20.3138 163.889 20.3535 163.949 20.4068C164.009 20.4601 164.056 20.5256 164.088 20.5989C164.12 20.6722 164.136 20.7516 164.135 20.8316V22.8885C165.106 21.1546 166.844 20.0156 168.871 20.0156C171.171 20.0156 172.96 21.4776 173.693 23.6025C174.63 21.4946 176.453 20.0156 178.787 20.0156C182.109 20.0156 184 22.8885 184 25.9484Z" fill="white"/>
<path opacity="0.6" d="M14.1407 17.5166L0 23.9253L14.1407 32.272L28.2985 23.9253L14.1407 17.5166Z" fill="white"/>
<path opacity="0.45" d="M0 23.925L14.1407 32.2716V0.5L0 23.925Z" fill="white"/>
<path opacity="0.8" d="M14.1407 0.5V32.2716L28.2985 23.925L14.1407 0.5Z" fill="white"/>
<path opacity="0.45" d="M0 26.6113L14.1407 46.5005V34.941L0 26.6113Z" fill="white"/>
<path opacity="0.8" d="M14.1407 34.941V46.5005L28.2985 26.6113L14.1407 34.941Z" fill="white"/>
</g>
<defs>
<clipPath id="clip0_2178_75">
<rect width="184" height="46" fill="white" transform="translate(0 0.5)"/>
</clipPath>
</defs>
</svg>
