<svg width="181" height="47" viewBox="0 0 181 47" fill="none" xmlns="http://www.w3.org/2000/svg">
<g clip-path="url(#clip0_2178_76)">
<path d="M1.57104 14.4871V32.5116C1.57104 33.6165 2.2154 34.7213 3.14213 35.2701L18.8167 44.2824C19.8303 44.8312 21.0322 44.8312 22.0458 44.2824L37.7204 35.2701C38.734 34.7213 39.2914 33.6165 39.2914 32.5116V14.4871C39.2914 13.3822 38.6471 12.2774 37.7204 11.7285L22.0385 2.7163C21.0249 2.16748 19.8231 2.16748 18.8095 2.7163L3.13488 11.7285C2.12128 12.2774 1.57104 13.3822 1.57104 14.4871Z" fill="black"/>
<path d="M23.8848 26.995L21.6693 33.0681C21.5752 33.2487 21.5752 33.4364 21.6693 33.6169L25.5427 44.1023L29.9664 41.5243L24.616 26.995C24.5291 26.6267 24.0658 26.6267 23.8848 26.995Z" fill="white"/>
<path d="M28.3088 16.6971C28.2147 16.3288 27.7586 16.3288 27.5703 16.6971L25.3549 22.7703C25.2608 22.9508 25.2608 23.1386 25.3549 23.3191L31.6247 40.5203L36.0484 37.9423L28.3088 16.6971Z" fill="white"/>
<path d="M20.3806 3.35927C20.4747 3.35927 20.5616 3.35927 20.6557 3.45315L37.619 13.202C37.8 13.2958 37.8941 13.4764 37.8941 13.7508V33.2484C37.8941 33.429 37.8 33.7106 37.619 33.7973L20.6557 43.5461C20.5616 43.64 20.4747 43.64 20.3806 43.64C20.2864 43.64 20.1996 43.64 20.1054 43.5461L3.14213 33.7973C2.96113 33.7034 2.86701 33.5228 2.86701 33.2484V13.7508C2.86701 13.5703 2.96113 13.2886 3.14213 13.202L20.1054 3.45315C20.1923 3.35927 20.2864 3.35927 20.3806 3.35927ZM20.3806 0.506836C19.7362 0.506836 19.1787 0.68737 18.6285 0.969002L1.66517 10.7178C0.557446 11.3605 -0.0869141 12.4654 -0.0869141 13.7508V33.2484C-0.0869141 34.4472 0.557446 35.6387 1.66517 36.2814L18.6285 46.0302C19.1787 46.3046 19.7362 46.4924 20.3806 46.4924C21.0249 46.4924 21.5824 46.3119 22.1326 46.0302L39.096 36.2814C40.2037 35.6387 40.848 34.5338 40.848 33.2484V13.7508C40.848 12.552 40.2037 11.3605 39.096 10.7178L22.2195 0.969002C21.6693 0.694591 21.1118 0.506836 20.4674 0.506836H20.3806Z" fill="white"/>
<path d="M9.22375 40.513L10.7876 36.2812L13.9225 38.8593L10.9758 41.6178L9.22375 40.513Z" fill="white"/>
<path d="M18.9977 12.3721H14.6609C14.3858 12.3721 14.0166 12.5526 13.9225 12.8342L4.70593 38.0295L9.12957 40.6076L19.2728 12.9209C19.3669 12.6465 19.1787 12.3721 18.9036 12.3721H18.9977Z" fill="white"/>
<path d="M26.4621 12.3718H22.1253C21.8502 12.3718 21.481 12.5523 21.3868 12.834L10.8816 41.5244L15.3052 44.1024L26.7372 12.834C26.8313 12.5596 26.6431 12.2852 26.368 12.2852L26.4621 12.3718Z" fill="white"/>
<path d="M59.1074 17.6143C59.5707 17.6143 59.94 17.7081 60.2151 17.8887C60.4902 18.0692 60.7653 18.4375 61.0477 18.8997L66.6732 29.0168C66.7673 29.1106 66.7673 29.1973 66.6732 29.2912C66.6732 29.3851 66.5791 29.3851 66.3981 29.3851H64.2767C64.0957 29.3851 64.0016 29.2912 63.9075 29.2045L62.6984 26.9948H54.7706L53.5688 29.2045C53.4747 29.3851 53.3878 29.3851 53.1995 29.3851H50.9841C50.8031 29.3851 50.709 29.3851 50.709 29.2912C50.709 29.1973 50.709 29.1106 50.709 29.0168L56.2403 18.8997C56.5155 18.3508 56.7906 18.0692 57.0729 17.8887C57.3553 17.7081 57.6232 17.6143 57.9924 17.6143H59.006H59.1074ZM55.7842 25.0667H61.5907L58.9191 20.0984C58.825 20.0045 58.825 20.0045 58.7381 20.0045H58.644C58.5499 20.0045 58.463 20.0045 58.463 20.0984L55.7842 25.0667Z" fill="white"/>
<path d="M78.9305 17.6143C80.2192 17.6143 81.146 17.8887 81.6962 18.5314C82.2465 19.0802 82.5288 20.0045 82.5288 21.1094V22.0265C82.5288 23.0375 82.3478 23.7741 81.9786 24.3229C81.6093 24.8717 80.965 25.24 80.0455 25.4278L82.9053 29.0168C82.9994 29.1106 82.9994 29.1973 82.9994 29.2912C82.9994 29.3851 82.9053 29.4717 82.7243 29.4717H80.5089C80.3279 29.4717 80.2337 29.4717 80.2337 29.3778C80.1396 29.3778 80.1396 29.284 80.0527 29.1973L77.3812 25.7022H71.9439V29.1034C71.9439 29.3778 71.8498 29.4717 71.5747 29.4717H69.7285C69.4534 29.4717 69.3593 29.3778 69.3593 29.1034V18.1631C69.3593 17.7948 69.5403 17.6143 69.9095 17.6143H79.0391H78.9305ZM71.9222 23.6802H78.3731C78.9233 23.6802 79.3867 23.5863 79.5749 23.3119C79.85 23.0375 79.9441 22.6692 79.9441 22.207V21.4705C79.9441 20.9216 79.85 20.5533 79.5749 20.3656C79.2998 20.0912 78.9305 19.9973 78.3731 19.9973H72.1032C71.9222 19.9973 71.9222 20.0912 71.9222 20.1778V23.6802Z" fill="white"/>
<path d="M96.7268 17.6143C97.9286 17.6143 98.754 17.8887 99.2173 18.3508C99.6807 18.813 99.9558 19.5496 99.9558 20.4667V21.2971C99.9558 22.2143 99.5866 22.9508 98.8481 23.413C99.5866 23.8752 100.05 24.6117 100.05 25.6227V26.6337C100.05 27.0959 99.9558 27.4642 99.8689 27.8325C99.7821 28.2008 99.5938 28.4752 99.4056 28.7496C99.1305 29.024 98.8553 29.2117 98.4861 29.2984C98.1169 29.3923 97.6535 29.4789 97.1033 29.4789H87.0541C86.6849 29.4789 86.5039 29.2984 86.5039 28.9301V18.1703C86.5039 17.802 86.6849 17.6215 87.0541 17.6215H96.8281H96.7268V17.6143ZM89.0741 22.4887H95.9883C96.5385 22.4887 96.9078 22.3948 97.096 22.2143C97.2843 22.0337 97.3711 21.846 97.3711 21.4777V20.9289C97.3711 20.5606 97.277 20.2862 97.096 20.1923C96.915 20.0117 96.5458 19.9179 96.1765 19.9179H89.2623C89.0813 19.9179 89.0813 20.0117 89.0813 20.0984V22.4887H89.0741ZM89.0741 24.3301V26.8143C89.0741 26.9948 89.1682 26.9948 89.2551 26.9948H96.1693C96.6327 26.9948 96.9078 26.9009 97.0888 26.7204C97.2698 26.5398 97.3639 26.2582 97.3639 25.9838V25.3411C97.3639 24.9728 97.2698 24.6984 97.0888 24.5106C96.9078 24.3229 96.5385 24.2362 95.8869 24.2362H88.98L89.0741 24.3301Z" fill="white"/>
<path d="M106.312 17.6143C106.587 17.6143 106.681 17.7081 106.681 17.9825V29.0168C106.681 29.2912 106.587 29.3851 106.312 29.3851H104.466C104.191 29.3851 104.097 29.2912 104.097 29.0168V17.9825C104.097 17.7081 104.191 17.6143 104.466 17.6143H106.312Z" fill="white"/>
<path d="M124.108 17.6143C124.383 17.6143 124.477 17.7081 124.477 17.9825V19.6362C124.477 19.9106 124.383 20.0045 124.108 20.0045H118.757V29.0168C118.757 29.2912 118.663 29.3851 118.388 29.3851H116.542C116.267 29.3851 116.173 29.2912 116.173 29.0168V20.0045H110.822C110.547 20.0045 110.453 19.9106 110.453 19.6362V17.9825C110.453 17.7081 110.547 17.6143 110.822 17.6143H124.006H124.108Z" fill="white"/>
<path d="M137.48 17.6143C138.769 17.6143 139.696 17.8887 140.246 18.5314C140.796 19.0802 141.079 20.0045 141.079 21.1094V22.0265C141.079 23.0375 140.898 23.7741 140.528 24.3229C140.159 24.8717 139.515 25.24 138.595 25.4278L141.455 29.0168C141.549 29.1106 141.549 29.1973 141.549 29.2912C141.549 29.3851 141.455 29.4717 141.274 29.4717H139.059C138.878 29.4717 138.784 29.4717 138.784 29.3778C138.689 29.3778 138.689 29.284 138.603 29.1973L135.931 25.7022H130.494V29.1034C130.494 29.3778 130.4 29.4717 130.125 29.4717H128.278C128.003 29.4717 127.909 29.3778 127.909 29.1034V18.1631C127.909 17.7948 128.09 17.6143 128.459 17.6143H137.589H137.48ZM130.472 23.6802H136.923C137.473 23.6802 137.936 23.5863 138.125 23.3119C138.4 23.0375 138.494 22.6692 138.494 22.207V21.4705C138.494 20.9216 138.4 20.5533 138.125 20.3656C137.85 20.0912 137.48 19.9973 136.923 19.9973H130.653C130.472 19.9973 130.472 20.0912 130.472 20.1778V23.6802Z" fill="white"/>
<path d="M146.979 17.6143C147.254 17.6143 147.348 17.7081 147.348 17.9825V24.6984C147.348 25.1606 147.348 25.5289 147.443 25.8033C147.537 26.0777 147.624 26.3521 147.812 26.5398C148 26.7276 148.181 26.8143 148.456 26.9081C148.731 27.002 149.101 27.002 149.564 27.002H154.27C154.733 27.002 155.102 27.002 155.378 26.9081C155.653 26.8143 155.928 26.7276 156.022 26.5398C156.203 26.3593 156.297 26.0777 156.391 25.8033C156.485 25.5289 156.485 25.1606 156.485 24.6984V17.9825C156.485 17.7081 156.579 17.6143 156.855 17.6143H158.701C158.976 17.6143 159.07 17.7081 159.07 17.9825V24.9728C159.07 25.8033 158.976 26.446 158.795 26.9948C158.614 27.5436 158.332 28.0058 157.962 28.3741C157.593 28.7424 157.13 29.0168 156.485 29.1106C155.841 29.2912 155.197 29.3851 154.27 29.3851H149.383C148.55 29.3851 147.812 29.2912 147.167 29.1106C146.617 28.9301 146.06 28.6485 145.69 28.3741C145.321 28.0058 145.046 27.5436 144.858 26.9948C144.677 26.446 144.583 25.7094 144.583 24.9728V17.9825C144.583 17.7081 144.677 17.6143 144.952 17.6143H146.798H146.979Z" fill="white"/>
<path d="M166.339 17.6143C166.615 17.6143 166.803 17.6143 166.984 17.7081C167.165 17.7081 167.353 17.802 167.447 17.8887C167.541 17.9825 167.722 18.0692 167.816 18.257C167.91 18.4375 167.997 18.6252 168.186 18.8997L171.69 26.9948C171.784 27.0887 171.784 27.1753 171.965 27.1753H172.146C172.24 27.1753 172.327 27.0814 172.421 26.9948L175.925 18.8997C176.019 18.6252 176.106 18.4375 176.294 18.257C176.389 18.0764 176.475 17.9825 176.664 17.8887C176.758 17.7948 176.939 17.7081 177.127 17.7081C177.315 17.7081 177.496 17.6143 177.771 17.6143H179.618C180.168 17.6143 180.631 17.7081 180.819 17.9825C181 18.257 181.095 18.7191 181.095 19.3618V29.0168C181.095 29.2912 181 29.3851 180.725 29.3851H178.973C178.698 29.3851 178.604 29.2912 178.604 29.0168V20.1923C178.604 20.0984 178.51 20.0117 178.51 20.0117H178.329C178.235 20.0117 178.148 20.1056 178.148 20.1056L174.738 27.6447C174.644 27.9191 174.463 28.1935 174.274 28.3813C174.086 28.569 173.999 28.7496 173.811 28.9301C173.63 29.024 173.442 29.2045 173.261 29.2045C173.08 29.2984 172.797 29.2984 172.522 29.2984H171.69C171.415 29.2984 171.14 29.2984 170.951 29.2045C170.763 29.1106 170.582 29.024 170.401 28.9301C170.22 28.8362 170.126 28.6557 169.938 28.3813C169.757 28.2008 169.663 27.9191 169.474 27.6447L166.064 20.1056C166.064 20.0117 165.97 20.0117 165.883 20.0117H165.702C165.608 20.0117 165.608 20.1056 165.608 20.1923V29.024C165.608 29.2984 165.514 29.3923 165.239 29.3923H163.48C163.204 29.3923 163.11 29.2984 163.11 29.024V19.3618C163.11 18.7191 163.204 18.257 163.385 17.9825C163.566 17.7081 164.03 17.6143 164.587 17.6143H166.434H166.339Z" fill="white"/>
</g>
<defs>
<clipPath id="clip0_2178_76">
<rect width="181" height="46" fill="white" transform="translate(0 0.5)"/>
</clipPath>
</defs>
</svg>
