<svg width="308" height="47" viewBox="0 0 308 47" fill="none" xmlns="http://www.w3.org/2000/svg">
<g clip-path="url(#clip0_2178_72)">
<path d="M51.0545 36.7571L42.5784 45.8461C42.3936 46.0434 42.1718 46.2037 41.9254 46.3147C41.679 46.4257 41.408 46.4751 41.1493 46.4751H0.986051C0.788931 46.4751 0.604131 46.4134 0.443971 46.3147C0.283811 46.2037 0.160611 46.0558 0.0743709 45.8831C0.000450936 45.7104 -0.0241891 45.5131 0.000450938 45.3281C0.0250909 45.1432 0.123651 44.9582 0.246851 44.8225L8.71069 35.7335C8.89549 35.5362 9.11725 35.3759 9.36365 35.2772C9.61005 35.1662 9.88109 35.1169 10.1521 35.1169H50.3153C50.5125 35.1169 50.6973 35.1662 50.8574 35.2649C51.0176 35.3635 51.1531 35.5238 51.227 35.6965C51.3009 35.8692 51.3256 36.0665 51.3009 36.2638C51.2763 36.4365 51.1777 36.6091 51.0545 36.7571ZM42.5784 18.4311C42.3936 18.2338 42.1718 18.0734 41.9254 17.9748C41.679 17.8638 41.408 17.8145 41.1493 17.8145H0.986051C0.788931 17.8145 0.604131 17.8761 0.443971 17.9748C0.283811 18.0858 0.160611 18.2338 0.0743709 18.4064C0.000450936 18.5791 -0.0241891 18.7764 0.000450938 18.9614C0.0374109 19.1464 0.123651 19.3314 0.246851 19.467L8.71069 28.5684C8.89549 28.7657 9.11725 28.926 9.36365 29.0247C9.61005 29.1356 9.88109 29.185 10.1398 29.185H50.303C50.5001 29.185 50.6849 29.1233 50.8451 29.0247C51.0053 28.9137 51.1285 28.7657 51.2024 28.593C51.2763 28.4204 51.3009 28.223 51.264 28.0381C51.227 27.8531 51.1408 27.6681 51.0176 27.5324L42.5784 18.4311ZM0.986051 11.9072H41.1493C41.4203 11.9072 41.679 11.8456 41.9254 11.7469C42.1718 11.6359 42.3936 11.4756 42.5784 11.2783L51.0545 2.18927C51.1901 2.05361 51.2763 1.86862 51.3133 1.68364C51.3502 1.49865 51.3256 1.30133 51.2393 1.11634C51.1654 0.94369 51.0299 0.795701 50.8697 0.684709C50.7096 0.58605 50.5125 0.524387 50.3277 0.53672H10.1645C9.89341 0.53672 9.63469 0.598382 9.37597 0.697042C9.12957 0.808034 8.90781 0.968355 8.72301 1.16567L0.259171 10.2547C0.123651 10.3903 0.0374109 10.5753 0.0127709 10.7603C-0.0118691 10.9453 0.000450936 11.1426 0.0866909 11.3153C0.160611 11.4879 0.283811 11.6359 0.456291 11.7469C0.604131 11.8456 0.788931 11.9072 0.986051 11.9072Z" fill="white"/>
<path d="M100.014 19.961H78.5277V12.8822H105.595V5.79102H78.4537C77.5297 5.79102 76.6057 5.96367 75.7557 6.30898C74.8933 6.65429 74.1171 7.17225 73.4518 7.82587C72.7865 8.47949 72.2691 9.25643 71.9118 10.1074C71.5545 10.9583 71.3697 11.8832 71.3574 12.8082V19.9857C71.3574 20.9106 71.5422 21.8355 71.9118 22.6865C72.2691 23.5374 72.7989 24.3267 73.4518 24.968C74.1171 25.6216 74.8933 26.1395 75.7557 26.4848C76.6181 26.8425 77.5297 27.0151 78.4661 27.0151H99.9768V34.094H71.8625V41.1728H100.001C100.925 41.1728 101.849 41.0001 102.712 40.6548C103.574 40.3095 104.35 39.7915 105.016 39.1379C105.669 38.4843 106.198 37.7074 106.556 36.8564C106.913 36.0055 107.098 35.0806 107.11 34.1556V26.9781C107.11 26.0532 106.925 25.1283 106.556 24.2773C106.198 23.4264 105.669 22.6371 105.016 21.9835C104.35 21.3299 103.574 20.8119 102.712 20.4666C101.862 20.1336 100.938 19.9487 100.014 19.961Z" fill="white"/>
<path d="M141.631 5.79062H120.071C119.147 5.77829 118.223 5.96327 117.361 6.30858C116.498 6.65389 115.722 7.17185 115.057 7.82547C114.392 8.47909 113.874 9.25603 113.505 10.107C113.147 10.9702 112.95 11.8828 112.95 12.8078V34.1552C112.95 35.0802 113.147 36.0051 113.505 36.856C113.862 37.7193 114.392 38.4962 115.057 39.1375C115.722 39.7912 116.498 40.3091 117.361 40.6544C118.223 40.9997 119.147 41.1847 120.071 41.1724H141.631C142.555 41.1724 143.479 40.9997 144.342 40.6544C145.204 40.3091 145.98 39.7912 146.645 39.1375C147.311 38.4839 147.828 37.707 148.185 36.856C148.543 36.0051 148.727 35.0802 148.74 34.1552V12.8201C148.74 11.8952 148.543 10.9702 148.185 10.1193C147.828 9.26837 147.298 8.49142 146.645 7.8378C145.992 7.18418 145.204 6.66622 144.342 6.32091C143.479 5.96327 142.555 5.79062 141.631 5.79062ZM141.582 34.1182H120.12V12.8818H141.57L141.582 34.1182Z" fill="white"/>
<path d="M217.165 5.79066H196.135C195.211 5.79066 194.287 5.96331 193.424 6.30862C192.562 6.65393 191.786 7.17189 191.121 7.82551C190.468 8.47913 189.938 9.25607 189.581 10.107C189.223 10.9579 189.039 11.8829 189.026 12.8078V41.1971H196.196V29.5676H217.14V41.1971H224.311V12.8201C224.311 11.8829 224.114 10.9703 223.756 10.107C223.399 9.24374 222.869 8.4668 222.204 7.81318C221.539 7.15956 220.75 6.64159 219.888 6.29629C219.025 5.95098 218.101 5.77832 217.165 5.79066ZM217.116 22.4888H196.172V12.8695H217.116V22.4888Z" fill="white"/>
<path d="M300.904 5.79102H279.874C278.95 5.79102 278.026 5.96367 277.164 6.30898C276.301 6.65429 275.525 7.17225 274.86 7.82587C274.195 8.47949 273.677 9.25643 273.32 10.1074C272.963 10.9583 272.778 11.8832 272.766 12.8082V41.1975H279.936V29.568H300.831V41.1975H308.001V12.8205C308.001 11.8956 307.804 10.9706 307.446 10.1197C307.089 9.26876 306.559 8.49182 305.906 7.8382C305.241 7.18458 304.465 6.66662 303.603 6.32131C302.753 5.96367 301.828 5.79102 300.904 5.79102ZM300.831 22.4891H279.887V12.8698H300.831V22.4891Z" fill="white"/>
<path d="M259.238 34.1177H256.367L246.117 8.76216C245.772 7.88655 245.156 7.13427 244.38 6.60398C243.604 6.07368 242.68 5.79004 241.744 5.79004H235.374C234.758 5.79004 234.142 5.90103 233.575 6.13535C233.009 6.36966 232.479 6.71497 232.048 7.14661C231.604 7.57824 231.259 8.09621 231.025 8.67583C230.791 9.24312 230.656 9.85974 230.656 10.4764V41.1965H237.826V12.8812H240.696L250.947 38.249C251.304 39.1246 251.908 39.8646 252.696 40.3949C253.484 40.9252 254.396 41.1965 255.345 41.1965H261.714C262.33 41.1965 262.946 41.0855 263.513 40.8512C264.092 40.6169 264.609 40.2715 265.041 39.8399C265.484 39.4083 265.829 38.8903 266.063 38.3107C266.297 37.7434 266.433 37.1268 266.433 36.5101V5.80237H259.25V34.1177H259.238Z" fill="white"/>
<path d="M162.23 5.79102H155.06V34.168C155.06 35.0929 155.257 36.0178 155.614 36.8811C155.971 37.7444 156.501 38.5213 157.166 39.1626C157.832 39.8162 158.608 40.3342 159.47 40.6795C160.333 41.0248 161.257 41.2098 162.181 41.1974H183.691V34.1186H162.23V5.79102Z" fill="white"/>
</g>
<defs>
<clipPath id="clip0_2178_72">
<rect width="308" height="46" fill="white" transform="translate(0 0.5)"/>
</clipPath>
</defs>
</svg>
