<svg width="345" height="47" viewBox="0 0 345 47" fill="none" xmlns="http://www.w3.org/2000/svg">
<g clip-path="url(#clip0_2178_68)">
<path d="M17.4018 46.4999C12.351 46.4999 8.1696 45.2843 4.8714 42.8392C1.5732 40.408 0 36.9131 0 32.5618C0 31.6915 0.1794 30.4759 0.345 29.0807C0.8694 25.9449 1.7388 22.2843 2.7876 17.9329C5.7408 6.24644 13.2342 0.320312 25.4196 0.320312C28.7316 0.320312 31.6848 0.845237 34.293 2.06085C36.9012 3.1107 38.9988 4.67166 40.5582 6.93713C42.1314 9.02301 42.8214 11.6476 42.8214 14.6038C42.8214 15.4741 42.642 16.6897 42.4764 17.9191C41.7864 21.7455 41.0826 25.4062 40.2132 29.0669C38.64 34.993 36.0318 39.3443 32.3748 42.1347C28.7178 44.9251 23.667 46.4999 17.5812 46.4999H17.4018ZM18.2712 37.2584C20.7138 37.2584 22.7976 36.5678 24.357 35.1726C26.0958 33.7774 27.3102 31.6915 28.014 28.7215C29.0628 24.7155 29.7528 21.2344 30.2772 18.2645C30.4566 17.3942 30.4566 16.5239 30.4566 15.4741C30.4566 11.6476 28.3728 9.72752 24.3708 9.72752C21.9282 9.72752 19.8444 10.4182 18.1056 11.8134C16.3668 13.2086 15.1524 15.2945 14.4486 18.2645C13.7586 21.0548 12.8754 24.5359 12.1854 28.7215C12.006 29.5918 12.006 30.4759 12.006 31.3461C12.006 35.3521 14.1036 37.2584 18.2712 37.2584Z" fill="white"/>
<path d="M49.266 45.9754C48.7416 45.9754 48.3966 45.7958 48.2172 45.4505C48.0378 45.1052 47.8722 44.7598 48.0378 44.2349L56.9112 2.58624C57.0906 2.06132 57.2562 1.71597 57.6012 1.37063C57.9462 1.02528 58.4706 0.845703 58.8156 0.845703H76.0518C80.7576 0.845703 84.5802 1.89555 87.5334 3.80186C90.4866 5.70817 91.908 8.69195 91.908 12.3526C91.908 13.4025 91.7286 14.4385 91.563 15.6679C90.5142 20.5442 88.251 24.2049 85.1184 26.4703C81.8064 28.7358 77.4594 29.9514 71.8842 29.9514H63.1764L60.2232 43.8895C60.2232 44.4145 59.8782 44.7598 59.5332 45.1052C59.1882 45.4505 58.6638 45.6301 58.3188 45.6301H49.611L49.266 45.9754ZM72.0636 21.5802C73.8024 21.5802 75.3756 21.0553 76.7694 20.185C78.1632 19.1352 79.0326 17.74 79.557 15.9995C79.7364 15.3088 79.7364 14.6043 79.7364 14.0793C79.7364 12.8637 79.3914 11.9935 78.6876 11.2889C77.9838 10.5844 76.7694 10.2391 74.865 10.2391H67.206L64.7634 21.7322H72.243L72.0636 21.5802Z" fill="white"/>
<path d="M106.357 45.9754C105.833 45.9754 105.488 45.7958 105.308 45.4505C105.129 45.1052 104.963 44.7598 105.129 44.2349L112.263 11.1232H100.782C100.257 11.1232 99.9124 10.9436 99.733 10.5983C99.5536 10.2529 99.388 9.90757 99.5536 9.38264L101.127 2.58624C101.306 2.06132 101.472 1.71597 101.817 1.37063C102.162 1.02528 102.686 0.845703 103.031 0.845703H137.669C138.194 0.845703 138.539 1.02528 138.718 1.37063C138.897 1.55021 138.897 1.89555 138.897 2.06132C138.897 2.22708 138.897 2.2409 138.897 2.40666L137.324 9.20306C137.324 9.72798 136.979 10.0733 136.634 10.4187C136.289 10.764 135.944 10.9436 135.42 10.9436H123.938L116.804 44.0553C116.624 44.5802 116.459 44.9256 116.114 45.2709C115.769 45.6163 115.244 45.7958 114.899 45.7958H106.371V45.9754H106.357Z" fill="white"/>
<path d="M140.47 45.9754C139.946 45.9754 139.601 45.7958 139.421 45.4505C139.242 45.1052 139.076 44.7598 139.242 44.2349L148.295 2.58624C148.295 2.06132 148.64 1.71597 148.985 1.37063C149.33 1.02528 149.854 0.845703 150.199 0.845703H158.907C159.431 0.845703 159.776 1.02528 159.956 1.37063C160.135 1.55021 160.135 1.89555 160.135 2.06132C160.135 2.22708 160.135 2.2409 160.135 2.40666L151.262 44.0553C151.262 44.5802 150.917 44.9256 150.572 45.2709C150.227 45.6163 149.702 45.7958 149.357 45.7958H140.65L140.47 45.9754Z" fill="white"/>
<path d="M165.186 45.9753C164.662 45.9753 164.317 45.7957 164.137 45.4504C163.958 45.1051 163.792 44.7597 163.958 44.2348L172.831 2.58614C172.831 2.06121 173.176 1.71587 173.521 1.37052C173.866 1.02517 174.391 0.845595 174.736 0.845595H181.705C182.753 0.845595 183.443 1.37052 183.623 2.24079L190.592 22.4504L206.255 2.24079C206.434 1.89545 206.779 1.5501 207.124 1.19094C207.469 0.831781 207.994 0.666016 208.697 0.666016H215.666C216.191 0.666016 216.536 0.845595 216.715 1.19094C216.895 1.37052 216.895 1.71587 216.895 1.88163C216.895 2.0474 216.895 2.06121 216.895 2.22698L208.021 43.8756C208.021 44.4006 207.676 44.7459 207.331 45.0912C206.986 45.4366 206.462 45.6162 206.117 45.6162H198.278C197.754 45.6162 197.409 45.4366 197.23 45.0912C197.05 44.7459 196.885 44.4006 197.05 43.8756L202.101 20.3507L192.179 33.4186C191.834 33.9435 191.309 34.2888 190.964 34.4684C190.619 34.648 190.095 34.8138 189.571 34.8138H186.259C185.389 34.8138 184.685 34.2888 184.34 33.4186L179.814 19.8396L174.598 44.0552C174.418 44.5801 174.253 44.9255 173.908 45.2708C173.563 45.6162 173.038 45.7957 172.693 45.7957H165.034L165.186 45.9753Z" fill="white"/>
<path d="M222.111 45.9754C221.587 45.9754 221.242 45.7958 221.062 45.4505C220.883 45.1052 220.717 44.7598 220.883 44.2349L229.936 2.58624C230.115 2.06132 230.281 1.71597 230.626 1.37063C230.971 1.02528 231.495 0.845703 231.84 0.845703H240.548C241.072 0.845703 241.417 1.02528 241.597 1.37063C241.776 1.55021 241.776 1.89555 241.776 2.06132C241.776 2.22708 241.776 2.2409 241.776 2.40666L232.903 44.0553C232.903 44.5802 232.558 44.9256 232.213 45.2709C231.868 45.6163 231.343 45.7958 230.998 45.7958H222.29L222.111 45.9754Z" fill="white"/>
<path d="M262.49 46.4998C258.667 46.4998 255.521 45.9748 252.747 44.925C250.139 43.8751 248.041 42.4799 246.661 40.919C245.267 39.1784 244.577 37.2583 244.577 35.1724C244.577 34.8271 244.577 34.3022 244.757 33.5976C244.936 33.2523 245.102 32.907 245.281 32.5478C245.626 32.3682 245.971 32.2025 246.33 32.2025H254.513C255.038 32.2025 255.383 32.2025 255.728 32.382C256.073 32.5616 256.252 32.907 256.597 33.2523C256.942 34.3022 257.646 35.3382 258.681 36.0427C259.716 36.7472 261.289 37.0925 263.207 37.0925C265.65 37.0925 267.554 36.7472 269.127 35.8769C270.701 35.1862 271.57 34.1364 271.915 32.7412C271.915 32.5616 271.915 32.3958 271.915 32.0505C271.915 31.0007 271.225 30.1304 269.997 29.6055C268.603 28.9148 266.174 28.2103 262.683 27.34C258.501 26.4697 255.369 25.0745 253.285 23.334C251.201 21.4139 249.973 19.1484 249.973 16.1922C249.973 15.1424 250.152 14.1064 250.318 13.0565C251.187 9.0505 253.271 5.91477 256.763 3.6493C260.254 1.38383 264.601 0.333984 269.997 0.333984C273.309 0.333984 276.083 0.858909 278.705 2.07452C281.327 3.29014 283.231 4.68534 284.625 6.42588C286.019 8.16642 286.709 9.90696 286.709 11.6475C286.709 12.1724 286.709 12.5178 286.709 12.6973C286.709 13.0427 286.364 13.388 286.184 13.7472C286.005 13.9268 285.66 14.0925 285.135 14.0925H276.414C275.544 14.0925 274.841 13.7472 274.496 13.0427C274.496 11.9928 273.971 11.3022 272.922 10.5976C271.874 9.89314 270.659 9.5478 269.1 9.5478C267.182 9.5478 265.622 9.89314 264.394 10.5976C263.166 11.3022 262.476 12.3382 262.131 13.5538C262.131 13.7334 262.131 14.0787 262.131 14.4241C262.131 15.4739 262.655 16.3442 263.87 17.0349C265.084 17.7256 267.347 18.2505 270.314 18.955C275.186 19.8253 278.663 21.2205 280.761 22.961C283.024 24.7016 284.073 26.967 284.073 29.937C284.073 30.9868 283.893 32.0229 283.728 33.0727C282.858 37.4241 280.416 40.7394 276.759 43.0049C273.102 45.2703 268.23 46.3202 262.31 46.3202L262.49 46.4998Z" fill="white"/>
<path d="M292.96 45.9753C292.436 45.9753 292.091 45.7957 291.912 45.4504C291.732 45.1051 291.567 44.7597 291.732 44.2348L300.606 2.58614C300.606 2.06121 300.951 1.71587 301.296 1.37052C301.641 1.02517 302.165 0.845595 302.51 0.845595H309.479C310.528 0.845595 311.218 1.37052 311.397 2.24079L318.366 22.4504L334.029 2.24079C334.209 1.89545 334.554 1.5501 334.899 1.19094C335.244 0.831781 335.768 0.666016 336.472 0.666016H343.441C343.965 0.666016 344.31 0.845595 344.49 1.19094C344.669 1.37052 344.669 1.71587 344.669 1.88163C344.669 2.0474 344.669 2.06121 344.669 2.22698L335.796 43.8756C335.616 44.4006 335.451 44.7459 335.106 45.0912C334.761 45.4366 334.236 45.6162 333.891 45.6162H326.053C325.529 45.6162 325.184 45.4366 325.004 45.0912C324.825 44.7459 324.659 44.4006 324.825 43.8756L329.875 20.3507L319.953 33.4186C319.608 33.9435 319.084 34.2888 318.739 34.4684C318.394 34.648 317.87 34.8138 317.345 34.8138H314.033C313.164 34.8138 312.46 34.2888 312.115 33.4186L307.588 19.8258L302.358 44.0552C302.179 44.5801 302.013 44.9255 301.668 45.2708C301.323 45.6162 300.799 45.7957 300.454 45.7957H292.795L292.96 45.9753Z" fill="white"/>
</g>
<defs>
<clipPath id="clip0_2178_68">
<rect width="345" height="46" fill="white" transform="translate(0 0.5)"/>
</clipPath>
</defs>
</svg>
