<svg width="211" height="47" viewBox="0 0 211 47" fill="none" xmlns="http://www.w3.org/2000/svg">
<g clip-path="url(#clip0_2178_71)">
<path d="M65.662 43.5342V14.5387H69.9853L70.397 16.8792H70.6029C71.8381 15.2762 73.9372 14.1279 76.8599 14.1279C82.2089 14.1279 86.4918 18.4824 86.4918 24.9278C86.4918 31.3732 82.2126 35.7277 76.8599 35.7277C73.9777 35.7277 71.9632 34.5354 70.8934 33.1819H70.6875V43.5306H65.6657L65.662 43.5342ZM81.4663 24.9315C81.4663 21.153 79.0363 18.7722 76.0732 18.7722C73.1101 18.7722 70.6804 21.153 70.6804 24.9315C70.6804 28.71 73.1104 31.0908 76.0734 31.0908C79.0365 31.0908 81.4663 28.71 81.4663 24.9315Z" fill="white"/>
<path d="M89.0399 24.9317C89.0399 18.6477 93.5654 14.1318 99.6167 14.1318C105.668 14.1318 110.193 18.6477 110.193 24.9317C110.193 31.2158 105.668 35.7316 99.6167 35.7316C93.5654 35.7316 89.0399 31.1717 89.0399 24.9317ZM105.131 24.9317C105.131 21.2339 102.661 18.7724 99.6165 18.7724C96.5726 18.7724 94.0617 21.2376 94.0617 24.9317C94.0617 28.6258 96.5726 31.0504 99.6165 31.0504C102.661 31.0504 105.131 28.6295 105.131 24.9317Z" fill="white"/>
<path d="M113.832 35.3209V6.57129H118.854V35.3209H113.832Z" fill="white"/>
<path d="M137.496 14.5391H142.845L133.79 39.7963C132.886 42.3018 131.651 43.5344 128.397 43.5344H123.541V38.8938H127.658C128.401 38.8938 128.809 38.5233 129.059 37.9073L129.552 36.5536L121.074 14.5391H126.423L131.816 28.956H132.64L137.496 14.5391Z" fill="white"/>
<path d="M143.805 36.3486H148.908C149.114 37.7023 150.47 39.5512 153.683 39.5512C156.687 39.5512 158.665 37.6619 158.665 34.7859V31.8695H158.459C157.349 33.0618 155.29 34.1289 152.654 34.1289C147.305 34.1289 143.187 30.0203 143.187 24.1067C143.187 18.1932 147.305 14.1289 152.654 14.1289C155.411 14.1289 157.43 15.2367 158.705 16.7995H158.911L159.323 14.5401H163.687V34.7859C163.687 40.2886 159.981 43.946 153.684 43.946C146.648 43.946 143.931 39.3457 143.806 36.3486H143.805ZM158.665 24.1107C158.665 20.8678 156.36 18.608 153.437 18.608C150.515 18.608 148.25 20.8674 148.25 24.1107C148.25 27.3541 150.555 29.6538 153.437 29.6538C156.32 29.6538 158.665 27.394 158.665 24.1107Z" fill="white"/>
<path d="M167.175 24.9317C167.175 18.6477 171.7 14.1318 177.751 14.1318C183.803 14.1318 188.328 18.6477 188.328 24.9317C188.328 31.2158 183.803 35.7316 177.751 35.7316C171.7 35.7316 167.175 31.1717 167.175 24.9317ZM183.266 24.9317C183.266 21.2339 180.795 18.7724 177.751 18.7724C174.707 18.7724 172.196 21.2376 172.196 24.9317C172.196 28.6258 174.707 31.0504 177.751 31.0504C180.795 31.0504 183.266 28.6295 183.266 24.9317H183.266Z" fill="white"/>
<path d="M191.825 35.3215V14.5397H196.144L196.556 16.5097H196.762C197.585 15.5669 199.644 14.1289 202.769 14.1289C207.544 14.1289 211 17.5772 211 22.8342V35.3178H205.978V23.4908C205.978 20.8202 204.085 18.8905 201.493 18.8905C198.902 18.8905 196.843 20.9045 196.843 23.4908V35.3178H191.821L191.825 35.3215Z" fill="white"/>
<path d="M38.6418 32.8955L50.9863 25.7824C51.3078 25.5964 51.5748 25.3294 51.7606 25.0082C51.9464 24.687 52.0444 24.3227 52.045 23.9518V9.72573C52.0444 9.35484 51.9464 8.99058 51.7606 8.66935C51.5748 8.34812 51.3078 8.08116 50.9863 7.89513L38.6418 0.782019C38.3196 0.597241 37.9546 0.5 37.583 0.5C37.2114 0.5 36.8463 0.597241 36.5242 0.782019L24.1789 7.89513C23.8573 8.08116 23.5903 8.34812 23.4045 8.66935C23.2187 8.99058 23.1207 9.35484 23.1201 9.72573V35.1481L14.4625 40.1335L5.80488 35.1481V25.1735L14.4625 20.1881L20.1718 23.4787V16.7874L15.5218 14.1058C15.1997 13.9207 14.8346 13.8233 14.463 13.8233C14.0913 13.8233 13.7262 13.9207 13.4042 14.1058L1.05874 21.2189C0.73719 21.4049 0.470188 21.6719 0.284402 21.9931C0.0986162 22.3143 0.000550064 22.6786 0 23.0495V37.2757C0.000605826 37.6465 0.0986984 38.0107 0.284482 38.3319C0.470265 38.6531 0.737237 38.92 1.05874 39.106L13.4037 46.2191C13.7261 46.403 14.0911 46.4997 14.4624 46.4997C14.8338 46.4997 15.1988 46.403 15.5212 46.2191L27.8661 39.106C28.1877 38.92 28.4547 38.653 28.6405 38.3318C28.8263 38.0105 28.9243 37.6463 28.9249 37.2754V11.8498L29.0793 11.7618L37.5788 6.86432L46.2364 11.8497V21.8242L37.5788 26.8096L31.8769 23.5264V30.2171L36.52 32.8914C36.8425 33.0753 37.2074 33.1721 37.5788 33.1721C37.9502 33.1721 38.3152 33.0753 38.6376 32.8914L38.6418 32.8955Z" fill="white"/>
</g>
<defs>
<clipPath id="clip0_2178_71">
<rect width="211" height="46" fill="white" transform="translate(0 0.5)"/>
</clipPath>
</defs>
</svg>
