<svg width="1302" height="410" viewBox="0 0 1302 410" fill="none" xmlns="http://www.w3.org/2000/svg">
<path d="M78.3147 319L75.3747 308.96L75.0747 307.86L74.7547 308.96L71.8147 319H69.6347L65.3147 305.4H67.2747L70.4947 316.04L70.7747 317.06L71.0347 316.04L74.1347 305.4H76.1147L79.1947 316.04L79.4547 317.06L79.7147 316.04L82.9147 305.4H84.7947L80.4747 319H78.3147ZM86.7508 319V304.6H88.5108V309.82C89.2308 308.7 90.3908 308.12 91.7908 308.12C94.0508 308.12 95.3908 309.44 95.3908 311.9V319H93.6308V312.26C93.6308 310.66 92.9108 309.62 91.3108 309.62C89.5508 309.62 88.5108 311.2 88.5108 312.72V319H86.7508ZM97.9961 306.96V304.6H99.7561V306.96H97.9961ZM97.9961 319V308.38H99.7561V319H97.9961ZM102.587 315.94V309.78H101.107V308.38H102.587V305.94H104.347V308.38H106.687V309.78H104.347V315.94C104.347 317.22 104.727 317.82 106.287 317.82H106.647V319.08C106.447 319.18 106.007 319.24 105.507 319.24C103.527 319.24 102.587 318.18 102.587 315.94ZM117.343 315.54C116.763 318.02 114.983 319.24 112.563 319.24C109.483 319.24 107.623 317.16 107.623 313.7C107.623 310.1 109.483 308.12 112.463 308.12C115.463 308.12 117.263 310.18 117.263 313.56V314H109.423C109.523 316.38 110.643 317.72 112.563 317.72C114.063 317.72 115.123 317 115.503 315.54H117.343ZM112.463 309.64C110.763 309.64 109.743 310.7 109.483 312.68H115.423C115.183 310.72 114.123 309.64 112.463 309.64ZM121.188 323.4H119.428V308.38H121.188V309.7C121.888 308.7 122.908 308.12 124.168 308.12C126.988 308.12 128.688 310.2 128.688 313.66C128.688 317.26 126.948 319.24 124.168 319.24C122.908 319.24 121.888 318.72 121.188 317.74V323.4ZM124.048 309.64C122.188 309.64 121.188 311.06 121.188 313.66C121.188 316.24 122.228 317.72 124.048 317.72C125.888 317.72 126.888 316.28 126.888 313.66C126.888 311.1 125.848 309.64 124.048 309.64ZM132.371 311.84H130.611C130.951 309.5 132.491 308.12 135.091 308.12C137.931 308.12 139.311 309.78 139.311 312.26V316.44C139.311 317.66 139.411 318.42 139.691 319H137.831C137.631 318.58 137.571 317.96 137.551 317.32C136.651 318.66 135.211 319.24 133.931 319.24C131.731 319.24 130.251 318.22 130.251 316.2C130.251 314.74 131.051 313.68 132.611 313.16C134.051 312.68 135.511 312.56 137.551 312.54V312.3C137.551 310.58 136.751 309.64 134.931 309.64C133.411 309.64 132.591 310.48 132.371 311.84ZM132.051 316.16C132.051 317.14 132.871 317.72 134.111 317.72C136.071 317.72 137.551 316.18 137.551 314.36V313.86C133.031 313.9 132.051 314.86 132.051 316.16ZM143.776 323.4H142.016V308.38H143.776V309.7C144.476 308.7 145.496 308.12 146.756 308.12C149.576 308.12 151.276 310.2 151.276 313.66C151.276 317.26 149.536 319.24 146.756 319.24C145.496 319.24 144.476 318.72 143.776 317.74V323.4ZM146.636 309.64C144.776 309.64 143.776 311.06 143.776 313.66C143.776 316.24 144.816 317.72 146.636 317.72C148.476 317.72 149.476 316.28 149.476 313.66C149.476 311.1 148.436 309.64 146.636 309.64ZM162.519 315.54C161.939 318.02 160.159 319.24 157.739 319.24C154.659 319.24 152.799 317.16 152.799 313.7C152.799 310.1 154.659 308.12 157.639 308.12C160.639 308.12 162.439 310.18 162.439 313.56V314H154.599C154.699 316.38 155.819 317.72 157.739 317.72C159.239 317.72 160.299 317 160.679 315.54H162.519ZM157.639 309.64C155.939 309.64 154.919 310.7 154.659 312.68H160.599C160.359 310.72 159.299 309.64 157.639 309.64ZM164.584 319V308.38H166.344V310.02C167.064 308.72 168.204 308.12 169.484 308.12C169.904 308.12 170.284 308.22 170.484 308.38V309.96C170.184 309.86 169.804 309.82 169.384 309.82C167.264 309.82 166.344 311.14 166.344 313.06V319H164.584ZM83.1268 347V333.4H88.0268C90.8868 333.4 92.7068 334.88 92.7068 337.24C92.7068 338.8 91.9468 339.9 90.6668 340.48C91.5468 340.88 92.0068 341.62 92.3468 342.96L93.3668 347H91.4268L90.5668 343.32C90.1668 341.62 89.4868 341.3 87.8468 341.3H84.9668V347H83.1268ZM87.9868 334.9H84.9668V339.8H87.9468C89.7468 339.8 90.8068 338.84 90.8068 337.34C90.8068 335.84 89.7468 334.9 87.9868 334.9ZM104.388 343.54C103.808 346.02 102.028 347.24 99.6082 347.24C96.5282 347.24 94.6682 345.16 94.6682 341.7C94.6682 338.1 96.5282 336.12 99.5082 336.12C102.508 336.12 104.308 338.18 104.308 341.56V342H96.4682C96.5682 344.38 97.6882 345.72 99.6082 345.72C101.108 345.72 102.168 345 102.548 343.54H104.388ZM99.5082 337.64C97.8082 337.64 96.7882 338.7 96.5282 340.68H102.468C102.228 338.72 101.168 337.64 99.5082 337.64ZM106.454 347V332.6H108.214V347H106.454ZM119.984 343.54C119.404 346.02 117.624 347.24 115.204 347.24C112.124 347.24 110.264 345.16 110.264 341.7C110.264 338.1 112.124 336.12 115.104 336.12C118.104 336.12 119.904 338.18 119.904 341.56V342H112.064C112.164 344.38 113.284 345.72 115.204 345.72C116.704 345.72 117.764 345 118.144 343.54H119.984ZM115.104 337.64C113.404 337.64 112.384 338.7 112.124 340.68H118.064C117.824 338.72 116.764 337.64 115.104 337.64ZM123.67 339.84H121.91C122.25 337.5 123.79 336.12 126.39 336.12C129.23 336.12 130.61 337.78 130.61 340.26V344.44C130.61 345.66 130.71 346.42 130.99 347H129.13C128.93 346.58 128.87 345.96 128.85 345.32C127.95 346.66 126.51 347.24 125.23 347.24C123.03 347.24 121.55 346.22 121.55 344.2C121.55 342.74 122.35 341.68 123.91 341.16C125.35 340.68 126.81 340.56 128.85 340.54V340.3C128.85 338.58 128.05 337.64 126.23 337.64C124.71 337.64 123.89 338.48 123.67 339.84ZM123.35 344.16C123.35 345.14 124.17 345.72 125.41 345.72C127.37 345.72 128.85 344.18 128.85 342.36V341.86C124.33 341.9 123.35 342.86 123.35 344.16ZM134.595 339.1C134.595 342.06 141.495 339.62 141.495 344C141.495 345.98 139.735 347.24 137.235 347.24C134.715 347.24 132.955 346.04 132.555 343.54H134.315C134.555 345.02 135.655 345.84 137.295 345.84C138.895 345.84 139.735 345.12 139.735 344.12C139.735 341.22 132.915 343.62 132.915 339.22C132.915 337.6 134.175 336.12 136.775 336.12C139.075 336.12 140.775 337.2 141.115 339.84H139.355C139.095 338.18 138.175 337.56 136.675 337.56C135.355 337.56 134.595 338.22 134.595 339.1ZM152.568 343.54C151.988 346.02 150.208 347.24 147.788 347.24C144.708 347.24 142.848 345.16 142.848 341.7C142.848 338.1 144.708 336.12 147.688 336.12C150.688 336.12 152.488 338.18 152.488 341.56V342H144.648C144.748 344.38 145.868 345.72 147.788 345.72C149.288 345.72 150.348 345 150.728 343.54H152.568ZM147.688 337.64C145.988 337.64 144.968 338.7 144.708 340.68H150.648C150.408 338.72 149.348 337.64 147.688 337.64Z" fill="white"/>
<path d="M319.888 319V305.4H324.548C327.628 305.4 329.568 307.04 329.568 309.7C329.568 312.44 327.608 314.04 324.568 314.04H321.728V319H319.888ZM324.528 306.9H321.728V312.54H324.468C326.488 312.54 327.668 311.46 327.668 309.72C327.668 308 326.468 306.9 324.528 306.9ZM331.559 319V304.6H333.319V319H331.559ZM337.53 311.84H335.77C336.11 309.5 337.65 308.12 340.25 308.12C343.09 308.12 344.47 309.78 344.47 312.26V316.44C344.47 317.66 344.57 318.42 344.85 319H342.99C342.79 318.58 342.73 317.96 342.71 317.32C341.81 318.66 340.37 319.24 339.09 319.24C336.89 319.24 335.41 318.22 335.41 316.2C335.41 314.74 336.21 313.68 337.77 313.16C339.21 312.68 340.67 312.56 342.71 312.54V312.3C342.71 310.58 341.91 309.64 340.09 309.64C338.57 309.64 337.75 310.48 337.53 311.84ZM337.21 316.16C337.21 317.14 338.03 317.72 339.27 317.72C341.23 317.72 342.71 316.18 342.71 314.36V313.86C338.19 313.9 337.21 314.86 337.21 316.16ZM347.395 315.94V309.78H345.915V308.38H347.395V305.94H349.155V308.38H351.495V309.78H349.155V315.94C349.155 317.22 349.535 317.82 351.095 317.82H351.455V319.08C351.255 319.18 350.815 319.24 350.315 319.24C348.335 319.24 347.395 318.18 347.395 315.94ZM351.671 309.78V308.38H353.151V307.66C353.151 305.42 354.071 304.36 356.031 304.36C356.471 304.36 356.831 304.44 357.011 304.52V305.78H356.831C355.291 305.78 354.911 306.38 354.911 307.66V308.38H357.011V309.78H354.911V319H353.151V309.78H351.671ZM362.54 319.24C359.5 319.24 357.68 317.16 357.68 313.7C357.68 310.1 359.56 308.12 362.54 308.12C365.58 308.12 367.4 310.24 367.4 313.7C367.4 317.28 365.52 319.24 362.54 319.24ZM362.54 317.72C364.52 317.72 365.6 316.3 365.6 313.7C365.6 311.12 364.5 309.64 362.54 309.64C360.56 309.64 359.48 311.08 359.48 313.7C359.48 316.26 360.58 317.72 362.54 317.72ZM369.466 319V308.38H371.226V310.02C371.946 308.72 373.086 308.12 374.366 308.12C374.786 308.12 375.166 308.22 375.366 308.38V309.96C375.066 309.86 374.686 309.82 374.266 309.82C372.146 309.82 371.226 311.14 371.226 313.06V319H369.466ZM376.727 319V308.38H378.487V309.74C379.167 308.66 380.227 308.12 381.527 308.12C382.987 308.12 384.047 308.76 384.547 310C385.247 308.76 386.407 308.12 387.827 308.12C389.987 308.12 391.287 309.44 391.287 311.9V319H389.527V312.26C389.527 310.66 388.887 309.62 387.447 309.62C385.847 309.62 384.887 311.2 384.887 312.72V319H383.127V312.26C383.127 310.66 382.487 309.62 381.047 309.62C379.447 309.62 378.487 311.2 378.487 312.72V319H376.727ZM397.854 319V305.4H399.694V317.5H406.534V319H397.854ZM409.993 311.84H408.233C408.573 309.5 410.113 308.12 412.713 308.12C415.553 308.12 416.933 309.78 416.933 312.26V316.44C416.933 317.66 417.033 318.42 417.313 319H415.453C415.253 318.58 415.193 317.96 415.173 317.32C414.273 318.66 412.833 319.24 411.553 319.24C409.353 319.24 407.873 318.22 407.873 316.2C407.873 314.74 408.673 313.68 410.233 313.16C411.673 312.68 413.133 312.56 415.173 312.54V312.3C415.173 310.58 414.373 309.64 412.553 309.64C411.033 309.64 410.213 310.48 409.993 311.84ZM409.673 316.16C409.673 317.14 410.493 317.72 411.733 317.72C413.693 317.72 415.173 316.18 415.173 314.36V313.86C410.653 313.9 409.673 314.86 409.673 316.16ZM426.378 314.66V308.38H428.138V319H426.378V317.56C425.658 318.68 424.538 319.24 423.158 319.24C420.938 319.24 419.618 317.94 419.618 315.48V308.38H421.378V315.12C421.378 316.72 422.078 317.74 423.638 317.74C425.358 317.74 426.378 316.18 426.378 314.66ZM430.746 319V308.38H432.506V309.82C433.226 308.7 434.386 308.12 435.786 308.12C438.046 308.12 439.386 309.44 439.386 311.9V319H437.626V312.26C437.626 310.66 436.906 309.62 435.306 309.62C433.546 309.62 432.506 311.2 432.506 312.72V319H430.746ZM450.771 312.04H449.011C448.731 310.42 447.651 309.64 446.251 309.64C444.291 309.64 443.251 311.08 443.251 313.7C443.251 316.28 444.351 317.74 446.311 317.74C447.731 317.74 448.751 316.98 449.091 315.46H450.851C450.371 318.1 448.591 319.24 446.271 319.24C443.251 319.24 441.451 317.14 441.451 313.7C441.451 310.1 443.291 308.12 446.251 308.12C448.591 308.12 450.431 309.44 450.771 312.04ZM452.827 319V304.6H454.587V309.82C455.307 308.7 456.467 308.12 457.867 308.12C460.127 308.12 461.467 309.44 461.467 311.9V319H459.707V312.26C459.707 310.66 458.987 309.62 457.387 309.62C455.627 309.62 454.587 311.2 454.587 312.72V319H452.827ZM354.339 341.34V339.94H357.539V336.76H358.939V339.94H362.119V341.34H358.939V344.54H357.539V341.34H354.339ZM378.247 343.42C378.247 345.6 376.607 347.24 373.427 347.24C370.567 347.24 368.787 345.76 368.427 343.3H370.227C370.467 344.78 371.467 345.72 373.407 345.72C375.407 345.72 376.447 344.84 376.447 343.34C376.447 342.24 375.867 341.06 372.847 341.06H372.327V339.66H372.747C375.607 339.66 376.067 338.48 376.067 337.58C376.067 336.22 375.167 335.42 373.447 335.42C371.647 335.42 370.727 336.32 370.487 337.8H368.707C369.047 335.38 370.707 333.9 373.467 333.9C376.367 333.9 377.867 335.46 377.867 337.56C377.867 338.76 377.347 339.7 376.007 340.26C377.667 340.88 378.247 342.04 378.247 343.42ZM393.429 347L392.149 343.74H385.629L384.349 347H382.529L387.869 333.4H389.989L395.349 347H393.429ZM388.489 336.38L386.189 342.26H391.589L389.289 336.38L388.889 335.18L388.489 336.38ZM398.722 351.4H396.962V336.38H398.722V337.7C399.422 336.7 400.442 336.12 401.702 336.12C404.522 336.12 406.222 338.2 406.222 341.66C406.222 345.26 404.482 347.24 401.702 347.24C400.442 347.24 399.422 346.72 398.722 345.74V351.4ZM401.582 337.64C399.722 337.64 398.722 339.06 398.722 341.66C398.722 344.24 399.762 345.72 401.582 345.72C403.422 345.72 404.422 344.28 404.422 341.66C404.422 339.1 403.382 337.64 401.582 337.64ZM410.065 351.4H408.305V336.38H410.065V337.7C410.765 336.7 411.785 336.12 413.045 336.12C415.865 336.12 417.565 338.2 417.565 341.66C417.565 345.26 415.825 347.24 413.045 347.24C411.785 347.24 410.765 346.72 410.065 345.74V351.4ZM412.925 337.64C411.065 337.64 410.065 339.06 410.065 341.66C410.065 344.24 411.105 345.72 412.925 345.72C414.765 345.72 415.765 344.28 415.765 341.66C415.765 339.1 414.725 337.64 412.925 337.64ZM420.928 339.1C420.928 342.06 427.828 339.62 427.828 344C427.828 345.98 426.068 347.24 423.568 347.24C421.048 347.24 419.288 346.04 418.888 343.54H420.648C420.888 345.02 421.988 345.84 423.628 345.84C425.228 345.84 426.068 345.12 426.068 344.12C426.068 341.22 419.248 343.62 419.248 339.22C419.248 337.6 420.508 336.12 423.108 336.12C425.408 336.12 427.108 337.2 427.448 339.84H425.688C425.428 338.18 424.508 337.56 423.008 337.56C421.688 337.56 420.928 338.22 420.928 339.1Z" fill="white"/>
<path opacity="0.6" d="M601.1 321.14V319.16C598.96 318.82 597.54 317.56 597.2 315.32H598.98C599.2 316.88 600.48 317.72 602.3 317.72C604.1 317.72 605.06 316.82 605.06 315.56C605.06 311.98 597.54 314.5 597.54 309.44C597.54 307.78 598.76 306.22 601.1 305.94V304H602.9V305.98C604.8 306.3 606.22 307.48 606.48 309.74H604.7C604.46 308.12 603.38 307.42 601.76 307.42C600.18 307.42 599.34 308.26 599.34 309.5C599.34 312.76 606.86 310.42 606.86 315.4C606.86 317.66 605.2 319.02 602.9 319.22V321.14H601.1ZM618.903 319L617.623 315.74H611.103L609.823 319H608.003L613.343 305.4H615.463L620.823 319H618.903ZM613.963 308.38L611.663 314.26H617.063L614.763 308.38L614.363 307.18L613.963 308.38ZM622.416 319V304.6H624.176V319H622.416ZM626.767 319V308.38H628.527V309.74C629.207 308.66 630.267 308.12 631.567 308.12C633.027 308.12 634.087 308.76 634.587 310C635.287 308.76 636.447 308.12 637.867 308.12C640.027 308.12 641.327 309.44 641.327 311.9V319H639.567V312.26C639.567 310.66 638.927 309.62 637.487 309.62C635.887 309.62 634.927 311.2 634.927 312.72V319H633.167V312.26C633.167 310.66 632.527 309.62 631.087 309.62C629.487 309.62 628.527 311.2 628.527 312.72V319H626.767ZM653.11 315.54C652.53 318.02 650.75 319.24 648.33 319.24C645.25 319.24 643.39 317.16 643.39 313.7C643.39 310.1 645.25 308.12 648.23 308.12C651.23 308.12 653.03 310.18 653.03 313.56V314H645.19C645.29 316.38 646.41 317.72 648.33 317.72C649.83 317.72 650.89 317 651.27 315.54H653.11ZM648.23 309.64C646.53 309.64 645.51 310.7 645.25 312.68H651.19C650.95 310.72 649.89 309.64 648.23 309.64ZM662.469 319V306.96H657.809V305.4H668.969V306.96H664.309V319H662.469ZM673.315 319.24C670.275 319.24 668.455 317.16 668.455 313.7C668.455 310.1 670.335 308.12 673.315 308.12C676.355 308.12 678.175 310.24 678.175 313.7C678.175 317.28 676.295 319.24 673.315 319.24ZM673.315 317.72C675.295 317.72 676.375 316.3 676.375 313.7C676.375 311.12 675.275 309.64 673.315 309.64C671.335 309.64 670.255 311.08 670.255 313.7C670.255 316.26 671.355 317.72 673.315 317.72ZM680.24 319V304.6H682V312.94L686.58 308.38H688.74L683.9 313.12L689.02 319H686.78L682 313.58V319H680.24ZM698.81 315.54C698.23 318.02 696.45 319.24 694.03 319.24C690.95 319.24 689.09 317.16 689.09 313.7C689.09 310.1 690.95 308.12 693.93 308.12C696.93 308.12 698.73 310.18 698.73 313.56V314H690.89C690.99 316.38 692.11 317.72 694.03 317.72C695.53 317.72 696.59 317 696.97 315.54H698.81ZM693.93 309.64C692.23 309.64 691.21 310.7 690.95 312.68H696.89C696.65 310.72 695.59 309.64 693.93 309.64ZM700.875 319V308.38H702.635V309.82C703.355 308.7 704.515 308.12 705.915 308.12C708.175 308.12 709.515 309.44 709.515 311.9V319H707.755V312.26C707.755 310.66 707.035 309.62 705.435 309.62C703.675 309.62 702.635 311.2 702.635 312.72V319H700.875ZM621.871 347V333.4H623.711V345.5H630.551V347H621.871ZM634.01 339.84H632.25C632.59 337.5 634.13 336.12 636.73 336.12C639.57 336.12 640.95 337.78 640.95 340.26V344.44C640.95 345.66 641.05 346.42 641.33 347H639.47C639.27 346.58 639.21 345.96 639.19 345.32C638.29 346.66 636.85 347.24 635.57 347.24C633.37 347.24 631.89 346.22 631.89 344.2C631.89 342.74 632.69 341.68 634.25 341.16C635.69 340.68 637.15 340.56 639.19 340.54V340.3C639.19 338.58 638.39 337.64 636.57 337.64C635.05 337.64 634.23 338.48 634.01 339.84ZM633.69 344.16C633.69 345.14 634.51 345.72 635.75 345.72C637.71 345.72 639.19 344.18 639.19 342.36V341.86C634.67 341.9 633.69 342.86 633.69 344.16ZM650.395 342.66V336.38H652.155V347H650.395V345.56C649.675 346.68 648.555 347.24 647.175 347.24C644.955 347.24 643.635 345.94 643.635 343.48V336.38H645.395V343.12C645.395 344.72 646.095 345.74 647.655 345.74C649.375 345.74 650.395 344.18 650.395 342.66ZM654.763 347V336.38H656.523V337.82C657.243 336.7 658.403 336.12 659.803 336.12C662.063 336.12 663.403 337.44 663.403 339.9V347H661.643V340.26C661.643 338.66 660.923 337.62 659.323 337.62C657.563 337.62 656.523 339.2 656.523 340.72V347H654.763ZM674.789 340.04H673.029C672.749 338.42 671.669 337.64 670.269 337.64C668.309 337.64 667.269 339.08 667.269 341.7C667.269 344.28 668.369 345.74 670.329 345.74C671.749 345.74 672.769 344.98 673.109 343.46H674.869C674.389 346.1 672.609 347.24 670.289 347.24C667.269 347.24 665.469 345.14 665.469 341.7C665.469 338.1 667.309 336.12 670.269 336.12C672.609 336.12 674.449 337.44 674.789 340.04ZM676.844 347V332.6H678.604V337.82C679.324 336.7 680.484 336.12 681.884 336.12C684.144 336.12 685.484 337.44 685.484 339.9V347H683.724V340.26C683.724 338.66 683.004 337.62 681.404 337.62C679.644 337.62 678.604 339.2 678.604 340.72V347H676.844ZM590.769 378.62C588.809 375.56 587.789 372.58 587.789 369.6C587.789 366.62 588.809 363.66 590.769 360.6H592.509C590.629 363.74 589.669 366.66 589.669 369.6C589.669 372.56 590.629 375.48 592.509 378.62H590.769ZM605.475 375H604.095L603.955 372.86C603.115 374.48 601.615 375.24 599.815 375.24C596.135 375.24 593.795 372.58 593.795 368.22C593.795 363.88 596.135 361.16 599.975 361.16C602.595 361.16 604.835 362.6 605.495 365.32H603.575C603.075 363.66 601.655 362.74 599.915 362.74C597.255 362.74 595.675 364.82 595.675 368.22C595.675 371.62 597.275 373.66 599.975 373.66C601.995 373.66 603.595 372.42 603.715 369.5H600.235V368.04H605.475V375ZM612.278 375.24C609.238 375.24 607.418 373.16 607.418 369.7C607.418 366.1 609.298 364.12 612.278 364.12C615.318 364.12 617.138 366.24 617.138 369.7C617.138 373.28 615.258 375.24 612.278 375.24ZM612.278 373.72C614.258 373.72 615.338 372.3 615.338 369.7C615.338 367.12 614.238 365.64 612.278 365.64C610.298 365.64 609.218 367.08 609.218 369.7C609.218 372.26 610.318 373.72 612.278 373.72ZM621.668 375L617.708 364.38H619.608L622.548 372.62L622.808 373.54L623.068 372.62L626.008 364.38H627.788L623.828 375H621.668ZM638.262 371.54C637.682 374.02 635.902 375.24 633.482 375.24C630.402 375.24 628.542 373.16 628.542 369.7C628.542 366.1 630.402 364.12 633.382 364.12C636.382 364.12 638.182 366.18 638.182 369.56V370H630.342C630.442 372.38 631.562 373.72 633.482 373.72C634.982 373.72 636.042 373 636.422 371.54H638.262ZM633.382 365.64C631.682 365.64 630.662 366.7 630.402 368.68H636.342C636.102 366.72 635.042 365.64 633.382 365.64ZM640.327 375V364.38H642.087V366.02C642.807 364.72 643.947 364.12 645.227 364.12C645.647 364.12 646.027 364.22 646.227 364.38V365.96C645.927 365.86 645.547 365.82 645.127 365.82C643.007 365.82 642.087 367.14 642.087 369.06V375H640.327ZM647.588 375V364.38H649.348V365.82C650.068 364.7 651.228 364.12 652.628 364.12C654.888 364.12 656.228 365.44 656.228 367.9V375H654.468V368.26C654.468 366.66 653.748 365.62 652.148 365.62C650.388 365.62 649.348 367.2 649.348 368.72V375H647.588ZM660.453 367.84H658.693C659.033 365.5 660.573 364.12 663.173 364.12C666.013 364.12 667.393 365.78 667.393 368.26V372.44C667.393 373.66 667.493 374.42 667.773 375H665.913C665.713 374.58 665.653 373.96 665.633 373.32C664.733 374.66 663.293 375.24 662.013 375.24C659.813 375.24 658.333 374.22 658.333 372.2C658.333 370.74 659.133 369.68 660.693 369.16C662.133 368.68 663.593 368.56 665.633 368.54V368.3C665.633 366.58 664.833 365.64 663.013 365.64C661.493 365.64 660.673 366.48 660.453 367.84ZM660.133 372.16C660.133 373.14 660.953 373.72 662.193 373.72C664.153 373.72 665.633 372.18 665.633 370.36V369.86C661.113 369.9 660.133 370.86 660.133 372.16ZM670.079 375V364.38H671.839V365.82C672.559 364.7 673.719 364.12 675.119 364.12C677.379 364.12 678.719 365.44 678.719 367.9V375H676.959V368.26C676.959 366.66 676.239 365.62 674.639 365.62C672.879 365.62 671.839 367.2 671.839 368.72V375H670.079ZM690.104 368.04H688.344C688.064 366.42 686.984 365.64 685.584 365.64C683.624 365.64 682.584 367.08 682.584 369.7C682.584 372.28 683.684 373.74 685.644 373.74C687.064 373.74 688.084 372.98 688.424 371.46H690.184C689.704 374.1 687.924 375.24 685.604 375.24C682.584 375.24 680.784 373.14 680.784 369.7C680.784 366.1 682.624 364.12 685.584 364.12C687.924 364.12 689.764 365.44 690.104 368.04ZM701.339 371.54C700.759 374.02 698.979 375.24 696.559 375.24C693.479 375.24 691.619 373.16 691.619 369.7C691.619 366.1 693.479 364.12 696.459 364.12C699.459 364.12 701.259 366.18 701.259 369.56V370H693.419C693.519 372.38 694.639 373.72 696.559 373.72C698.059 373.72 699.119 373 699.499 371.54H701.339ZM696.459 365.64C694.759 365.64 693.739 366.7 693.479 368.68H699.419C699.179 366.72 698.119 365.64 696.459 365.64ZM715.548 364.18C715.548 366.14 714.128 366.88 712.588 367.52L712.608 367.54L716.148 370.96C716.508 370.12 716.708 369.08 716.708 367.9H718.528C718.528 369.44 718.148 370.96 717.428 372.18L720.328 375H717.908L716.368 373.54C715.288 374.58 713.788 375.24 711.888 375.24C708.868 375.24 707.048 373.46 707.048 371.2C707.048 369.02 708.388 368 709.888 367.26C708.868 366.14 708.488 365.34 708.488 364.24C708.488 362.4 709.988 361.16 712.128 361.16C714.388 361.16 715.548 362.62 715.548 364.18ZM710.248 364.24C710.248 365.06 710.668 365.64 711.568 366.52C712.788 365.98 713.808 365.42 713.808 364.28C713.808 363.48 713.168 362.68 712.108 362.68C710.988 362.68 710.248 363.4 710.248 364.24ZM708.848 371.18C708.848 372.66 709.968 373.72 711.988 373.72C713.288 373.72 714.388 373.26 715.208 372.42L711.468 368.86C711.248 368.66 711.048 368.46 710.868 368.28C709.728 368.86 708.848 369.64 708.848 371.18ZM623.29 392.72C623.29 396.56 631.63 393.58 631.63 399.16C631.63 401.78 629.51 403.24 626.61 403.24C623.69 403.24 621.69 401.9 621.09 399.16H623.01C623.45 400.78 624.67 401.66 626.63 401.66C628.67 401.66 629.75 400.76 629.75 399.4C629.75 395.24 621.41 398.34 621.41 392.84C621.41 390.88 623.05 389.16 626.05 389.16C628.67 389.16 630.77 390.42 631.27 393.32H629.33C628.91 391.52 627.75 390.74 626.01 390.74C624.29 390.74 623.29 391.52 623.29 392.72ZM633.821 399.94V393.78H632.341V392.38H633.821V389.94H635.581V392.38H637.921V393.78H635.581V399.94C635.581 401.22 635.961 401.82 637.521 401.82H637.881V403.08C637.681 403.18 637.241 403.24 636.741 403.24C634.761 403.24 633.821 402.18 633.821 399.94ZM641.017 395.84H639.257C639.597 393.5 641.137 392.12 643.737 392.12C646.577 392.12 647.957 393.78 647.957 396.26V400.44C647.957 401.66 648.057 402.42 648.337 403H646.477C646.277 402.58 646.217 401.96 646.197 401.32C645.297 402.66 643.857 403.24 642.577 403.24C640.377 403.24 638.897 402.22 638.897 400.2C638.897 398.74 639.697 397.68 641.257 397.16C642.697 396.68 644.157 396.56 646.197 396.54V396.3C646.197 394.58 645.397 393.64 643.577 393.64C642.057 393.64 641.237 394.48 641.017 395.84ZM640.697 400.16C640.697 401.14 641.517 401.72 642.757 401.72C644.717 401.72 646.197 400.18 646.197 398.36V397.86C641.677 397.9 640.697 398.86 640.697 400.16ZM650.642 403V388.6H652.402V396.94L656.982 392.38H659.142L654.302 397.12L659.422 403H657.182L652.402 397.58V403H650.642ZM660.93 390.96V388.6H662.69V390.96H660.93ZM660.93 403V392.38H662.69V403H660.93ZM665.281 403V392.38H667.041V393.82C667.761 392.7 668.921 392.12 670.321 392.12C672.581 392.12 673.921 393.44 673.921 395.9V403H672.161V396.26C672.161 394.66 671.441 393.62 669.841 393.62C668.081 393.62 667.041 395.2 667.041 396.72V403H665.281ZM680.307 403.08C677.607 403.08 675.987 401.02 675.987 397.62C675.987 394.06 677.647 392.12 680.307 392.12C681.727 392.12 682.787 392.62 683.487 393.54V392.38H685.247V403.32C685.247 406.28 683.347 407.66 680.907 407.66C678.407 407.66 676.647 406.46 676.267 404.04H678.027C678.247 405.44 679.347 406.2 680.887 406.2C682.447 406.2 683.487 405.36 683.487 403.38V401.56C682.747 402.56 681.667 403.08 680.307 403.08ZM680.627 401.56C682.487 401.56 683.487 400.16 683.487 397.6C683.487 395.1 682.447 393.64 680.627 393.64C678.787 393.64 677.787 395.04 677.787 397.62C677.787 400.12 678.807 401.56 680.627 401.56Z" fill="white"/>
<path opacity="0.6" d="M867.815 319V305.4H877.035V306.9H869.655V311.2H876.295V312.7H869.655V317.5H877.035V319H867.815ZM885.876 319L883.336 315.46L882.816 314.64L882.296 315.46L879.816 319H877.816L881.856 313.48L878.136 308.38H880.336L882.536 311.5L883.076 312.36L883.596 311.5L885.756 308.38H887.756L884.036 313.48L888.076 319H885.876ZM891.164 323.4H889.404V308.38H891.164V309.7C891.864 308.7 892.884 308.12 894.144 308.12C896.964 308.12 898.664 310.2 898.664 313.66C898.664 317.26 896.924 319.24 894.144 319.24C892.884 319.24 891.864 318.72 891.164 317.74V323.4ZM894.024 309.64C892.164 309.64 891.164 311.06 891.164 313.66C891.164 316.24 892.204 317.72 894.024 317.72C895.864 317.72 896.864 316.28 896.864 313.66C896.864 311.1 895.824 309.64 894.024 309.64ZM902.347 311.84H900.587C900.927 309.5 902.467 308.12 905.067 308.12C907.907 308.12 909.287 309.78 909.287 312.26V316.44C909.287 317.66 909.387 318.42 909.667 319H907.807C907.607 318.58 907.547 317.96 907.527 317.32C906.627 318.66 905.187 319.24 903.907 319.24C901.707 319.24 900.227 318.22 900.227 316.2C900.227 314.74 901.027 313.68 902.587 313.16C904.027 312.68 905.487 312.56 907.527 312.54V312.3C907.527 310.58 906.727 309.64 904.907 309.64C903.387 309.64 902.567 310.48 902.347 311.84ZM902.027 316.16C902.027 317.14 902.847 317.72 904.087 317.72C906.047 317.72 907.527 316.18 907.527 314.36V313.86C903.007 313.9 902.027 314.86 902.027 316.16ZM911.973 319V308.38H913.733V309.82C914.453 308.7 915.613 308.12 917.013 308.12C919.273 308.12 920.613 309.44 920.613 311.9V319H918.853V312.26C918.853 310.66 918.133 309.62 916.533 309.62C914.773 309.62 913.733 311.2 913.733 312.72V319H911.973ZM924.518 311.1C924.518 314.06 931.418 311.62 931.418 316C931.418 317.98 929.658 319.24 927.158 319.24C924.638 319.24 922.878 318.04 922.478 315.54H924.238C924.478 317.02 925.578 317.84 927.218 317.84C928.818 317.84 929.658 317.12 929.658 316.12C929.658 313.22 922.838 315.62 922.838 311.22C922.838 309.6 924.098 308.12 926.698 308.12C928.998 308.12 930.698 309.2 931.038 311.84H929.278C929.018 310.18 928.098 309.56 926.598 309.56C925.278 309.56 924.518 310.22 924.518 311.1ZM933.311 306.96V304.6H935.071V306.96H933.311ZM933.311 319V308.38H935.071V319H933.311ZM941.982 319.24C938.942 319.24 937.122 317.16 937.122 313.7C937.122 310.1 939.002 308.12 941.982 308.12C945.022 308.12 946.842 310.24 946.842 313.7C946.842 317.28 944.962 319.24 941.982 319.24ZM941.982 317.72C943.962 317.72 945.042 316.3 945.042 313.7C945.042 311.12 943.942 309.64 941.982 309.64C940.002 309.64 938.922 311.08 938.922 313.7C938.922 316.26 940.022 317.72 941.982 317.72ZM948.907 319V308.38H950.667V309.82C951.387 308.7 952.547 308.12 953.947 308.12C956.207 308.12 957.547 309.44 957.547 311.9V319H955.787V312.26C955.787 310.66 955.067 309.62 953.467 309.62C951.707 309.62 950.667 311.2 950.667 312.72V319H948.907ZM964.196 315.94V309.78H962.716V308.38H964.196V305.94H965.956V308.38H968.296V309.78H965.956V315.94C965.956 317.22 966.336 317.82 967.896 317.82H968.256V319.08C968.056 319.18 967.616 319.24 967.116 319.24C965.136 319.24 964.196 318.18 964.196 315.94ZM974.092 319.24C971.052 319.24 969.232 317.16 969.232 313.7C969.232 310.1 971.112 308.12 974.092 308.12C977.132 308.12 978.952 310.24 978.952 313.7C978.952 317.28 977.072 319.24 974.092 319.24ZM974.092 317.72C976.072 317.72 977.152 316.3 977.152 313.7C977.152 311.12 976.052 309.64 974.092 309.64C972.112 309.64 971.032 311.08 971.032 313.7C971.032 316.26 972.132 317.72 974.092 317.72ZM989.281 319.24C986.401 319.24 984.501 317.8 984.501 315.48C984.501 313.96 985.321 312.88 986.681 312.28C985.601 311.72 984.961 310.74 984.961 309.44C984.961 307.3 986.721 305.9 989.281 305.9C991.861 305.9 993.621 307.22 993.621 309.44C993.621 310.72 992.961 311.72 991.861 312.3C993.241 312.9 994.061 314.04 994.061 315.46C994.061 317.84 992.141 319.24 989.281 319.24ZM989.281 307.38C987.741 307.38 986.681 308.18 986.681 309.5C986.681 310.9 987.721 311.66 989.281 311.66C990.821 311.66 991.901 310.86 991.901 309.52C991.901 308.14 990.861 307.38 989.281 307.38ZM989.281 317.76C991.101 317.76 992.301 316.9 992.301 315.38C992.301 313.86 991.061 312.98 989.281 312.98C987.481 312.98 986.261 313.84 986.261 315.4C986.261 316.86 987.481 317.76 989.281 317.76ZM884.921 347L883.641 343.74H877.121L875.841 347H874.021L879.361 333.4H881.481L886.841 347H884.921ZM879.981 336.38L877.681 342.26H883.081L880.781 336.38L880.381 335.18L879.981 336.38ZM890.215 351.4H888.455V336.38H890.215V337.7C890.915 336.7 891.935 336.12 893.195 336.12C896.015 336.12 897.715 338.2 897.715 341.66C897.715 345.26 895.975 347.24 893.195 347.24C891.935 347.24 890.915 346.72 890.215 345.74V351.4ZM893.075 337.64C891.215 337.64 890.215 339.06 890.215 341.66C890.215 344.24 891.255 345.72 893.075 345.72C894.915 345.72 895.915 344.28 895.915 341.66C895.915 339.1 894.875 337.64 893.075 337.64ZM901.558 351.4H899.798V336.38H901.558V337.7C902.258 336.7 903.278 336.12 904.538 336.12C907.358 336.12 909.058 338.2 909.058 341.66C909.058 345.26 907.318 347.24 904.538 347.24C903.278 347.24 902.258 346.72 901.558 345.74V351.4ZM904.418 337.64C902.558 337.64 901.558 339.06 901.558 341.66C901.558 344.24 902.598 345.72 904.418 345.72C906.258 345.72 907.258 344.28 907.258 341.66C907.258 339.1 906.218 337.64 904.418 337.64ZM912.421 339.1C912.421 342.06 919.321 339.62 919.321 344C919.321 345.98 917.561 347.24 915.061 347.24C912.541 347.24 910.781 346.04 910.381 343.54H912.141C912.381 345.02 913.481 345.84 915.121 345.84C916.721 345.84 917.561 345.12 917.561 344.12C917.561 341.22 910.741 343.62 910.741 339.22C910.741 337.6 912.001 336.12 914.601 336.12C916.901 336.12 918.601 337.2 918.941 339.84H917.181C916.921 338.18 916.001 337.56 914.501 337.56C913.181 337.56 912.421 338.22 912.421 339.1ZM933.358 336.18C933.358 338.14 931.938 338.88 930.398 339.52L930.418 339.54L933.958 342.96C934.318 342.12 934.518 341.08 934.518 339.9H936.338C936.338 341.44 935.958 342.96 935.238 344.18L938.138 347H935.718L934.178 345.54C933.098 346.58 931.598 347.24 929.698 347.24C926.678 347.24 924.858 345.46 924.858 343.2C924.858 341.02 926.198 340 927.698 339.26C926.678 338.14 926.298 337.34 926.298 336.24C926.298 334.4 927.798 333.16 929.938 333.16C932.198 333.16 933.358 334.62 933.358 336.18ZM928.058 336.24C928.058 337.06 928.478 337.64 929.378 338.52C930.598 337.98 931.618 337.42 931.618 336.28C931.618 335.48 930.978 334.68 929.918 334.68C928.798 334.68 928.058 335.4 928.058 336.24ZM926.658 343.18C926.658 344.66 927.778 345.72 929.798 345.72C931.098 345.72 932.198 345.26 933.018 344.42L929.278 340.86C929.058 340.66 928.858 340.46 928.678 340.28C927.538 340.86 926.658 341.64 926.658 343.18ZM944.845 347V345.6H947.305V336.6H944.845V335.2H946.305C947.345 335.2 947.605 334.96 947.605 334.38V334.14H949.145V345.6H951.605V347H944.845ZM959.168 347.24C955.988 347.24 954.148 344.76 954.148 340.58C954.148 336.28 956.028 333.9 959.168 333.9C962.328 333.9 964.168 336.38 964.168 340.58C964.168 344.88 962.288 347.24 959.168 347.24ZM959.168 345.72C961.228 345.72 962.368 343.88 962.368 340.58C962.368 337.3 961.208 335.42 959.168 335.42C957.088 335.42 955.948 337.24 955.948 340.58C955.948 343.82 957.108 345.72 959.168 345.72ZM970.492 347.24C967.312 347.24 965.472 344.76 965.472 340.58C965.472 336.28 967.352 333.9 970.492 333.9C973.652 333.9 975.492 336.38 975.492 340.58C975.492 344.88 973.612 347.24 970.492 347.24ZM970.492 345.72C972.552 345.72 973.692 343.88 973.692 340.58C973.692 337.3 972.532 335.42 970.492 335.42C968.412 335.42 967.272 337.24 967.272 340.58C967.272 343.82 968.432 345.72 970.492 345.72ZM977.915 341.34V339.94H981.115V336.76H982.515V339.94H985.695V341.34H982.515V344.54H981.115V341.34H977.915ZM886.756 375V361.4H895.976V362.9H888.596V367.2H895.236V368.7H888.596V373.5H895.976V375H886.756ZM902.037 375.24C899.217 375.24 897.517 373.16 897.517 369.7C897.517 366.1 899.257 364.12 902.037 364.12C903.297 364.12 904.317 364.64 905.017 365.62V360.6H906.777V375H905.017V373.66C904.317 374.66 903.297 375.24 902.037 375.24ZM902.157 373.72C904.017 373.72 905.017 372.3 905.017 369.7C905.017 367.12 903.977 365.64 902.157 365.64C900.317 365.64 899.317 367.08 899.317 369.7C899.317 372.26 900.357 373.72 902.157 373.72ZM916.14 370.66V364.38H917.9V375H916.14V373.56C915.42 374.68 914.3 375.24 912.92 375.24C910.7 375.24 909.38 373.94 909.38 371.48V364.38H911.14V371.12C911.14 372.72 911.84 373.74 913.4 373.74C915.12 373.74 916.14 372.18 916.14 370.66ZM929.288 368.04H927.528C927.248 366.42 926.168 365.64 924.768 365.64C922.808 365.64 921.768 367.08 921.768 369.7C921.768 372.28 922.868 373.74 924.828 373.74C926.248 373.74 927.268 372.98 927.608 371.46H929.368C928.888 374.1 927.108 375.24 924.788 375.24C921.768 375.24 919.968 373.14 919.968 369.7C919.968 366.1 921.808 364.12 924.768 364.12C927.108 364.12 928.948 365.44 929.288 368.04ZM932.963 367.84H931.203C931.543 365.5 933.083 364.12 935.683 364.12C938.523 364.12 939.903 365.78 939.903 368.26V372.44C939.903 373.66 940.003 374.42 940.283 375H938.423C938.223 374.58 938.163 373.96 938.143 373.32C937.243 374.66 935.803 375.24 934.523 375.24C932.323 375.24 930.843 374.22 930.843 372.2C930.843 370.74 931.643 369.68 933.203 369.16C934.643 368.68 936.103 368.56 938.143 368.54V368.3C938.143 366.58 937.343 365.64 935.523 365.64C934.003 365.64 933.183 366.48 932.963 367.84ZM932.643 372.16C932.643 373.14 933.463 373.72 934.703 373.72C936.663 373.72 938.143 372.18 938.143 370.36V369.86C933.623 369.9 932.643 370.86 932.643 372.16ZM942.829 371.94V365.78H941.349V364.38H942.829V361.94H944.589V364.38H946.929V365.78H944.589V371.94C944.589 373.22 944.969 373.82 946.529 373.82H946.889V375.08C946.689 375.18 946.249 375.24 945.749 375.24C943.769 375.24 942.829 374.18 942.829 371.94ZM952.724 375.24C949.684 375.24 947.864 373.16 947.864 369.7C947.864 366.1 949.744 364.12 952.724 364.12C955.764 364.12 957.584 366.24 957.584 369.7C957.584 373.28 955.704 375.24 952.724 375.24ZM952.724 373.72C954.704 373.72 955.784 372.3 955.784 369.7C955.784 367.12 954.684 365.64 952.724 365.64C950.744 365.64 949.664 367.08 949.664 369.7C949.664 372.26 950.764 373.72 952.724 373.72ZM959.65 375V364.38H961.41V366.02C962.13 364.72 963.27 364.12 964.55 364.12C964.97 364.12 965.35 364.22 965.55 364.38V365.96C965.25 365.86 964.87 365.82 964.45 365.82C962.33 365.82 961.41 367.14 961.41 369.06V375H959.65ZM968.211 367.1C968.211 370.06 975.111 367.62 975.111 372C975.111 373.98 973.351 375.24 970.851 375.24C968.331 375.24 966.571 374.04 966.171 371.54H967.931C968.171 373.02 969.271 373.84 970.911 373.84C972.511 373.84 973.351 373.12 973.351 372.12C973.351 369.22 966.531 371.62 966.531 367.22C966.531 365.6 967.791 364.12 970.391 364.12C972.691 364.12 974.391 365.2 974.731 367.84H972.971C972.711 366.18 971.791 365.56 970.291 365.56C968.971 365.56 968.211 366.22 968.211 367.1Z" fill="white"/>
<path opacity="0.6" d="M1183.87 319V305.4H1185.71V317.5H1192.55V319H1183.87ZM1196.01 311.84H1194.25C1194.59 309.5 1196.13 308.12 1198.73 308.12C1201.57 308.12 1202.95 309.78 1202.95 312.26V316.44C1202.95 317.66 1203.05 318.42 1203.33 319H1201.47C1201.27 318.58 1201.21 317.96 1201.19 317.32C1200.29 318.66 1198.85 319.24 1197.57 319.24C1195.37 319.24 1193.89 318.22 1193.89 316.2C1193.89 314.74 1194.69 313.68 1196.25 313.16C1197.69 312.68 1199.15 312.56 1201.19 312.54V312.3C1201.19 310.58 1200.39 309.64 1198.57 309.64C1197.05 309.64 1196.23 310.48 1196.01 311.84ZM1195.69 316.16C1195.69 317.14 1196.51 317.72 1197.75 317.72C1199.71 317.72 1201.19 316.18 1201.19 314.36V313.86C1196.67 313.9 1195.69 314.86 1195.69 316.16ZM1212.4 314.66V308.38H1214.16V319H1212.4V317.56C1211.68 318.68 1210.56 319.24 1209.18 319.24C1206.96 319.24 1205.64 317.94 1205.64 315.48V308.38H1207.4V315.12C1207.4 316.72 1208.1 317.74 1209.66 317.74C1211.38 317.74 1212.4 316.18 1212.4 314.66ZM1216.76 319V308.38H1218.52V309.82C1219.24 308.7 1220.4 308.12 1221.8 308.12C1224.06 308.12 1225.4 309.44 1225.4 311.9V319H1223.64V312.26C1223.64 310.66 1222.92 309.62 1221.32 309.62C1219.56 309.62 1218.52 311.2 1218.52 312.72V319H1216.76ZM1236.79 312.04H1235.03C1234.75 310.42 1233.67 309.64 1232.27 309.64C1230.31 309.64 1229.27 311.08 1229.27 313.7C1229.27 316.28 1230.37 317.74 1232.33 317.74C1233.75 317.74 1234.77 316.98 1235.11 315.46H1236.87C1236.39 318.1 1234.61 319.24 1232.29 319.24C1229.27 319.24 1227.47 317.14 1227.47 313.7C1227.47 310.1 1229.31 308.12 1232.27 308.12C1234.61 308.12 1236.45 309.44 1236.79 312.04ZM1238.84 319V304.6H1240.6V309.82C1241.32 308.7 1242.48 308.12 1243.88 308.12C1246.14 308.12 1247.48 309.44 1247.48 311.9V319H1245.72V312.26C1245.72 310.66 1245 309.62 1243.4 309.62C1241.64 309.62 1240.6 311.2 1240.6 312.72V319H1238.84ZM1163.8 347V333.4H1173.02V334.9H1165.64V339.2H1172.28V340.7H1165.64V345.5H1173.02V347H1163.8ZM1179.08 347.24C1176.26 347.24 1174.56 345.16 1174.56 341.7C1174.56 338.1 1176.3 336.12 1179.08 336.12C1180.34 336.12 1181.36 336.64 1182.06 337.62V332.6H1183.82V347H1182.06V345.66C1181.36 346.66 1180.34 347.24 1179.08 347.24ZM1179.2 345.72C1181.06 345.72 1182.06 344.3 1182.06 341.7C1182.06 339.12 1181.02 337.64 1179.2 337.64C1177.36 337.64 1176.36 339.08 1176.36 341.7C1176.36 344.26 1177.4 345.72 1179.2 345.72ZM1193.18 342.66V336.38H1194.94V347H1193.18V345.56C1192.46 346.68 1191.34 347.24 1189.96 347.24C1187.74 347.24 1186.42 345.94 1186.42 343.48V336.38H1188.18V343.12C1188.18 344.72 1188.88 345.74 1190.44 345.74C1192.16 345.74 1193.18 344.18 1193.18 342.66ZM1198.47 333.4L1202.61 344.02L1203.01 345.22L1203.41 344.02L1207.55 333.4H1209.37L1204.03 347H1201.91L1196.55 333.4H1198.47ZM1211.68 339.84H1209.92C1210.26 337.5 1211.8 336.12 1214.4 336.12C1217.24 336.12 1218.62 337.78 1218.62 340.26V344.44C1218.62 345.66 1218.72 346.42 1219 347H1217.14C1216.94 346.58 1216.88 345.96 1216.86 345.32C1215.96 346.66 1214.52 347.24 1213.24 347.24C1211.04 347.24 1209.56 346.22 1209.56 344.2C1209.56 342.74 1210.36 341.68 1211.92 341.16C1213.36 340.68 1214.82 340.56 1216.86 340.54V340.3C1216.86 338.58 1216.06 337.64 1214.24 337.64C1212.72 337.64 1211.9 338.48 1211.68 339.84ZM1211.36 344.16C1211.36 345.14 1212.18 345.72 1213.42 345.72C1215.38 345.72 1216.86 344.18 1216.86 342.36V341.86C1212.34 341.9 1211.36 342.86 1211.36 344.16ZM1228.07 342.66V336.38H1229.83V347H1228.07V345.56C1227.35 346.68 1226.23 347.24 1224.85 347.24C1222.63 347.24 1221.31 345.94 1221.31 343.48V336.38H1223.07V343.12C1223.07 344.72 1223.77 345.74 1225.33 345.74C1227.05 345.74 1228.07 344.18 1228.07 342.66ZM1232.44 347V332.6H1234.2V347H1232.44ZM1237.03 343.94V337.78H1235.55V336.38H1237.03V333.94H1238.79V336.38H1241.13V337.78H1238.79V343.94C1238.79 345.22 1239.17 345.82 1240.73 345.82H1241.09V347.08C1240.89 347.18 1240.45 347.24 1239.95 347.24C1237.97 347.24 1237.03 346.18 1237.03 343.94ZM1245.11 337.78V336.38H1246.59V335.66C1246.59 333.42 1247.51 332.36 1249.47 332.36C1249.91 332.36 1250.27 332.44 1250.45 332.52V333.78H1250.27C1248.73 333.78 1248.35 334.38 1248.35 335.66V336.38H1250.45V337.78H1248.35V347H1246.59V337.78H1245.11ZM1255.98 347.24C1252.94 347.24 1251.12 345.16 1251.12 341.7C1251.12 338.1 1253 336.12 1255.98 336.12C1259.02 336.12 1260.84 338.24 1260.84 341.7C1260.84 345.28 1258.96 347.24 1255.98 347.24ZM1255.98 345.72C1257.96 345.72 1259.04 344.3 1259.04 341.7C1259.04 339.12 1257.94 337.64 1255.98 337.64C1254 337.64 1252.92 339.08 1252.92 341.7C1252.92 344.26 1254.02 345.72 1255.98 345.72ZM1262.9 347V336.38H1264.66V338.02C1265.38 336.72 1266.52 336.12 1267.8 336.12C1268.22 336.12 1268.6 336.22 1268.8 336.38V337.96C1268.5 337.86 1268.12 337.82 1267.7 337.82C1265.58 337.82 1264.66 339.14 1264.66 341.06V347H1262.9ZM1169.04 365.32H1167.12C1166.62 363.66 1165.2 362.74 1163.46 362.74C1160.8 362.74 1159.22 364.82 1159.22 368.22C1159.22 371.62 1160.78 373.66 1163.46 373.66C1165.14 373.66 1166.5 372.8 1167.08 371.16H1169.02C1168.26 373.74 1166.04 375.24 1163.44 375.24C1159.64 375.24 1157.34 372.58 1157.34 368.22C1157.34 363.88 1159.68 361.16 1163.52 361.16C1166.14 361.16 1168.38 362.6 1169.04 365.32ZM1171.09 375V364.38H1172.85V366.02C1173.57 364.72 1174.71 364.12 1175.99 364.12C1176.41 364.12 1176.79 364.22 1176.99 364.38V365.96C1176.69 365.86 1176.31 365.82 1175.89 365.82C1173.77 365.82 1172.85 367.14 1172.85 369.06V375H1171.09ZM1187.34 371.54C1186.76 374.02 1184.98 375.24 1182.56 375.24C1179.48 375.24 1177.62 373.16 1177.62 369.7C1177.62 366.1 1179.48 364.12 1182.46 364.12C1185.46 364.12 1187.26 366.18 1187.26 369.56V370H1179.42C1179.52 372.38 1180.64 373.72 1182.56 373.72C1184.06 373.72 1185.12 373 1185.5 371.54H1187.34ZM1182.46 365.64C1180.76 365.64 1179.74 366.7 1179.48 368.68H1185.42C1185.18 366.72 1184.12 365.64 1182.46 365.64ZM1193.38 375.24C1190.56 375.24 1188.86 373.16 1188.86 369.7C1188.86 366.1 1190.6 364.12 1193.38 364.12C1194.64 364.12 1195.66 364.64 1196.36 365.62V360.6H1198.12V375H1196.36V373.66C1195.66 374.66 1194.64 375.24 1193.38 375.24ZM1193.5 373.72C1195.36 373.72 1196.36 372.3 1196.36 369.7C1196.36 367.12 1195.32 365.64 1193.5 365.64C1191.66 365.64 1190.66 367.08 1190.66 369.7C1190.66 372.26 1191.7 373.72 1193.5 373.72ZM1209.91 371.54C1209.33 374.02 1207.55 375.24 1205.13 375.24C1202.05 375.24 1200.19 373.16 1200.19 369.7C1200.19 366.1 1202.05 364.12 1205.03 364.12C1208.03 364.12 1209.83 366.18 1209.83 369.56V370H1201.99C1202.09 372.38 1203.21 373.72 1205.13 373.72C1206.63 373.72 1207.69 373 1208.07 371.54H1209.91ZM1205.03 365.64C1203.33 365.64 1202.31 366.7 1202.05 368.68H1207.99C1207.75 366.72 1206.69 365.64 1205.03 365.64ZM1211.97 375V364.38H1213.73V365.82C1214.45 364.7 1215.61 364.12 1217.01 364.12C1219.27 364.12 1220.61 365.44 1220.61 367.9V375H1218.85V368.26C1218.85 366.66 1218.13 365.62 1216.53 365.62C1214.77 365.62 1213.73 367.2 1213.73 368.72V375H1211.97ZM1223.46 371.94V365.78H1221.98V364.38H1223.46V361.94H1225.22V364.38H1227.56V365.78H1225.22V371.94C1225.22 373.22 1225.6 373.82 1227.16 373.82H1227.52V375.08C1227.32 375.18 1226.88 375.24 1226.38 375.24C1224.4 375.24 1223.46 374.18 1223.46 371.94ZM1229.03 362.96V360.6H1230.79V362.96H1229.03ZM1229.03 375V364.38H1230.79V375H1229.03ZM1235 367.84H1233.24C1233.58 365.5 1235.12 364.12 1237.72 364.12C1240.56 364.12 1241.94 365.78 1241.94 368.26V372.44C1241.94 373.66 1242.04 374.42 1242.32 375H1240.46C1240.26 374.58 1240.2 373.96 1240.18 373.32C1239.28 374.66 1237.84 375.24 1236.56 375.24C1234.36 375.24 1232.88 374.22 1232.88 372.2C1232.88 370.74 1233.68 369.68 1235.24 369.16C1236.68 368.68 1238.14 368.56 1240.18 368.54V368.3C1240.18 366.58 1239.38 365.64 1237.56 365.64C1236.04 365.64 1235.22 366.48 1235 367.84ZM1234.68 372.16C1234.68 373.14 1235.5 373.72 1236.74 373.72C1238.7 373.72 1240.18 372.18 1240.18 370.36V369.86C1235.66 369.9 1234.68 370.86 1234.68 372.16ZM1244.63 375V360.6H1246.39V375H1244.63ZM1248.98 362.96V360.6H1250.74V362.96H1248.98ZM1248.98 375V364.38H1250.74V375H1248.98ZM1253.33 375V364.38H1255.09V365.82C1255.81 364.7 1256.97 364.12 1258.37 364.12C1260.63 364.12 1261.97 365.44 1261.97 367.9V375H1260.21V368.26C1260.21 366.66 1259.49 365.62 1257.89 365.62C1256.13 365.62 1255.09 367.2 1255.09 368.72V375H1253.33ZM1268.36 375.08C1265.66 375.08 1264.04 373.02 1264.04 369.62C1264.04 366.06 1265.7 364.12 1268.36 364.12C1269.78 364.12 1270.84 364.62 1271.54 365.54V364.38H1273.3V375.32C1273.3 378.28 1271.4 379.66 1268.96 379.66C1266.46 379.66 1264.7 378.46 1264.32 376.04H1266.08C1266.3 377.44 1267.4 378.2 1268.94 378.2C1270.5 378.2 1271.54 377.36 1271.54 375.38V373.56C1270.8 374.56 1269.72 375.08 1268.36 375.08ZM1268.68 373.56C1270.54 373.56 1271.54 372.16 1271.54 369.6C1271.54 367.1 1270.5 365.64 1268.68 365.64C1266.84 365.64 1265.84 367.04 1265.84 369.62C1265.84 372.12 1266.86 373.56 1268.68 373.56Z" fill="white"/>
<path d="M61.48 46.432V50.656C61.48 51.616 61.576 51.936 62.344 51.936H62.664C63.4 51.936 63.528 51.616 63.528 50.656V33.6H67.976V51.2C67.976 55.04 67.08 56.16 63.56 56.16H61.704C58.184 56.16 57.256 55.04 57.256 51.2V46.432H61.48ZM75.9538 56L75.6018 53.088H73.0738L72.7538 56H68.7218L71.5058 33.6H77.6818L80.4338 56H75.9538ZM74.3218 36.896C74.1298 40.448 73.8418 44.416 73.4578 49.12H75.1858C74.8018 44.416 74.5138 40.448 74.3218 36.896ZM87.6978 56L85.8738 47.328C85.5538 45.76 85.3298 44.288 85.1378 42.72C85.1698 44.32 85.2338 45.76 85.2338 47.328V56H81.3938V33.6H86.7698L88.2098 41.184C88.4978 42.72 88.6578 44.224 88.8498 45.792C88.8177 44.192 88.7538 42.72 88.7538 41.184V33.6H92.6258V56H87.6978ZM98.6855 33.6V50.656C98.6855 51.616 98.7815 51.936 99.5175 51.936H99.8695C100.606 51.936 100.702 51.616 100.702 50.656V33.6H104.926V51.2C104.926 55.04 104.03 56.16 100.51 56.16H98.6535C95.1335 56.16 94.2055 55.04 94.2055 51.2V33.6H98.6855ZM112.86 56L112.508 53.088H109.98L109.66 56H105.628L108.412 33.6H114.588L117.34 56H112.86ZM111.228 36.896C111.036 40.448 110.748 44.416 110.364 49.12H112.092C111.708 44.416 111.42 40.448 111.228 36.896ZM129.212 49.472V52.064C129.212 53.504 129.34 54.88 129.788 56H125.18C124.796 55.264 124.732 53.92 124.732 52.512V48.576C124.732 47.52 124.508 46.912 123.548 46.912H122.716V56H118.236V33.6H124.764C128.316 33.6 129.212 34.72 129.212 38.56V40.256C129.212 42.976 128.764 44.288 127.228 44.832C128.764 45.376 129.212 46.752 129.212 49.472ZM124.732 41.408V39.104C124.732 38.144 124.636 37.824 123.9 37.824H122.716V42.688H123.9C124.636 42.688 124.732 42.368 124.732 41.408ZM137.533 56H133.053V49.312L129.533 33.6H134.045L134.717 37.12C135.005 38.656 135.325 41.12 135.549 43.808C135.773 41.12 136.093 38.656 136.381 37.12L137.053 33.6H141.085L137.533 49.312V56ZM152.156 38.944V38.56C152.156 37.696 152.092 37.376 151.356 37.376H151.1C150.396 37.376 150.3 37.696 150.3 38.56V41.568H146.364V38.048C146.364 34.464 147.196 33.44 150.492 33.44H152.22C155.484 33.44 156.316 34.464 156.316 38.048V39.2C156.316 42.624 155.42 43.968 152.764 46.976C151.004 48.96 150.236 49.984 150.108 52.096H156.252V56H145.948V52.416C145.948 48.992 146.844 47.648 149.532 44.672C151.452 42.496 152.156 41.472 152.156 38.944ZM167.566 38.048V51.552C167.566 55.136 166.702 56.16 163.47 56.16H161.486C158.222 56.16 157.39 55.136 157.39 51.552V38.048C157.39 34.464 158.222 33.44 161.486 33.44H163.47C166.702 33.44 167.566 34.464 167.566 38.048ZM161.55 38.56V51.04C161.55 51.904 161.646 52.224 162.35 52.224H162.606C163.342 52.224 163.406 51.904 163.406 51.04V38.56C163.406 37.696 163.342 37.376 162.606 37.376H162.35C161.646 37.376 161.55 37.696 161.55 38.56ZM174.875 38.944V38.56C174.875 37.696 174.811 37.376 174.075 37.376H173.819C173.115 37.376 173.019 37.696 173.019 38.56V41.568H169.083V38.048C169.083 34.464 169.915 33.44 173.211 33.44H174.939C178.203 33.44 179.035 34.464 179.035 38.048V39.2C179.035 42.624 178.139 43.968 175.483 46.976C173.723 48.96 172.955 49.984 172.827 52.096H178.971V56H168.667V52.416C168.667 48.992 169.563 47.648 172.251 44.672C174.171 42.496 174.875 41.472 174.875 38.944ZM184.013 44.352V46.208H180.109V33.6H189.549V37.504H184.013V41.152C184.333 39.904 185.101 39.168 186.733 39.168H187.533C189.549 39.168 190.061 40.16 190.061 42.624V51.552C190.061 55.136 189.165 56.16 185.933 56.16H184.205C180.941 56.16 180.109 55.136 180.109 51.552V47.648H184.013V51.04C184.013 51.904 184.109 52.224 184.813 52.224H185.101C185.805 52.224 185.901 51.904 185.901 51.04V44.192C185.901 43.36 185.805 43.04 185.133 43.04H184.877C184.205 43.04 184.013 43.488 184.013 44.352Z" fill="white"/>
<line x1="125.5" y1="78.5" x2="125.5" y2="168.5" stroke="white" stroke-width="3" stroke-linecap="round" stroke-dasharray="8 8"/>
<path d="M303.656 26.16L300.712 46H294.376L291.496 26.16C291.112 23.536 290.664 19.568 290.28 16.304C290.344 19.44 290.408 23.152 290.408 26.16V46H282.6V1.2H295.08L297.256 18.544C297.576 20.912 297.704 23.536 297.896 26.16C298.088 23.536 298.216 20.912 298.536 18.544L300.712 1.2H313.576V46H304.808V26.16C304.808 23.152 304.872 19.312 304.936 16.112C304.488 19.44 304.04 23.6 303.656 26.16ZM329.268 46L328.564 40.176H323.508L322.868 46H314.804L320.372 1.2H332.724L338.228 46H329.268ZM326.004 7.792C325.62 14.896 325.044 22.832 324.276 32.24H327.732C326.964 22.832 326.388 14.896 326.004 7.792ZM361.332 32.944V38.128C361.332 41.008 361.588 43.76 362.484 46H353.268C352.5 44.528 352.372 41.84 352.372 39.024V31.152C352.372 29.04 351.924 27.824 350.004 27.824H348.34V46H339.38V1.2H352.436C359.54 1.2 361.332 3.44 361.332 11.12V14.512C361.332 19.952 360.436 22.576 357.364 23.664C360.436 24.752 361.332 27.504 361.332 32.944ZM352.372 16.816V12.208C352.372 10.288 352.18 9.648 350.708 9.648H348.34V19.376H350.708C352.18 19.376 352.372 18.736 352.372 16.816ZM372.322 11.888V35.312C372.322 37.232 372.514 37.872 374.05 37.872H374.69C376.226 37.872 376.418 37.232 376.418 35.312V26.864H384.802V36.4C384.802 44.08 383.01 46.32 375.97 46.32H372.258C365.218 46.32 363.362 44.08 363.362 36.4V10.8C363.362 3.12 365.218 0.879997 372.258 0.879997H375.97C383.01 0.879997 384.802 3.12 384.802 10.8V18.416H376.418V11.888C376.418 9.968 376.226 9.328 374.69 9.328H374.05C372.514 9.328 372.322 9.968 372.322 11.888ZM396.127 46H387.167V1.2H396.127V18.48H400.159V1.2H409.119V46H400.159V26.928H396.127V46ZM431.535 11.888V11.12C431.535 9.392 431.407 8.752 429.935 8.752H429.423C428.015 8.752 427.823 9.392 427.823 11.12V17.136H419.951V10.096C419.951 2.928 421.615 0.879997 428.207 0.879997H431.663C438.191 0.879997 439.855 2.928 439.855 10.096V12.4C439.855 19.248 438.063 21.936 432.751 27.952C429.231 31.92 427.695 33.968 427.439 38.192H439.727V46H419.119V38.832C419.119 31.984 420.911 29.296 426.287 23.344C430.127 18.992 431.535 16.944 431.535 11.888ZM461.715 10.096V37.104C461.715 44.272 459.987 46.32 453.523 46.32H449.555C443.027 46.32 441.363 44.272 441.363 37.104V10.096C441.363 2.928 443.027 0.879997 449.555 0.879997H453.523C459.987 0.879997 461.715 2.928 461.715 10.096ZM449.683 11.12V36.08C449.683 37.808 449.875 38.448 451.283 38.448H451.795C453.267 38.448 453.395 37.808 453.395 36.08V11.12C453.395 9.392 453.267 8.752 451.795 8.752H451.283C449.875 8.752 449.683 9.392 449.683 11.12ZM475.692 11.888V11.12C475.692 9.392 475.564 8.752 474.092 8.752H473.58C472.172 8.752 471.98 9.392 471.98 11.12V17.136H464.108V10.096C464.108 2.928 465.772 0.879997 472.364 0.879997H475.82C482.348 0.879997 484.012 2.928 484.012 10.096V12.4C484.012 19.248 482.22 21.936 476.908 27.952C473.388 31.92 471.852 33.968 471.596 38.192H483.884V46H463.276V38.832C463.276 31.984 465.068 29.296 470.444 23.344C474.284 18.992 475.692 16.944 475.692 11.888ZM493.328 22.704V26.416H485.52V1.2H504.4V9.008H493.328V16.304C493.968 13.808 495.504 12.336 498.768 12.336H500.368C504.4 12.336 505.424 14.32 505.424 19.248V37.104C505.424 44.272 503.632 46.32 497.168 46.32H493.712C487.184 46.32 485.52 44.272 485.52 37.104V29.296H493.328V36.08C493.328 37.808 493.52 38.448 494.928 38.448H495.504C496.912 38.448 497.104 37.808 497.104 36.08V22.384C497.104 20.72 496.912 20.08 495.568 20.08H495.056C493.712 20.08 493.328 20.976 493.328 22.704Z" fill="white"/>
<line x1="395" y1="68.5" x2="395" y2="158.5" stroke="white" stroke-width="3" stroke-linecap="round" stroke-dasharray="8 8"/>
<path opacity="0.6" d="M614.672 51.2V38.4C614.672 34.56 615.6 33.44 619.12 33.44H621.232C624.752 33.44 625.68 34.56 625.68 38.4V51.2C625.68 54.4 625.008 55.712 622.768 56.064V56.608C622.768 57.504 622.992 57.824 623.632 57.824H624.496V60.064H622.576C619.792 60.064 618.864 59.52 618.864 56.16C615.536 56.096 614.672 54.944 614.672 51.2ZM621.2 50.656V38.944C621.2 37.984 621.104 37.664 620.336 37.664H620.016C619.248 37.664 619.152 37.984 619.152 38.944V50.656C619.152 51.616 619.248 51.936 620.016 51.936H620.336C621.104 51.936 621.2 51.616 621.2 50.656ZM633 38.944V38.56C633 37.696 632.936 37.376 632.2 37.376H631.944C631.24 37.376 631.144 37.696 631.144 38.56V41.568H627.208V38.048C627.208 34.464 628.04 33.44 631.336 33.44H633.064C636.328 33.44 637.16 34.464 637.16 38.048V39.2C637.16 42.624 636.264 43.968 633.608 46.976C631.848 48.96 631.08 49.984 630.952 52.096H637.096V56H626.792V52.416C626.792 48.992 627.688 47.648 630.376 44.672C632.296 42.496 633 41.472 633 38.944ZM648.625 38.944V38.56C648.625 37.696 648.561 37.376 647.825 37.376H647.569C646.865 37.376 646.769 37.696 646.769 38.56V41.568H642.833V38.048C642.833 34.464 643.665 33.44 646.961 33.44H648.689C651.953 33.44 652.785 34.464 652.785 38.048V39.2C652.785 42.624 651.889 43.968 649.233 46.976C647.473 48.96 646.705 49.984 646.577 52.096H652.721V56H642.417V52.416C642.417 48.992 643.313 47.648 646.001 44.672C647.921 42.496 648.625 41.472 648.625 38.944ZM664.035 38.048V51.552C664.035 55.136 663.171 56.16 659.939 56.16H657.955C654.691 56.16 653.859 55.136 653.859 51.552V38.048C653.859 34.464 654.691 33.44 657.955 33.44H659.939C663.171 33.44 664.035 34.464 664.035 38.048ZM658.019 38.56V51.04C658.019 51.904 658.115 52.224 658.819 52.224H659.075C659.811 52.224 659.875 51.904 659.875 51.04V38.56C659.875 37.696 659.811 37.376 659.075 37.376H658.819C658.115 37.376 658.019 37.696 658.019 38.56ZM671.344 38.944V38.56C671.344 37.696 671.28 37.376 670.544 37.376H670.288C669.584 37.376 669.488 37.696 669.488 38.56V41.568H665.552V38.048C665.552 34.464 666.384 33.44 669.68 33.44H671.408C674.672 33.44 675.504 34.464 675.504 38.048V39.2C675.504 42.624 674.608 43.968 671.952 46.976C670.192 48.96 669.424 49.984 669.296 52.096H675.44V56H665.136V52.416C665.136 48.992 666.032 47.648 668.72 44.672C670.64 42.496 671.344 41.472 671.344 38.944ZM680.482 44.352V46.208H676.578V33.6H686.018V37.504H680.482V41.152C680.802 39.904 681.57 39.168 683.202 39.168H684.002C686.018 39.168 686.53 40.16 686.53 42.624V51.552C686.53 55.136 685.634 56.16 682.402 56.16H680.674C677.41 56.16 676.578 55.136 676.578 51.552V47.648H680.482V51.04C680.482 51.904 680.578 52.224 681.282 52.224H681.57C682.274 52.224 682.37 51.904 682.37 51.04V44.192C682.37 43.36 682.274 43.04 681.602 43.04H681.346C680.674 43.04 680.482 43.488 680.482 44.352Z" fill="white"/>
<line opacity="0.6" x1="652" y1="78.5" x2="652" y2="168.5" stroke="white" stroke-width="3" stroke-linecap="round" stroke-dasharray="8 8"/>
<path opacity="0.6" d="M892.797 51.2V38.4C892.797 34.56 893.725 33.44 897.245 33.44H899.357C902.877 33.44 903.805 34.56 903.805 38.4V51.2C903.805 54.4 903.133 55.712 900.893 56.064V56.608C900.893 57.504 901.117 57.824 901.757 57.824H902.621V60.064H900.701C897.917 60.064 896.989 59.52 896.989 56.16C893.661 56.096 892.797 54.944 892.797 51.2ZM899.325 50.656V38.944C899.325 37.984 899.229 37.664 898.461 37.664H898.141C897.373 37.664 897.277 37.984 897.277 38.944V50.656C897.277 51.616 897.373 51.936 898.141 51.936H898.461C899.229 51.936 899.325 51.616 899.325 50.656ZM908.917 38.56V40.8H905.013V38.048C905.013 34.464 905.845 33.44 909.109 33.44H910.837C914.069 33.44 914.965 34.464 914.965 38.048V39.904C914.965 42.496 914.485 43.744 912.981 44.224C914.485 44.736 914.965 45.984 914.965 48.544V51.552C914.965 55.136 914.069 56.16 910.837 56.16H909.109C905.845 56.16 905.013 55.136 905.013 51.552V47.648H908.917V51.04C908.917 51.904 909.013 52.224 909.717 52.224H910.005C910.709 52.224 910.805 51.904 910.805 51.04V47.36C910.805 46.496 910.709 46.208 910.005 46.208H906.805V42.24H910.005C910.709 42.24 910.805 41.92 910.805 41.088V38.56C910.805 37.696 910.709 37.376 910.005 37.376H909.717C909.013 37.376 908.917 37.696 908.917 38.56ZM926.5 38.944V38.56C926.5 37.696 926.436 37.376 925.7 37.376H925.444C924.74 37.376 924.644 37.696 924.644 38.56V41.568H920.708V38.048C920.708 34.464 921.54 33.44 924.836 33.44H926.564C929.828 33.44 930.66 34.464 930.66 38.048V39.2C930.66 42.624 929.764 43.968 927.108 46.976C925.348 48.96 924.58 49.984 924.452 52.096H930.596V56H920.292V52.416C920.292 48.992 921.188 47.648 923.876 44.672C925.796 42.496 926.5 41.472 926.5 38.944ZM941.91 38.048V51.552C941.91 55.136 941.046 56.16 937.814 56.16H935.83C932.566 56.16 931.734 55.136 931.734 51.552V38.048C931.734 34.464 932.566 33.44 935.83 33.44H937.814C941.046 33.44 941.91 34.464 941.91 38.048ZM935.894 38.56V51.04C935.894 51.904 935.99 52.224 936.694 52.224H936.95C937.686 52.224 937.75 51.904 937.75 51.04V38.56C937.75 37.696 937.686 37.376 936.95 37.376H936.694C935.99 37.376 935.894 37.696 935.894 38.56ZM949.219 38.944V38.56C949.219 37.696 949.155 37.376 948.419 37.376H948.163C947.459 37.376 947.363 37.696 947.363 38.56V41.568H943.427V38.048C943.427 34.464 944.259 33.44 947.555 33.44H949.283C952.547 33.44 953.379 34.464 953.379 38.048V39.2C953.379 42.624 952.483 43.968 949.827 46.976C948.067 48.96 947.299 49.984 947.171 52.096H953.315V56H943.011V52.416C943.011 48.992 943.907 47.648 946.595 44.672C948.515 42.496 949.219 41.472 949.219 38.944ZM958.357 44.352V46.208H954.453V33.6H963.893V37.504H958.357V41.152C958.677 39.904 959.445 39.168 961.077 39.168H961.877C963.893 39.168 964.405 40.16 964.405 42.624V51.552C964.405 55.136 963.509 56.16 960.277 56.16H958.549C955.285 56.16 954.453 55.136 954.453 51.552V47.648H958.357V51.04C958.357 51.904 958.453 52.224 959.157 52.224H959.445C960.149 52.224 960.245 51.904 960.245 51.04V44.192C960.245 43.36 960.149 43.04 959.477 43.04H959.221C958.549 43.04 958.357 43.488 958.357 44.352Z" fill="white"/>
<line opacity="0.6" x1="930" y1="78.5" x2="930" y2="168.5" stroke="white" stroke-width="3" stroke-linecap="round" stroke-dasharray="8 8"/>
<path opacity="0.6" d="M1167.8 51.2V38.4C1167.8 34.56 1168.73 33.44 1172.25 33.44H1174.36C1177.88 33.44 1178.81 34.56 1178.81 38.4V51.2C1178.81 54.4 1178.13 55.712 1175.89 56.064V56.608C1175.89 57.504 1176.12 57.824 1176.76 57.824H1177.62V60.064H1175.7C1172.92 60.064 1171.99 59.52 1171.99 56.16C1168.66 56.096 1167.8 54.944 1167.8 51.2ZM1174.33 50.656V38.944C1174.33 37.984 1174.23 37.664 1173.46 37.664H1173.14C1172.37 37.664 1172.28 37.984 1172.28 38.944V50.656C1172.28 51.616 1172.37 51.936 1173.14 51.936H1173.46C1174.23 51.936 1174.33 51.616 1174.33 50.656ZM1184.65 33.6H1189.07V48.992H1190.44V52.48H1189.07V56H1184.91V52.48H1179.6V49.344L1184.65 33.6ZM1183.12 48.992H1184.91V46.432C1184.91 44.512 1185.04 42.4 1185.23 40.064C1184.75 42.368 1184.46 44.096 1183.82 46.432L1183.12 48.992ZM1201.5 38.944V38.56C1201.5 37.696 1201.44 37.376 1200.7 37.376H1200.44C1199.74 37.376 1199.64 37.696 1199.64 38.56V41.568H1195.71V38.048C1195.71 34.464 1196.54 33.44 1199.84 33.44H1201.56C1204.83 33.44 1205.66 34.464 1205.66 38.048V39.2C1205.66 42.624 1204.76 43.968 1202.11 46.976C1200.35 48.96 1199.58 49.984 1199.45 52.096H1205.6V56H1195.29V52.416C1195.29 48.992 1196.19 47.648 1198.88 44.672C1200.8 42.496 1201.5 41.472 1201.5 38.944ZM1216.91 38.048V51.552C1216.91 55.136 1216.05 56.16 1212.81 56.16H1210.83C1207.57 56.16 1206.73 55.136 1206.73 51.552V38.048C1206.73 34.464 1207.57 33.44 1210.83 33.44H1212.81C1216.05 33.44 1216.91 34.464 1216.91 38.048ZM1210.89 38.56V51.04C1210.89 51.904 1210.99 52.224 1211.69 52.224H1211.95C1212.69 52.224 1212.75 51.904 1212.75 51.04V38.56C1212.75 37.696 1212.69 37.376 1211.95 37.376H1211.69C1210.99 37.376 1210.89 37.696 1210.89 38.56ZM1224.22 38.944V38.56C1224.22 37.696 1224.15 37.376 1223.42 37.376H1223.16C1222.46 37.376 1222.36 37.696 1222.36 38.56V41.568H1218.43V38.048C1218.43 34.464 1219.26 33.44 1222.55 33.44H1224.28C1227.55 33.44 1228.38 34.464 1228.38 38.048V39.2C1228.38 42.624 1227.48 43.968 1224.83 46.976C1223.07 48.96 1222.3 49.984 1222.17 52.096H1228.31V56H1218.01V52.416C1218.01 48.992 1218.91 47.648 1221.59 44.672C1223.51 42.496 1224.22 41.472 1224.22 38.944ZM1233.36 44.352V46.208H1229.45V33.6H1238.89V37.504H1233.36V41.152C1233.68 39.904 1234.44 39.168 1236.08 39.168H1236.88C1238.89 39.168 1239.4 40.16 1239.4 42.624V51.552C1239.4 55.136 1238.51 56.16 1235.28 56.16H1233.55C1230.28 56.16 1229.45 55.136 1229.45 51.552V47.648H1233.36V51.04C1233.36 51.904 1233.45 52.224 1234.16 52.224H1234.44C1235.15 52.224 1235.24 51.904 1235.24 51.04V44.192C1235.24 43.36 1235.15 43.04 1234.48 43.04H1234.22C1233.55 43.04 1233.36 43.488 1233.36 44.352Z" fill="white"/>
<line opacity="0.6" x1="1205" y1="78.5" x2="1205" y2="168.5" stroke="white" stroke-width="3" stroke-linecap="round" stroke-dasharray="8 8"/>
<g filter="url(#filter0_f_2304_54)">
<line x1="16" y1="226.5" x2="357" y2="226.5" stroke="url(#paint0_linear_2304_54)" stroke-width="3"/>
</g>
<g filter="url(#filter1_f_2304_54)">
<line x1="16" y1="226.5" x2="357" y2="226.5" stroke="url(#paint1_linear_2304_54)" stroke-width="3"/>
</g>
<line x1="16" y1="226.5" x2="357" y2="226.5" stroke="url(#paint2_linear_2304_54)" stroke-width="3"/>
<line x1="423" y1="226" x2="1302" y2="226" stroke="#7E7E7E" stroke-width="2"/>
<g style="mix-blend-mode:luminosity">
<circle cx="653.5" cy="227.5" r="20" fill="url(#paint3_linear_2304_54)"/>
<circle cx="653.5" cy="227.5" r="20" stroke="#7E7E7E"/>
</g>
<g style="mix-blend-mode:luminosity">
<circle cx="930.5" cy="227.5" r="20" fill="url(#paint4_linear_2304_54)"/>
<circle cx="930.5" cy="227.5" r="20" stroke="#7E7E7E"/>
</g>
<g style="mix-blend-mode:luminosity">
<circle cx="1206.5" cy="227.5" r="20" fill="url(#paint5_linear_2304_54)"/>
<circle cx="1206.5" cy="227.5" r="20" stroke="#7E7E7E"/>
</g>
<circle cx="388.5" cy="227.5" r="41" fill="url(#paint6_linear_2304_54)" stroke="url(#paint7_linear_2304_54)" stroke-width="3"/>
<rect x="97.5" y="208.5" width="40" height="40" rx="20" fill="url(#paint8_linear_2304_54)"/>
<rect x="97.5" y="208.5" width="40" height="40" rx="20" stroke="url(#paint9_linear_2304_54)"/>
<path d="M126.593 221.912C126.05 221.363 125.236 221.363 124.693 221.912L114.514 232.206L110.307 227.951C109.764 227.402 108.95 227.402 108.407 227.951C107.864 228.5 107.864 229.324 108.407 229.873L113.564 235.088C113.836 235.363 114.107 235.5 114.514 235.5C114.921 235.5 115.193 235.363 115.464 235.088L126.593 223.833C127.136 223.284 127.136 222.461 126.593 221.912Z" fill="url(#paint10_linear_2304_54)"/>
<defs>
<filter id="filter0_f_2304_54" x="12" y="221" width="349" height="11" filterUnits="userSpaceOnUse" color-interpolation-filters="sRGB">
<feFlood flood-opacity="0" result="BackgroundImageFix"/>
<feBlend mode="normal" in="SourceGraphic" in2="BackgroundImageFix" result="shape"/>
<feGaussianBlur stdDeviation="2" result="effect1_foregroundBlur_2304_54"/>
</filter>
<filter id="filter1_f_2304_54" x="0" y="209" width="373" height="35" filterUnits="userSpaceOnUse" color-interpolation-filters="sRGB">
<feFlood flood-opacity="0" result="BackgroundImageFix"/>
<feBlend mode="normal" in="SourceGraphic" in2="BackgroundImageFix" result="shape"/>
<feGaussianBlur stdDeviation="8" result="effect1_foregroundBlur_2304_54"/>
</filter>
<linearGradient id="paint0_linear_2304_54" x1="333.5" y1="185.499" x2="73.4998" y2="240.999" gradientUnits="userSpaceOnUse">
<stop stop-color="white"/>
<stop offset="0.5" stop-color="#F0F0F0"/>
<stop offset="0.75" stop-color="#C0C0C0"/>
<stop offset="1" stop-color="#969696"/>
</linearGradient>
<linearGradient id="paint1_linear_2304_54" x1="333.5" y1="185.499" x2="73.4998" y2="240.999" gradientUnits="userSpaceOnUse">
<stop stop-color="white"/>
<stop offset="0.5" stop-color="#F0F0F0"/>
<stop offset="0.75" stop-color="#C0C0C0"/>
<stop offset="1" stop-color="#969696"/>
</linearGradient>
<linearGradient id="paint2_linear_2304_54" x1="333.5" y1="185.499" x2="73.4998" y2="240.999" gradientUnits="userSpaceOnUse">
<stop stop-color="white"/>
<stop offset="0.5" stop-color="#F0F0F0"/>
<stop offset="0.75" stop-color="#C0C0C0"/>
<stop offset="1" stop-color="#969696"/>
</linearGradient>
<linearGradient id="paint3_linear_2304_54" x1="653.5" y1="206.488" x2="653.5" y2="248.512" gradientUnits="userSpaceOnUse">
<stop offset="0.261" stop-color="#6C6C6C"/>
<stop offset="1" stop-color="#2E2E2E"/>
</linearGradient>
<linearGradient id="paint4_linear_2304_54" x1="930.5" y1="206.488" x2="930.5" y2="248.512" gradientUnits="userSpaceOnUse">
<stop offset="0.261" stop-color="#6C6C6C"/>
<stop offset="1" stop-color="#2E2E2E"/>
</linearGradient>
<linearGradient id="paint5_linear_2304_54" x1="1206.5" y1="206.488" x2="1206.5" y2="248.512" gradientUnits="userSpaceOnUse">
<stop offset="0.261" stop-color="#6C6C6C"/>
<stop offset="1" stop-color="#2E2E2E"/>
</linearGradient>
<linearGradient id="paint6_linear_2304_54" x1="388.5" y1="185" x2="388.5" y2="270" gradientUnits="userSpaceOnUse">
<stop offset="0.261" stop-color="#EA382B"/>
<stop offset="1" stop-color="#311C60"/>
</linearGradient>
<linearGradient id="paint7_linear_2304_54" x1="388.5" y1="185" x2="388.5" y2="270" gradientUnits="userSpaceOnUse">
<stop stop-color="white"/>
<stop offset="0.5" stop-color="#F0F0F0"/>
<stop offset="0.75" stop-color="#C0C0C0"/>
<stop offset="1" stop-color="#969696"/>
</linearGradient>
<linearGradient id="paint8_linear_2304_54" x1="117.5" y1="208" x2="117.5" y2="249" gradientUnits="userSpaceOnUse">
<stop offset="0.261" stop-color="#EA382B"/>
<stop offset="1" stop-color="#311C60"/>
</linearGradient>
<linearGradient id="paint9_linear_2304_54" x1="117.5" y1="208" x2="117.5" y2="249" gradientUnits="userSpaceOnUse">
<stop stop-color="white"/>
<stop offset="0.5" stop-color="#F0F0F0"/>
<stop offset="0.75" stop-color="#C0C0C0"/>
<stop offset="1" stop-color="#969696"/>
</linearGradient>
<linearGradient id="paint10_linear_2304_54" x1="117.5" y1="221.5" x2="117.5" y2="235.5" gradientUnits="userSpaceOnUse">
<stop stop-color="white"/>
<stop offset="0.5" stop-color="#F0F0F0"/>
<stop offset="0.75" stop-color="#C0C0C0"/>
<stop offset="1" stop-color="#969696"/>
</linearGradient>
</defs>
</svg>
