<svg width="329" height="470" viewBox="0 0 329 470" fill="none" xmlns="http://www.w3.org/2000/svg">
<line x1="27.5" y1="147" x2="27.5" y2="470" stroke="#7E7E7E" stroke-opacity="0.5"/>
<g filter="url(#filter0_f_2304_127)">
<line y1="-0.5" x2="132" y2="-0.5" transform="matrix(4.33808e-10 1 -1 4.40445e-06 27 16)" stroke="url(#paint0_linear_2304_127)"/>
</g>
<g filter="url(#filter1_f_2304_127)">
<line x1="27.5" y1="16" x2="27.5" y2="148" stroke="url(#paint1_linear_2304_127)"/>
</g>
<line y1="-0.5" x2="131.553" y2="-0.5" transform="matrix(-1.32498e-08 1 -1 -0.00077381 27 16.2891)" stroke="url(#paint2_linear_2304_127)"/>
<rect x="14.5" y="41" width="25" height="25" rx="12.5" fill="url(#paint3_linear_2304_127)"/>
<rect x="14.5" y="41" width="25" height="25" rx="12.5" stroke="url(#paint4_linear_2304_127)"/>
<path d="M32.2643 49.7353C31.95 49.4216 31.4786 49.4216 31.1643 49.7353L25.2714 55.6176L22.8357 53.1863C22.5214 52.8725 22.05 52.8725 21.7357 53.1863C21.4214 53.5 21.4214 53.9706 21.7357 54.2843L24.7214 57.2647C24.8786 57.4216 25.0357 57.5 25.2714 57.5C25.5071 57.5 25.6643 57.4216 25.8214 57.2647L32.2643 50.8333C32.5786 50.5196 32.5786 50.049 32.2643 49.7353Z" fill="url(#paint5_linear_2304_127)"/>
<path d="M91.888 41.328V43.568C91.888 44.192 91.936 44.384 92.464 44.384H92.72C93.248 44.384 93.296 44.192 93.296 43.568V34.8H95.104V43.808C95.104 45.568 94.672 46.08 93.056 46.08H92.224C90.608 46.08 90.192 45.568 90.192 43.808V41.328H91.888ZM99.0673 46L98.8593 44.416H97.3073L97.1153 46H95.4993L96.9553 34.8H99.4353L100.875 46H99.0673ZM97.5633 42.48L97.5313 42.816H98.6513L98.6193 42.48C98.3793 39.984 98.1873 37.936 98.0913 36.208C97.9793 37.936 97.8033 39.984 97.5633 42.48ZM104.404 46L103.22 40.544C103.06 39.792 102.964 39.152 102.852 38.432C102.884 39.152 102.932 39.792 102.932 40.544V46H101.364V34.8H103.652L104.628 39.696C104.772 40.432 104.884 41.136 104.98 41.856C104.964 41.136 104.916 40.432 104.916 39.68V34.8H106.468V46H104.404ZM109.121 34.8V43.568C109.121 44.192 109.169 44.384 109.697 44.384H109.953C110.481 44.384 110.529 44.192 110.529 43.568V34.8H112.225V43.808C112.225 45.568 111.809 46.08 110.193 46.08H109.361C107.745 46.08 107.313 45.568 107.313 43.808V34.8H109.121ZM116.197 46L115.989 44.416H114.437L114.245 46H112.629L114.085 34.8H116.565L118.005 46H116.197ZM114.693 42.48L114.661 42.816H115.781L115.749 42.48C115.509 39.984 115.317 37.936 115.221 36.208C115.109 37.936 114.933 39.984 114.693 42.48ZM123.501 42.512V44.032C123.501 44.752 123.549 45.44 123.757 46H121.885C121.709 45.632 121.693 44.96 121.693 44.256V42.208C121.693 41.536 121.565 41.216 120.973 41.216H120.285V46H118.477V34.8H121.453C123.069 34.8 123.501 35.312 123.501 37.072V38.272C123.501 39.552 123.277 40.144 122.541 40.384C123.277 40.624 123.501 41.248 123.501 42.512ZM121.693 38.704V37.312C121.693 36.688 121.645 36.496 121.117 36.496H120.285V39.52H121.117C121.629 39.52 121.693 39.312 121.693 38.704ZM127.234 46H125.442V42.464L123.682 34.8H125.49L125.954 37.024C126.114 37.808 126.338 39.04 126.45 40.224C126.546 39.04 126.77 37.808 126.93 37.024L127.378 34.8H128.994L127.234 42.464V46ZM134.284 37.28V37.072C134.284 36.512 134.236 36.304 133.74 36.304H133.532C133.036 36.304 132.988 36.512 132.988 37.072V38.784H131.404V36.816C131.404 35.184 131.788 34.72 133.292 34.72H134.076C135.564 34.72 135.964 35.184 135.964 36.816V37.392C135.964 39.056 135.58 39.712 134.236 41.328C133.244 42.528 132.908 43.072 132.908 44.384V44.432H135.964V46H131.244V44.288C131.244 42.608 131.628 41.952 132.956 40.352C133.964 39.136 134.284 38.608 134.284 37.28ZM141.179 36.816V43.984C141.179 45.616 140.779 46.08 139.291 46.08H138.411C136.907 46.08 136.523 45.616 136.523 43.984V36.816C136.523 35.184 136.907 34.72 138.411 34.72H139.291C140.779 34.72 141.179 35.184 141.179 36.816ZM138.203 37.072V43.728C138.203 44.288 138.251 44.496 138.747 44.496H138.955C139.451 44.496 139.499 44.288 139.499 43.728V37.072C139.499 36.512 139.451 36.304 138.955 36.304H138.747C138.251 36.304 138.203 36.512 138.203 37.072ZM144.807 37.28V37.072C144.807 36.512 144.759 36.304 144.263 36.304H144.055C143.559 36.304 143.511 36.512 143.511 37.072V38.784H141.927V36.816C141.927 35.184 142.311 34.72 143.815 34.72H144.599C146.087 34.72 146.487 35.184 146.487 36.816V37.392C146.487 39.056 146.103 39.712 144.759 41.328C143.767 42.528 143.431 43.072 143.431 44.384V44.432H146.487V46H141.767V44.288C141.767 42.608 142.151 41.952 143.479 40.352C144.487 39.136 144.807 38.608 144.807 37.28ZM148.631 40V40.992H147.047V34.8H151.383V36.368H148.631V38.496C148.791 37.904 149.175 37.552 149.959 37.552H150.343C151.335 37.552 151.607 38 151.607 39.2V43.984C151.607 45.616 151.191 46.08 149.719 46.08H148.935C147.431 46.08 147.047 45.616 147.047 43.984V41.84H148.631V43.728C148.631 44.288 148.679 44.496 149.175 44.496H149.383C149.879 44.496 149.927 44.288 149.927 43.728V39.84C149.927 39.312 149.879 39.104 149.431 39.104H149.223C148.775 39.104 148.631 39.424 148.631 40Z" fill="white"/>
<path d="M99.632 72L97.574 64.972L97.364 64.202L97.14 64.972L95.082 72H93.556L90.532 62.48H91.904L94.158 69.928L94.354 70.642L94.536 69.928L96.706 62.48H98.092L100.248 69.928L100.43 70.642L100.612 69.928L102.852 62.48H104.168L101.144 72H99.632ZM105.537 72V61.92H106.769V65.574C107.273 64.79 108.085 64.384 109.065 64.384C110.647 64.384 111.585 65.308 111.585 67.03V72H110.353V67.282C110.353 66.162 109.849 65.434 108.729 65.434C107.497 65.434 106.769 66.54 106.769 67.604V72H105.537ZM113.409 63.572V61.92H114.641V63.572H113.409ZM113.409 72V64.566H114.641V72H113.409ZM116.623 69.858V65.546H115.587V64.566H116.623V62.858H117.855V64.566H119.493V65.546H117.855V69.858C117.855 70.754 118.121 71.174 119.213 71.174H119.465V72.056C119.325 72.126 119.017 72.168 118.667 72.168C117.281 72.168 116.623 71.426 116.623 69.858ZM126.951 69.578C126.545 71.314 125.299 72.168 123.605 72.168C121.449 72.168 120.147 70.712 120.147 68.29C120.147 65.77 121.449 64.384 123.535 64.384C125.635 64.384 126.895 65.826 126.895 68.192V68.5H121.407C121.477 70.166 122.261 71.104 123.605 71.104C124.655 71.104 125.397 70.6 125.663 69.578H126.951ZM123.535 65.448C122.345 65.448 121.631 66.19 121.449 67.576H125.607C125.439 66.204 124.697 65.448 123.535 65.448ZM129.643 75.08H128.411V64.566H129.643V65.49C130.133 64.79 130.847 64.384 131.729 64.384C133.703 64.384 134.893 65.84 134.893 68.262C134.893 70.782 133.675 72.168 131.729 72.168C130.847 72.168 130.133 71.804 129.643 71.118V75.08ZM131.645 65.448C130.343 65.448 129.643 66.442 129.643 68.262C129.643 70.068 130.371 71.104 131.645 71.104C132.933 71.104 133.633 70.096 133.633 68.262C133.633 66.47 132.905 65.448 131.645 65.448ZM137.471 66.988H136.239C136.477 65.35 137.555 64.384 139.375 64.384C141.363 64.384 142.329 65.546 142.329 67.282V70.208C142.329 71.062 142.399 71.594 142.595 72H141.293C141.153 71.706 141.111 71.272 141.097 70.824C140.467 71.762 139.459 72.168 138.563 72.168C137.023 72.168 135.987 71.454 135.987 70.04C135.987 69.018 136.547 68.276 137.639 67.912C138.647 67.576 139.669 67.492 141.097 67.478V67.31C141.097 66.106 140.537 65.448 139.263 65.448C138.199 65.448 137.625 66.036 137.471 66.988ZM137.247 70.012C137.247 70.698 137.821 71.104 138.689 71.104C140.061 71.104 141.097 70.026 141.097 68.752V68.402C137.933 68.43 137.247 69.102 137.247 70.012ZM145.455 75.08H144.223V64.566H145.455V65.49C145.945 64.79 146.659 64.384 147.541 64.384C149.515 64.384 150.705 65.84 150.705 68.262C150.705 70.782 149.487 72.168 147.541 72.168C146.659 72.168 145.945 71.804 145.455 71.118V75.08ZM147.457 65.448C146.155 65.448 145.455 66.442 145.455 68.262C145.455 70.068 146.183 71.104 147.457 71.104C148.745 71.104 149.445 70.096 149.445 68.262C149.445 66.47 148.717 65.448 147.457 65.448ZM158.575 69.578C158.169 71.314 156.923 72.168 155.229 72.168C153.073 72.168 151.771 70.712 151.771 68.29C151.771 65.77 153.073 64.384 155.159 64.384C157.259 64.384 158.519 65.826 158.519 68.192V68.5H153.031C153.101 70.166 153.885 71.104 155.229 71.104C156.279 71.104 157.021 70.6 157.287 69.578H158.575ZM155.159 65.448C153.969 65.448 153.255 66.19 153.073 67.576H157.231C157.063 66.204 156.321 65.448 155.159 65.448ZM160.021 72V64.566H161.253V65.714C161.757 64.804 162.555 64.384 163.451 64.384C163.745 64.384 164.011 64.454 164.151 64.566V65.672C163.941 65.602 163.675 65.574 163.381 65.574C161.897 65.574 161.253 66.498 161.253 67.842V72H160.021ZM167.878 72V62.48H171.308C173.31 62.48 174.584 63.516 174.584 65.168C174.584 66.26 174.052 67.03 173.156 67.436C173.772 67.716 174.094 68.234 174.332 69.172L175.046 72H173.688L173.086 69.424C172.806 68.234 172.33 68.01 171.182 68.01H169.166V72H167.878ZM171.28 63.53H169.166V66.96H171.252C172.512 66.96 173.254 66.288 173.254 65.238C173.254 64.188 172.512 63.53 171.28 63.53ZM182.761 69.578C182.355 71.314 181.109 72.168 179.415 72.168C177.259 72.168 175.957 70.712 175.957 68.29C175.957 65.77 177.259 64.384 179.345 64.384C181.445 64.384 182.705 65.826 182.705 68.192V68.5H177.217C177.287 70.166 178.071 71.104 179.415 71.104C180.465 71.104 181.207 70.6 181.473 69.578H182.761ZM179.345 65.448C178.155 65.448 177.441 66.19 177.259 67.576H181.417C181.249 66.204 180.507 65.448 179.345 65.448ZM184.207 72V61.92H185.439V72H184.207ZM193.678 69.578C193.272 71.314 192.026 72.168 190.332 72.168C188.176 72.168 186.874 70.712 186.874 68.29C186.874 65.77 188.176 64.384 190.262 64.384C192.362 64.384 193.622 65.826 193.622 68.192V68.5H188.134C188.204 70.166 188.988 71.104 190.332 71.104C191.382 71.104 192.124 70.6 192.39 69.578H193.678ZM190.262 65.448C189.072 65.448 188.358 66.19 188.176 67.576H192.334C192.166 66.204 191.424 65.448 190.262 65.448ZM196.258 66.988H195.026C195.264 65.35 196.342 64.384 198.162 64.384C200.15 64.384 201.116 65.546 201.116 67.282V70.208C201.116 71.062 201.186 71.594 201.382 72H200.08C199.94 71.706 199.898 71.272 199.884 70.824C199.254 71.762 198.246 72.168 197.35 72.168C195.81 72.168 194.774 71.454 194.774 70.04C194.774 69.018 195.334 68.276 196.426 67.912C197.434 67.576 198.456 67.492 199.884 67.478V67.31C199.884 66.106 199.324 65.448 198.05 65.448C196.986 65.448 196.412 66.036 196.258 66.988ZM196.034 70.012C196.034 70.698 196.608 71.104 197.476 71.104C198.848 71.104 199.884 70.026 199.884 68.752V68.402C196.72 68.43 196.034 69.102 196.034 70.012ZM203.906 66.47C203.906 68.542 208.736 66.834 208.736 69.9C208.736 71.286 207.504 72.168 205.754 72.168C203.99 72.168 202.758 71.328 202.478 69.578H203.71C203.878 70.614 204.648 71.188 205.796 71.188C206.916 71.188 207.504 70.684 207.504 69.984C207.504 67.954 202.73 69.634 202.73 66.554C202.73 65.42 203.612 64.384 205.432 64.384C207.042 64.384 208.232 65.14 208.47 66.988H207.238C207.056 65.826 206.412 65.392 205.362 65.392C204.438 65.392 203.906 65.854 203.906 66.47ZM216.487 69.578C216.081 71.314 214.835 72.168 213.141 72.168C210.985 72.168 209.683 70.712 209.683 68.29C209.683 65.77 210.985 64.384 213.071 64.384C215.171 64.384 216.431 65.826 216.431 68.192V68.5H210.943C211.013 70.166 211.797 71.104 213.141 71.104C214.191 71.104 214.933 70.6 215.199 69.578H216.487ZM213.071 65.448C211.881 65.448 211.167 66.19 210.985 67.576H215.143C214.975 66.204 214.233 65.448 213.071 65.448Z" fill="white"/>
<line y1="156.5" x2="27" y2="156.5" stroke="white" stroke-dasharray="2 2"/>
<circle cx="27.5" cy="152.5" r="26.75" fill="url(#paint6_linear_2304_127)" stroke="url(#paint7_linear_2304_127)" stroke-width="1.5"/>
<path d="M96.9 139.12L95.84 146.5H93.96L92.92 139.12C92.82 138.36 92.68 137.2 92.56 136.26C92.58 137.16 92.6 138.28 92.6 139.12V146.5H90.64V132.5H93.98L94.78 139.18C94.86 139.86 94.92 140.64 94.98 141.42C95.02 140.64 95.06 139.86 95.14 139.18L95.94 132.5H99.4V146.5H97.2V139.12C97.2 138.28 97.22 137.2 97.24 136.3C97.1 137.24 97 138.38 96.9 139.12ZM104.459 146.5L104.199 144.52H102.259L102.019 146.5H99.9991L101.819 132.5H104.919L106.719 146.5H104.459ZM102.579 142.1L102.539 142.52H103.939L103.899 142.1C103.599 138.98 103.359 136.42 103.239 134.26C103.099 136.42 102.879 138.98 102.579 142.1ZM113.59 142.14V144.04C113.59 144.94 113.65 145.8 113.91 146.5H111.57C111.35 146.04 111.33 145.2 111.33 144.32V141.76C111.33 140.92 111.17 140.52 110.43 140.52H109.57V146.5H107.31V132.5H111.03C113.05 132.5 113.59 133.14 113.59 135.34V136.84C113.59 138.44 113.31 139.18 112.39 139.48C113.31 139.78 113.59 140.56 113.59 142.14ZM111.33 137.38V135.64C111.33 134.86 111.27 134.62 110.61 134.62H109.57V138.4H110.61C111.25 138.4 111.33 138.14 111.33 137.38ZM116.751 135.54V143.46C116.751 144.24 116.811 144.48 117.471 144.48H117.791C118.451 144.48 118.511 144.24 118.511 143.46V140.66H120.631V143.76C120.631 145.96 120.111 146.6 118.091 146.6H117.051C115.011 146.6 114.491 145.96 114.491 143.76V135.24C114.491 133.04 115.011 132.4 117.051 132.4H118.091C120.111 132.4 120.631 133.04 120.631 135.24V137.74H118.511V135.54C118.511 134.76 118.451 134.52 117.791 134.52H117.471C116.811 134.52 116.751 134.76 116.751 135.54ZM123.897 146.5H121.637V132.5H123.897V138.14H125.657V132.5H127.917V146.5H125.657V140.26H123.897V146.5ZM135.129 135.6V135.34C135.129 134.64 135.069 134.38 134.449 134.38H134.189C133.569 134.38 133.509 134.64 133.509 135.34V137.48H131.529V135.02C131.529 132.98 132.009 132.4 133.889 132.4H134.869C136.729 132.4 137.229 132.98 137.229 135.02V135.74C137.229 137.82 136.749 138.64 135.069 140.66C133.829 142.16 133.409 142.84 133.409 144.48V144.54H137.229V146.5H131.329V144.36C131.329 142.26 131.809 141.44 133.469 139.44C134.729 137.92 135.129 137.26 135.129 135.6ZM143.749 135.02V143.98C143.749 146.02 143.249 146.6 141.389 146.6H140.289C138.409 146.6 137.929 146.02 137.929 143.98V135.02C137.929 132.98 138.409 132.4 140.289 132.4H141.389C143.249 132.4 143.749 132.98 143.749 135.02ZM140.029 135.34V143.66C140.029 144.36 140.089 144.62 140.709 144.62H140.969C141.589 144.62 141.649 144.36 141.649 143.66V135.34C141.649 134.64 141.589 134.38 140.969 134.38H140.709C140.089 134.38 140.029 134.64 140.029 135.34ZM148.284 135.6V135.34C148.284 134.64 148.224 134.38 147.604 134.38H147.344C146.724 134.38 146.664 134.64 146.664 135.34V137.48H144.684V135.02C144.684 132.98 145.164 132.4 147.044 132.4H148.024C149.884 132.4 150.384 132.98 150.384 135.02V135.74C150.384 137.82 149.904 138.64 148.224 140.66C146.984 142.16 146.564 142.84 146.564 144.48V144.54H150.384V146.5H144.484V144.36C144.484 142.26 144.964 141.44 146.624 139.44C147.884 137.92 148.284 137.26 148.284 135.6ZM153.063 139V140.24H151.083V132.5H156.503V134.46H153.063V137.12C153.263 136.38 153.743 135.94 154.723 135.94H155.203C156.443 135.94 156.783 136.5 156.783 138V143.98C156.783 146.02 156.263 146.6 154.423 146.6H153.443C151.563 146.6 151.083 146.02 151.083 143.98V141.3H153.063V143.66C153.063 144.36 153.123 144.62 153.743 144.62H154.003C154.623 144.62 154.683 144.36 154.683 143.66V138.8C154.683 138.14 154.623 137.88 154.063 137.88H153.803C153.243 137.88 153.063 138.28 153.063 139Z" fill="white"/>
<path d="M91.092 172.5V162.98H94.354C96.51 162.98 97.868 164.128 97.868 165.99C97.868 167.908 96.496 169.028 94.368 169.028H92.38V172.5H91.092ZM94.34 164.03H92.38V167.978H94.298C95.712 167.978 96.538 167.222 96.538 166.004C96.538 164.8 95.698 164.03 94.34 164.03ZM99.2619 172.5V162.42H100.494V172.5H99.2619ZM103.441 167.488H102.209C102.447 165.85 103.525 164.884 105.345 164.884C107.333 164.884 108.299 166.046 108.299 167.782V170.708C108.299 171.562 108.369 172.094 108.565 172.5H107.263C107.123 172.206 107.081 171.772 107.067 171.324C106.437 172.262 105.429 172.668 104.533 172.668C102.993 172.668 101.957 171.954 101.957 170.54C101.957 169.518 102.517 168.776 103.609 168.412C104.617 168.076 105.639 167.992 107.067 167.978V167.81C107.067 166.606 106.507 165.948 105.233 165.948C104.169 165.948 103.595 166.536 103.441 167.488ZM103.217 170.512C103.217 171.198 103.791 171.604 104.659 171.604C106.031 171.604 107.067 170.526 107.067 169.252V168.902C103.903 168.93 103.217 169.602 103.217 170.512ZM110.347 170.358V166.046H109.311V165.066H110.347V163.358H111.579V165.066H113.217V166.046H111.579V170.358C111.579 171.254 111.845 171.674 112.937 171.674H113.189V172.556C113.049 172.626 112.741 172.668 112.391 172.668C111.005 172.668 110.347 171.926 110.347 170.358ZM113.34 166.046V165.066H114.376V164.562C114.376 162.994 115.02 162.252 116.392 162.252C116.7 162.252 116.952 162.308 117.078 162.364V163.246H116.952C115.874 163.246 115.608 163.666 115.608 164.562V165.066H117.078V166.046H115.608V172.5H114.376V166.046H113.34ZM120.949 172.668C118.821 172.668 117.547 171.212 117.547 168.79C117.547 166.27 118.863 164.884 120.949 164.884C123.077 164.884 124.351 166.368 124.351 168.79C124.351 171.296 123.035 172.668 120.949 172.668ZM120.949 171.604C122.335 171.604 123.091 170.61 123.091 168.79C123.091 166.984 122.321 165.948 120.949 165.948C119.563 165.948 118.807 166.956 118.807 168.79C118.807 170.582 119.577 171.604 120.949 171.604ZM125.796 172.5V165.066H127.028V166.214C127.532 165.304 128.33 164.884 129.226 164.884C129.52 164.884 129.786 164.954 129.926 165.066V166.172C129.716 166.102 129.45 166.074 129.156 166.074C127.672 166.074 127.028 166.998 127.028 168.342V172.5H125.796ZM130.879 172.5V165.066H132.111V166.018C132.587 165.262 133.329 164.884 134.239 164.884C135.261 164.884 136.003 165.332 136.353 166.2C136.843 165.332 137.655 164.884 138.649 164.884C140.161 164.884 141.071 165.808 141.071 167.53V172.5H139.839V167.782C139.839 166.662 139.391 165.934 138.383 165.934C137.263 165.934 136.591 167.04 136.591 168.104V172.5H135.359V167.782C135.359 166.662 134.911 165.934 133.903 165.934C132.783 165.934 132.111 167.04 132.111 168.104V172.5H130.879ZM145.668 172.5V162.98H146.956V171.45H151.744V172.5H145.668ZM154.165 167.488H152.933C153.171 165.85 154.249 164.884 156.069 164.884C158.057 164.884 159.023 166.046 159.023 167.782V170.708C159.023 171.562 159.093 172.094 159.289 172.5H157.987C157.847 172.206 157.805 171.772 157.791 171.324C157.161 172.262 156.153 172.668 155.257 172.668C153.717 172.668 152.681 171.954 152.681 170.54C152.681 169.518 153.241 168.776 154.333 168.412C155.341 168.076 156.363 167.992 157.791 167.978V167.81C157.791 166.606 157.231 165.948 155.957 165.948C154.893 165.948 154.319 166.536 154.165 167.488ZM153.941 170.512C153.941 171.198 154.515 171.604 155.383 171.604C156.755 171.604 157.791 170.526 157.791 169.252V168.902C154.627 168.93 153.941 169.602 153.941 170.512ZM165.635 169.462V165.066H166.867V172.5H165.635V171.492C165.131 172.276 164.347 172.668 163.381 172.668C161.827 172.668 160.903 171.758 160.903 170.036V165.066H162.135V169.784C162.135 170.904 162.625 171.618 163.717 171.618C164.921 171.618 165.635 170.526 165.635 169.462ZM168.693 172.5V165.066H169.925V166.074C170.429 165.29 171.241 164.884 172.221 164.884C173.803 164.884 174.741 165.808 174.741 167.53V172.5H173.509V167.782C173.509 166.662 173.005 165.934 171.885 165.934C170.653 165.934 169.925 167.04 169.925 168.104V172.5H168.693ZM182.71 167.628H181.478C181.282 166.494 180.526 165.948 179.546 165.948C178.174 165.948 177.446 166.956 177.446 168.79C177.446 170.596 178.216 171.618 179.588 171.618C180.582 171.618 181.296 171.086 181.534 170.022H182.766C182.43 171.87 181.184 172.668 179.56 172.668C177.446 172.668 176.186 171.198 176.186 168.79C176.186 166.27 177.474 164.884 179.546 164.884C181.184 164.884 182.472 165.808 182.71 167.628ZM184.149 172.5V162.42H185.381V166.074C185.885 165.29 186.697 164.884 187.677 164.884C189.259 164.884 190.197 165.808 190.197 167.53V172.5H188.965V167.782C188.965 166.662 188.461 165.934 187.341 165.934C186.109 165.934 185.381 167.04 185.381 168.104V172.5H184.149ZM195.005 168.538V167.558H197.245V165.332H198.225V167.558H200.451V168.538H198.225V170.778H197.245V168.538H195.005ZM211.741 169.994C211.741 171.52 210.593 172.668 208.367 172.668C206.365 172.668 205.119 171.632 204.867 169.91H206.127C206.295 170.946 206.995 171.604 208.353 171.604C209.753 171.604 210.481 170.988 210.481 169.938C210.481 169.168 210.075 168.342 207.961 168.342H207.597V167.362H207.891C209.893 167.362 210.215 166.536 210.215 165.906C210.215 164.954 209.585 164.394 208.381 164.394C207.121 164.394 206.477 165.024 206.309 166.06H205.063C205.301 164.366 206.463 163.33 208.395 163.33C210.425 163.33 211.475 164.422 211.475 165.892C211.475 166.732 211.111 167.39 210.173 167.782C211.335 168.216 211.741 169.028 211.741 169.994ZM222.368 172.5L221.472 170.218H216.908L216.012 172.5H214.738L218.476 162.98H219.96L223.712 172.5H222.368ZM218.91 165.066L217.3 169.182H221.08L219.47 165.066L219.19 164.226L218.91 165.066ZM226.073 175.58H224.841V165.066H226.073V165.99C226.563 165.29 227.277 164.884 228.159 164.884C230.133 164.884 231.323 166.34 231.323 168.762C231.323 171.282 230.105 172.668 228.159 172.668C227.277 172.668 226.563 172.304 226.073 171.618V175.58ZM228.075 165.948C226.773 165.948 226.073 166.942 226.073 168.762C226.073 170.568 226.801 171.604 228.075 171.604C229.363 171.604 230.063 170.596 230.063 168.762C230.063 166.97 229.335 165.948 228.075 165.948ZM234.013 175.58H232.781V165.066H234.013V165.99C234.503 165.29 235.217 164.884 236.099 164.884C238.073 164.884 239.263 166.34 239.263 168.762C239.263 171.282 238.045 172.668 236.099 172.668C235.217 172.668 234.503 172.304 234.013 171.618V175.58ZM236.015 165.948C234.713 165.948 234.013 166.942 234.013 168.762C234.013 170.568 234.741 171.604 236.015 171.604C237.303 171.604 238.003 170.596 238.003 168.762C238.003 166.97 237.275 165.948 236.015 165.948ZM241.617 166.97C241.617 169.042 246.447 167.334 246.447 170.4C246.447 171.786 245.215 172.668 243.465 172.668C241.701 172.668 240.469 171.828 240.189 170.078H241.421C241.589 171.114 242.359 171.688 243.507 171.688C244.627 171.688 245.215 171.184 245.215 170.484C245.215 168.454 240.441 170.134 240.441 167.054C240.441 165.92 241.323 164.884 243.143 164.884C244.753 164.884 245.943 165.64 246.181 167.488H244.949C244.767 166.326 244.123 165.892 243.073 165.892C242.149 165.892 241.617 166.354 241.617 166.97Z" fill="white"/>
<g style="mix-blend-mode:luminosity">
<path d="M27.4993 264.182C34.5039 264.182 40.1823 258.504 40.1823 251.499C40.1823 244.495 34.5039 238.816 27.4993 238.816C20.4947 238.816 14.8164 244.495 14.8164 251.499C14.8164 258.504 20.4947 264.182 27.4993 264.182Z" fill="url(#paint8_linear_2304_127)"/>
<path d="M27.4993 264.182C34.5039 264.182 40.1823 258.504 40.1823 251.499C40.1823 244.495 34.5039 238.816 27.4993 238.816C20.4947 238.816 14.8164 244.495 14.8164 251.499C14.8164 258.504 20.4947 264.182 27.4993 264.182Z" stroke="#7E7E7E"/>
</g>
<path opacity="0.6" d="M90.448 241.808V234.992C90.448 233.232 90.864 232.72 92.496 232.72H93.424C95.04 232.72 95.472 233.232 95.472 234.992V241.808C95.472 243.328 95.136 243.92 94.016 244.048V244.368C94.016 244.928 94.144 245.104 94.56 245.104H94.944V246.032H94.16C92.896 246.032 92.432 245.808 92.432 244.16V244.08C90.848 244.064 90.448 243.552 90.448 241.808ZM93.664 241.568V235.232C93.664 234.608 93.616 234.416 93.088 234.416H92.832C92.304 234.416 92.256 234.608 92.256 235.232V241.568C92.256 242.192 92.304 242.384 92.832 242.384H93.088C93.616 242.384 93.664 242.192 93.664 241.568ZM99.1379 235.28V235.072C99.1379 234.512 99.0899 234.304 98.5939 234.304H98.3859C97.8899 234.304 97.8419 234.512 97.8419 235.072V236.784H96.2579V234.816C96.2579 233.184 96.6419 232.72 98.1459 232.72H98.9299C100.418 232.72 100.818 233.184 100.818 234.816V235.392C100.818 237.056 100.434 237.712 99.0899 239.328C98.0979 240.528 97.7619 241.072 97.7619 242.384V242.432H100.818V244H96.0979V242.288C96.0979 240.608 96.4819 239.952 97.8099 238.352C98.8179 237.136 99.1379 236.608 99.1379 235.28ZM106.365 235.28V235.072C106.365 234.512 106.317 234.304 105.821 234.304H105.613C105.117 234.304 105.069 234.512 105.069 235.072V236.784H103.485V234.816C103.485 233.184 103.869 232.72 105.373 232.72H106.157C107.645 232.72 108.045 233.184 108.045 234.816V235.392C108.045 237.056 107.661 237.712 106.317 239.328C105.325 240.528 104.989 241.072 104.989 242.384V242.432H108.045V244H103.325V242.288C103.325 240.608 103.709 239.952 105.037 238.352C106.045 237.136 106.365 236.608 106.365 235.28ZM113.26 234.816V241.984C113.26 243.616 112.86 244.08 111.372 244.08H110.492C108.988 244.08 108.604 243.616 108.604 241.984V234.816C108.604 233.184 108.988 232.72 110.492 232.72H111.372C112.86 232.72 113.26 233.184 113.26 234.816ZM110.284 235.072V241.728C110.284 242.288 110.332 242.496 110.828 242.496H111.036C111.532 242.496 111.58 242.288 111.58 241.728V235.072C111.58 234.512 111.532 234.304 111.036 234.304H110.828C110.332 234.304 110.284 234.512 110.284 235.072ZM116.889 235.28V235.072C116.889 234.512 116.841 234.304 116.345 234.304H116.137C115.641 234.304 115.593 234.512 115.593 235.072V236.784H114.009V234.816C114.009 233.184 114.393 232.72 115.897 232.72H116.681C118.169 232.72 118.569 233.184 118.569 234.816V235.392C118.569 237.056 118.185 237.712 116.841 239.328C115.849 240.528 115.513 241.072 115.513 242.384V242.432H118.569V244H113.849V242.288C113.849 240.608 114.233 239.952 115.561 238.352C116.569 237.136 116.889 236.608 116.889 235.28ZM120.712 238V238.992H119.128V232.8H123.464V234.368H120.712V236.496C120.872 235.904 121.256 235.552 122.04 235.552H122.424C123.416 235.552 123.688 236 123.688 237.2V241.984C123.688 243.616 123.272 244.08 121.8 244.08H121.016C119.512 244.08 119.128 243.616 119.128 241.984V239.84H120.712V241.728C120.712 242.288 120.76 242.496 121.256 242.496H121.464C121.96 242.496 122.008 242.288 122.008 241.728V237.84C122.008 237.312 121.96 237.104 121.512 237.104H121.304C120.856 237.104 120.712 237.424 120.712 238Z" fill="white"/>
<path opacity="0.6" d="M93.374 271.498V270.112C91.876 269.874 90.882 268.992 90.644 267.424H91.89C92.044 268.516 92.94 269.104 94.214 269.104C95.474 269.104 96.146 268.474 96.146 267.592C96.146 265.086 90.882 266.85 90.882 263.308C90.882 262.146 91.736 261.054 93.374 260.858V259.5H94.634V260.886C95.964 261.11 96.958 261.936 97.14 263.518H95.894C95.726 262.384 94.97 261.894 93.836 261.894C92.73 261.894 92.142 262.482 92.142 263.35C92.142 265.632 97.406 263.994 97.406 267.48C97.406 269.062 96.244 270.014 94.634 270.154V271.498H93.374ZM105.836 270L104.94 267.718H100.376L99.4804 270H98.2064L101.944 260.48H103.428L107.18 270H105.836ZM102.378 262.566L100.768 266.682H104.548L102.938 262.566L102.658 261.726L102.378 262.566ZM108.296 270V259.92H109.528V270H108.296ZM111.341 270V262.566H112.573V263.518C113.049 262.762 113.791 262.384 114.701 262.384C115.723 262.384 116.465 262.832 116.815 263.7C117.305 262.832 118.117 262.384 119.111 262.384C120.623 262.384 121.533 263.308 121.533 265.03V270H120.301V265.282C120.301 264.162 119.853 263.434 118.845 263.434C117.725 263.434 117.053 264.54 117.053 265.604V270H115.821V265.282C115.821 264.162 115.373 263.434 114.365 263.434C113.245 263.434 112.573 264.54 112.573 265.604V270H111.341ZM129.782 267.578C129.376 269.314 128.13 270.168 126.436 270.168C124.28 270.168 122.978 268.712 122.978 266.29C122.978 263.77 124.28 262.384 126.366 262.384C128.466 262.384 129.726 263.826 129.726 266.192V266.5H124.238C124.308 268.166 125.092 269.104 126.436 269.104C127.486 269.104 128.228 268.6 128.494 267.578H129.782ZM126.366 263.448C125.176 263.448 124.462 264.19 124.28 265.576H128.438C128.27 264.204 127.528 263.448 126.366 263.448ZM136.333 270V261.572H133.071V260.48H140.883V261.572H137.621V270H136.333ZM143.924 270.168C141.796 270.168 140.522 268.712 140.522 266.29C140.522 263.77 141.838 262.384 143.924 262.384C146.052 262.384 147.326 263.868 147.326 266.29C147.326 268.796 146.01 270.168 143.924 270.168ZM143.924 269.104C145.31 269.104 146.066 268.11 146.066 266.29C146.066 264.484 145.296 263.448 143.924 263.448C142.538 263.448 141.782 264.456 141.782 266.29C141.782 268.082 142.552 269.104 143.924 269.104ZM148.772 270V259.92H150.004V265.758L153.21 262.566H154.722L151.334 265.884L154.918 270H153.35L150.004 266.206V270H148.772ZM161.771 267.578C161.365 269.314 160.119 270.168 158.425 270.168C156.269 270.168 154.967 268.712 154.967 266.29C154.967 263.77 156.269 262.384 158.355 262.384C160.455 262.384 161.715 263.826 161.715 266.192V266.5H156.227C156.297 268.166 157.081 269.104 158.425 269.104C159.475 269.104 160.217 268.6 160.483 267.578H161.771ZM158.355 263.448C157.165 263.448 156.451 264.19 156.269 265.576H160.427C160.259 264.204 159.517 263.448 158.355 263.448ZM163.217 270V262.566H164.449V263.574C164.953 262.79 165.765 262.384 166.745 262.384C168.327 262.384 169.265 263.308 169.265 265.03V270H168.033V265.282C168.033 264.162 167.529 263.434 166.409 263.434C165.177 263.434 164.449 264.54 164.449 265.604V270H163.217ZM173.863 270V260.48H175.151V268.95H179.939V270H173.863ZM182.36 264.988H181.128C181.366 263.35 182.444 262.384 184.264 262.384C186.252 262.384 187.218 263.546 187.218 265.282V268.208C187.218 269.062 187.288 269.594 187.484 270H186.182C186.042 269.706 186 269.272 185.986 268.824C185.356 269.762 184.348 270.168 183.452 270.168C181.912 270.168 180.876 269.454 180.876 268.04C180.876 267.018 181.436 266.276 182.528 265.912C183.536 265.576 184.558 265.492 185.986 265.478V265.31C185.986 264.106 185.426 263.448 184.152 263.448C183.088 263.448 182.514 264.036 182.36 264.988ZM182.136 268.012C182.136 268.698 182.71 269.104 183.578 269.104C184.95 269.104 185.986 268.026 185.986 266.752V266.402C182.822 266.43 182.136 267.102 182.136 268.012ZM193.83 266.962V262.566H195.062V270H193.83V268.992C193.326 269.776 192.542 270.168 191.576 270.168C190.022 270.168 189.098 269.258 189.098 267.536V262.566H190.33V267.284C190.33 268.404 190.82 269.118 191.912 269.118C193.116 269.118 193.83 268.026 193.83 266.962ZM196.888 270V262.566H198.12V263.574C198.624 262.79 199.436 262.384 200.416 262.384C201.998 262.384 202.936 263.308 202.936 265.03V270H201.704V265.282C201.704 264.162 201.2 263.434 200.08 263.434C198.848 263.434 198.12 264.54 198.12 265.604V270H196.888ZM210.906 265.128H209.674C209.478 263.994 208.722 263.448 207.742 263.448C206.37 263.448 205.642 264.456 205.642 266.29C205.642 268.096 206.412 269.118 207.784 269.118C208.778 269.118 209.492 268.586 209.73 267.522H210.962C210.626 269.37 209.38 270.168 207.756 270.168C205.642 270.168 204.382 268.698 204.382 266.29C204.382 263.77 205.67 262.384 207.742 262.384C209.38 262.384 210.668 263.308 210.906 265.128ZM212.344 270V259.92H213.576V263.574C214.08 262.79 214.892 262.384 215.872 262.384C217.454 262.384 218.392 263.308 218.392 265.03V270H217.16V265.282C217.16 264.162 216.656 263.434 215.536 263.434C214.304 263.434 213.576 264.54 213.576 265.604V270H212.344Z" fill="white"/>
<g style="mix-blend-mode:luminosity">
<path d="M27.4993 353.682C34.5039 353.682 40.1823 348.004 40.1823 340.999C40.1823 333.995 34.5039 328.316 27.4993 328.316C20.4947 328.316 14.8164 333.995 14.8164 340.999C14.8164 348.004 20.4947 353.682 27.4993 353.682Z" fill="url(#paint9_linear_2304_127)"/>
<path d="M27.4993 353.682C34.5039 353.682 40.1823 348.004 40.1823 340.999C40.1823 333.995 34.5039 328.316 27.4993 328.316C20.4947 328.316 14.8164 333.995 14.8164 340.999C14.8164 348.004 20.4947 353.682 27.4993 353.682Z" fill="url(#paint10_linear_2304_127)" stroke="#7E7E7E"/>
</g>
<path opacity="0.6" d="M90.448 331.808V324.992C90.448 323.232 90.864 322.72 92.496 322.72H93.424C95.04 322.72 95.472 323.232 95.472 324.992V331.808C95.472 333.328 95.136 333.92 94.016 334.048V334.368C94.016 334.928 94.144 335.104 94.56 335.104H94.944V336.032H94.16C92.896 336.032 92.432 335.808 92.432 334.16V334.08C90.848 334.064 90.448 333.552 90.448 331.808ZM93.664 331.568V325.232C93.664 324.608 93.616 324.416 93.088 324.416H92.832C92.304 324.416 92.256 324.608 92.256 325.232V331.568C92.256 332.192 92.304 332.384 92.832 332.384H93.088C93.616 332.384 93.664 332.192 93.664 331.568ZM97.6979 325.072V326.368H96.1299V324.816C96.1299 323.184 96.5139 322.72 98.0179 322.72H98.8019C100.274 322.72 100.674 323.184 100.674 324.816V326.128C100.674 327.312 100.45 327.888 99.7619 328.112C100.45 328.336 100.674 328.896 100.674 330.096V331.984C100.674 333.616 100.274 334.08 98.8019 334.08H98.0179C96.5139 334.08 96.1299 333.616 96.1299 331.984V329.84H97.6979V331.728C97.6979 332.288 97.7619 332.496 98.2419 332.496H98.4659C98.9459 332.496 99.0099 332.288 99.0099 331.728V329.664C99.0099 329.104 98.9459 328.896 98.4659 328.896H96.9139V327.312H98.4659C98.9459 327.312 99.0099 327.12 99.0099 326.56V325.072C99.0099 324.512 98.9459 324.304 98.4659 324.304H98.2419C97.7459 324.304 97.6979 324.512 97.6979 325.072ZM106.287 325.28V325.072C106.287 324.512 106.239 324.304 105.743 324.304H105.535C105.039 324.304 104.991 324.512 104.991 325.072V326.784H103.407V324.816C103.407 323.184 103.791 322.72 105.295 322.72H106.079C107.567 322.72 107.967 323.184 107.967 324.816V325.392C107.967 327.056 107.583 327.712 106.239 329.328C105.247 330.528 104.911 331.072 104.911 332.384V332.432H107.967V334H103.247V332.288C103.247 330.608 103.631 329.952 104.959 328.352C105.967 327.136 106.287 326.608 106.287 325.28ZM113.182 324.816V331.984C113.182 333.616 112.782 334.08 111.294 334.08H110.414C108.91 334.08 108.526 333.616 108.526 331.984V324.816C108.526 323.184 108.91 322.72 110.414 322.72H111.294C112.782 322.72 113.182 323.184 113.182 324.816ZM110.206 325.072V331.728C110.206 332.288 110.254 332.496 110.75 332.496H110.958C111.454 332.496 111.502 332.288 111.502 331.728V325.072C111.502 324.512 111.454 324.304 110.958 324.304H110.75C110.254 324.304 110.206 324.512 110.206 325.072ZM116.81 325.28V325.072C116.81 324.512 116.762 324.304 116.266 324.304H116.058C115.562 324.304 115.514 324.512 115.514 325.072V326.784H113.93V324.816C113.93 323.184 114.314 322.72 115.818 322.72H116.602C118.09 322.72 118.49 323.184 118.49 324.816V325.392C118.49 327.056 118.106 327.712 116.762 329.328C115.77 330.528 115.434 331.072 115.434 332.384V332.432H118.49V334H113.77V332.288C113.77 330.608 114.154 329.952 115.482 328.352C116.49 327.136 116.81 326.608 116.81 325.28ZM120.634 328V328.992H119.05V322.8H123.386V324.368H120.634V326.496C120.794 325.904 121.178 325.552 121.962 325.552H122.346C123.338 325.552 123.61 326 123.61 327.2V331.984C123.61 333.616 123.194 334.08 121.722 334.08H120.938C119.434 334.08 119.05 333.616 119.05 331.984V329.84H120.634V331.728C120.634 332.288 120.682 332.496 121.178 332.496H121.386C121.882 332.496 121.93 332.288 121.93 331.728V327.84C121.93 327.312 121.882 327.104 121.434 327.104H121.226C120.778 327.104 120.634 327.424 120.634 328Z" fill="white"/>
<path opacity="0.6" d="M91.092 360V350.48H97.546V351.53H92.38V354.54H97.028V355.59H92.38V358.95H97.546V360H91.092ZM103.734 360L101.956 357.522L101.592 356.948L101.228 357.522L99.4921 360H98.0921L100.92 356.136L98.3161 352.566H99.8561L101.396 354.75L101.774 355.352L102.138 354.75L103.65 352.566H105.05L102.446 356.136L105.274 360H103.734ZM107.436 363.08H106.204V352.566H107.436V353.49C107.926 352.79 108.64 352.384 109.522 352.384C111.496 352.384 112.686 353.84 112.686 356.262C112.686 358.782 111.468 360.168 109.522 360.168C108.64 360.168 107.926 359.804 107.436 359.118V363.08ZM109.438 353.448C108.136 353.448 107.436 354.442 107.436 356.262C107.436 358.068 108.164 359.104 109.438 359.104C110.726 359.104 111.426 358.096 111.426 356.262C111.426 354.47 110.698 353.448 109.438 353.448ZM115.264 354.988H114.032C114.27 353.35 115.348 352.384 117.168 352.384C119.156 352.384 120.122 353.546 120.122 355.282V358.208C120.122 359.062 120.192 359.594 120.388 360H119.086C118.946 359.706 118.904 359.272 118.89 358.824C118.26 359.762 117.252 360.168 116.356 360.168C114.816 360.168 113.78 359.454 113.78 358.04C113.78 357.018 114.34 356.276 115.432 355.912C116.44 355.576 117.462 355.492 118.89 355.478V355.31C118.89 354.106 118.33 353.448 117.056 353.448C115.992 353.448 115.418 354.036 115.264 354.988ZM115.04 358.012C115.04 358.698 115.614 359.104 116.482 359.104C117.854 359.104 118.89 358.026 118.89 356.752V356.402C115.726 356.43 115.04 357.102 115.04 358.012ZM122.002 360V352.566H123.234V353.574C123.738 352.79 124.55 352.384 125.53 352.384C127.112 352.384 128.05 353.308 128.05 355.03V360H126.818V355.282C126.818 354.162 126.314 353.434 125.194 353.434C123.962 353.434 123.234 354.54 123.234 355.604V360H122.002ZM130.784 354.47C130.784 356.542 135.614 354.834 135.614 357.9C135.614 359.286 134.382 360.168 132.632 360.168C130.868 360.168 129.636 359.328 129.356 357.578H130.588C130.756 358.614 131.526 359.188 132.674 359.188C133.794 359.188 134.382 358.684 134.382 357.984C134.382 355.954 129.608 357.634 129.608 354.554C129.608 353.42 130.49 352.384 132.31 352.384C133.92 352.384 135.11 353.14 135.348 354.988H134.116C133.934 353.826 133.29 353.392 132.24 353.392C131.316 353.392 130.784 353.854 130.784 354.47ZM136.939 351.572V349.92H138.171V351.572H136.939ZM136.939 360V352.566H138.171V360H136.939ZM143.008 360.168C140.88 360.168 139.606 358.712 139.606 356.29C139.606 353.77 140.922 352.384 143.008 352.384C145.136 352.384 146.41 353.868 146.41 356.29C146.41 358.796 145.094 360.168 143.008 360.168ZM143.008 359.104C144.394 359.104 145.15 358.11 145.15 356.29C145.15 354.484 144.38 353.448 143.008 353.448C141.622 353.448 140.866 354.456 140.866 356.29C140.866 358.082 141.636 359.104 143.008 359.104ZM147.856 360V352.566H149.088V353.574C149.592 352.79 150.404 352.384 151.384 352.384C152.966 352.384 153.904 353.308 153.904 355.03V360H152.672V355.282C152.672 354.162 152.168 353.434 151.048 353.434C149.816 353.434 149.088 354.54 149.088 355.604V360H147.856ZM158.559 357.858V353.546H157.523V352.566H158.559V350.858H159.791V352.566H161.429V353.546H159.791V357.858C159.791 358.754 160.057 359.174 161.149 359.174H161.401V360.056C161.261 360.126 160.953 360.168 160.603 360.168C159.217 360.168 158.559 359.426 158.559 357.858ZM165.485 360.168C163.357 360.168 162.083 358.712 162.083 356.29C162.083 353.77 163.399 352.384 165.485 352.384C167.613 352.384 168.887 353.868 168.887 356.29C168.887 358.796 167.571 360.168 165.485 360.168ZM165.485 359.104C166.871 359.104 167.627 358.11 167.627 356.29C167.627 354.484 166.857 353.448 165.485 353.448C164.099 353.448 163.343 354.456 163.343 356.29C163.343 358.082 164.113 359.104 165.485 359.104ZM176.118 360.168C174.102 360.168 172.772 359.16 172.772 357.536C172.772 356.472 173.346 355.716 174.298 355.296C173.542 354.904 173.094 354.218 173.094 353.308C173.094 351.81 174.326 350.83 176.118 350.83C177.924 350.83 179.156 351.754 179.156 353.308C179.156 354.204 178.694 354.904 177.924 355.31C178.89 355.73 179.464 356.528 179.464 357.522C179.464 359.188 178.12 360.168 176.118 360.168ZM176.118 351.866C175.04 351.866 174.298 352.426 174.298 353.35C174.298 354.33 175.026 354.862 176.118 354.862C177.196 354.862 177.952 354.302 177.952 353.364C177.952 352.398 177.224 351.866 176.118 351.866ZM176.118 359.132C177.392 359.132 178.232 358.53 178.232 357.466C178.232 356.402 177.364 355.786 176.118 355.786C174.858 355.786 174.004 356.388 174.004 357.48C174.004 358.502 174.858 359.132 176.118 359.132ZM190.091 360L189.195 357.718H184.631L183.735 360H182.461L186.199 350.48H187.683L191.435 360H190.091ZM186.633 352.566L185.023 356.682H188.803L187.193 352.566L186.913 351.726L186.633 352.566ZM193.797 363.08H192.565V352.566H193.797V353.49C194.287 352.79 195.001 352.384 195.883 352.384C197.857 352.384 199.047 353.84 199.047 356.262C199.047 358.782 197.829 360.168 195.883 360.168C195.001 360.168 194.287 359.804 193.797 359.118V363.08ZM195.799 353.448C194.497 353.448 193.797 354.442 193.797 356.262C193.797 358.068 194.525 359.104 195.799 359.104C197.087 359.104 197.787 358.096 197.787 356.262C197.787 354.47 197.059 353.448 195.799 353.448ZM201.737 363.08H200.505V352.566H201.737V353.49C202.227 352.79 202.941 352.384 203.823 352.384C205.797 352.384 206.987 353.84 206.987 356.262C206.987 358.782 205.769 360.168 203.823 360.168C202.941 360.168 202.227 359.804 201.737 359.118V363.08ZM203.739 353.448C202.437 353.448 201.737 354.442 201.737 356.262C201.737 358.068 202.465 359.104 203.739 359.104C205.027 359.104 205.727 358.096 205.727 356.262C205.727 354.47 204.999 353.448 203.739 353.448ZM209.341 354.47C209.341 356.542 214.171 354.834 214.171 357.9C214.171 359.286 212.939 360.168 211.189 360.168C209.425 360.168 208.193 359.328 207.913 357.578H209.145C209.313 358.614 210.083 359.188 211.231 359.188C212.351 359.188 212.939 358.684 212.939 357.984C212.939 355.954 208.165 357.634 208.165 354.554C208.165 353.42 209.047 352.384 210.867 352.384C212.477 352.384 213.667 353.14 213.905 354.988H212.673C212.491 353.826 211.847 353.392 210.797 353.392C209.873 353.392 209.341 353.854 209.341 354.47ZM223.997 352.426C223.997 353.798 223.003 354.316 221.925 354.764L221.939 354.778L224.417 357.172C224.669 356.584 224.809 355.856 224.809 355.03H226.083C226.083 356.108 225.817 357.172 225.313 358.026L227.343 360H225.649L224.571 358.978C223.815 359.706 222.765 360.168 221.435 360.168C219.321 360.168 218.047 358.922 218.047 357.34C218.047 355.814 218.985 355.1 220.035 354.582C219.321 353.798 219.055 353.238 219.055 352.468C219.055 351.18 220.105 350.312 221.603 350.312C223.185 350.312 223.997 351.334 223.997 352.426ZM220.287 352.468C220.287 353.042 220.581 353.448 221.211 354.064C222.065 353.686 222.779 353.294 222.779 352.496C222.779 351.936 222.331 351.376 221.589 351.376C220.805 351.376 220.287 351.88 220.287 352.468ZM219.307 357.326C219.307 358.362 220.091 359.104 221.505 359.104C222.415 359.104 223.185 358.782 223.759 358.194L221.141 355.702C220.987 355.562 220.847 355.422 220.721 355.296C219.923 355.702 219.307 356.248 219.307 357.326ZM232.038 360V359.02H233.76V352.72H232.038V351.74H233.06C233.788 351.74 233.97 351.572 233.97 351.166V350.998H235.048V359.02H236.77V360H232.038ZM242.064 360.168C239.838 360.168 238.55 358.432 238.55 355.506C238.55 352.496 239.866 350.83 242.064 350.83C244.276 350.83 245.564 352.566 245.564 355.506C245.564 358.516 244.248 360.168 242.064 360.168ZM242.064 359.104C243.506 359.104 244.304 357.816 244.304 355.506C244.304 353.21 243.492 351.894 242.064 351.894C240.608 351.894 239.81 353.168 239.81 355.506C239.81 357.774 240.622 359.104 242.064 359.104ZM249.99 360.168C247.764 360.168 246.476 358.432 246.476 355.506C246.476 352.496 247.792 350.83 249.99 350.83C252.202 350.83 253.49 352.566 253.49 355.506C253.49 358.516 252.174 360.168 249.99 360.168ZM249.99 359.104C251.432 359.104 252.23 357.816 252.23 355.506C252.23 353.21 251.418 351.894 249.99 351.894C248.534 351.894 247.736 353.168 247.736 355.506C247.736 357.774 248.548 359.104 249.99 359.104ZM255.187 356.038V355.058H257.427V352.832H258.407V355.058H260.633V356.038H258.407V358.278H257.427V356.038H255.187ZM265.566 360V350.48H272.02V351.53H266.854V354.54H271.502V355.59H266.854V358.95H272.02V360H265.566ZM276.262 360.168C274.288 360.168 273.098 358.712 273.098 356.29C273.098 353.77 274.316 352.384 276.262 352.384C277.144 352.384 277.858 352.748 278.348 353.434V349.92H279.58V360H278.348V359.062C277.858 359.762 277.144 360.168 276.262 360.168ZM276.346 359.104C277.648 359.104 278.348 358.11 278.348 356.29C278.348 354.484 277.62 353.448 276.346 353.448C275.058 353.448 274.358 354.456 274.358 356.29C274.358 358.082 275.086 359.104 276.346 359.104ZM286.134 356.962V352.566H287.366V360H286.134V358.992C285.63 359.776 284.846 360.168 283.88 360.168C282.326 360.168 281.402 359.258 281.402 357.536V352.566H282.634V357.284C282.634 358.404 283.124 359.118 284.216 359.118C285.42 359.118 286.134 358.026 286.134 356.962ZM295.338 355.128H294.106C293.91 353.994 293.154 353.448 292.174 353.448C290.802 353.448 290.074 354.456 290.074 356.29C290.074 358.096 290.844 359.118 292.216 359.118C293.21 359.118 293.924 358.586 294.162 357.522H295.394C295.058 359.37 293.812 360.168 292.188 360.168C290.074 360.168 288.814 358.698 288.814 356.29C288.814 353.77 290.102 352.384 292.174 352.384C293.812 352.384 295.1 353.308 295.338 355.128ZM297.911 354.988H296.679C296.917 353.35 297.995 352.384 299.815 352.384C301.803 352.384 302.769 353.546 302.769 355.282V358.208C302.769 359.062 302.839 359.594 303.035 360H301.733C301.593 359.706 301.551 359.272 301.537 358.824C300.907 359.762 299.899 360.168 299.003 360.168C297.463 360.168 296.427 359.454 296.427 358.04C296.427 357.018 296.987 356.276 298.079 355.912C299.087 355.576 300.109 355.492 301.537 355.478V355.31C301.537 354.106 300.977 353.448 299.703 353.448C298.639 353.448 298.065 354.036 297.911 354.988ZM297.687 358.012C297.687 358.698 298.261 359.104 299.129 359.104C300.501 359.104 301.537 358.026 301.537 356.752V356.402C298.373 356.43 297.687 357.102 297.687 358.012ZM304.816 357.858V353.546H303.78V352.566H304.816V350.858H306.048V352.566H307.686V353.546H306.048V357.858C306.048 358.754 306.314 359.174 307.406 359.174H307.658V360.056C307.518 360.126 307.21 360.168 306.86 360.168C305.474 360.168 304.816 359.426 304.816 357.858ZM311.743 360.168C309.615 360.168 308.341 358.712 308.341 356.29C308.341 353.77 309.657 352.384 311.743 352.384C313.871 352.384 315.145 353.868 315.145 356.29C315.145 358.796 313.829 360.168 311.743 360.168ZM311.743 359.104C313.129 359.104 313.885 358.11 313.885 356.29C313.885 354.484 313.115 353.448 311.743 353.448C310.357 353.448 309.601 354.456 309.601 356.29C309.601 358.082 310.371 359.104 311.743 359.104ZM316.591 360V352.566H317.823V353.714C318.327 352.804 319.125 352.384 320.021 352.384C320.315 352.384 320.581 352.454 320.721 352.566V353.672C320.511 353.602 320.245 353.574 319.951 353.574C318.467 353.574 317.823 354.498 317.823 355.842V360H316.591ZM322.584 354.47C322.584 356.542 327.414 354.834 327.414 357.9C327.414 359.286 326.182 360.168 324.432 360.168C322.668 360.168 321.436 359.328 321.156 357.578H322.388C322.556 358.614 323.326 359.188 324.474 359.188C325.594 359.188 326.182 358.684 326.182 357.984C326.182 355.954 321.408 357.634 321.408 354.554C321.408 353.42 322.29 352.384 324.11 352.384C325.72 352.384 326.91 353.14 327.148 354.988H325.916C325.734 353.826 325.09 353.392 324.04 353.392C323.116 353.392 322.584 353.854 322.584 354.47Z" fill="white"/>
<g style="mix-blend-mode:luminosity">
<path d="M27.5001 444.183C34.5047 444.183 40.183 438.505 40.183 431.5C40.183 424.496 34.5047 418.817 27.5001 418.817C20.4955 418.817 14.8171 424.496 14.8171 431.5C14.8171 438.505 20.4955 444.183 27.5001 444.183Z" fill="url(#paint11_linear_2304_127)"/>
<path d="M27.5001 444.183C34.5047 444.183 40.183 438.505 40.183 431.5C40.183 424.496 34.5047 418.817 27.5001 418.817C20.4955 418.817 14.8171 424.496 14.8171 431.5C14.8171 438.505 20.4955 444.183 27.5001 444.183Z" stroke="#7E7E7E"/>
</g>
<path opacity="0.6" d="M90.448 421.808V414.992C90.448 413.232 90.864 412.72 92.496 412.72H93.424C95.04 412.72 95.472 413.232 95.472 414.992V421.808C95.472 423.328 95.136 423.92 94.016 424.048V424.368C94.016 424.928 94.144 425.104 94.56 425.104H94.944V426.032H94.16C92.896 426.032 92.432 425.808 92.432 424.16V424.08C90.848 424.064 90.448 423.552 90.448 421.808ZM93.664 421.568V415.232C93.664 414.608 93.616 414.416 93.088 414.416H92.832C92.304 414.416 92.256 414.608 92.256 415.232V421.568C92.256 422.192 92.304 422.384 92.832 422.384H93.088C93.616 422.384 93.664 422.192 93.664 421.568ZM98.3859 412.8H100.178V420.688H100.962V422.112H100.178V424H98.4979V422.112H95.8419V420.816L98.3859 412.8ZM97.2659 420.688H98.4979V418.816C98.4979 417.728 98.5459 416.624 98.6419 415.408C98.3699 416.608 98.1619 417.584 97.8099 418.816L97.2659 420.688ZM106.224 415.28V415.072C106.224 414.512 106.176 414.304 105.68 414.304H105.472C104.976 414.304 104.928 414.512 104.928 415.072V416.784H103.344V414.816C103.344 413.184 103.728 412.72 105.232 412.72H106.016C107.504 412.72 107.904 413.184 107.904 414.816V415.392C107.904 417.056 107.52 417.712 106.176 419.328C105.184 420.528 104.848 421.072 104.848 422.384V422.432H107.904V424H103.184V422.288C103.184 420.608 103.568 419.952 104.896 418.352C105.904 417.136 106.224 416.608 106.224 415.28ZM113.12 414.816V421.984C113.12 423.616 112.72 424.08 111.232 424.08H110.352C108.848 424.08 108.464 423.616 108.464 421.984V414.816C108.464 413.184 108.848 412.72 110.352 412.72H111.232C112.72 412.72 113.12 413.184 113.12 414.816ZM110.144 415.072V421.728C110.144 422.288 110.192 422.496 110.688 422.496H110.896C111.392 422.496 111.44 422.288 111.44 421.728V415.072C111.44 414.512 111.392 414.304 110.896 414.304H110.688C110.192 414.304 110.144 414.512 110.144 415.072ZM116.748 415.28V415.072C116.748 414.512 116.7 414.304 116.204 414.304H115.996C115.5 414.304 115.452 414.512 115.452 415.072V416.784H113.868V414.816C113.868 413.184 114.252 412.72 115.756 412.72H116.54C118.028 412.72 118.428 413.184 118.428 414.816V415.392C118.428 417.056 118.044 417.712 116.7 419.328C115.708 420.528 115.372 421.072 115.372 422.384V422.432H118.428V424H113.708V422.288C113.708 420.608 114.092 419.952 115.42 418.352C116.428 417.136 116.748 416.608 116.748 415.28ZM120.571 418V418.992H118.987V412.8H123.323V414.368H120.571V416.496C120.731 415.904 121.115 415.552 121.899 415.552H122.283C123.275 415.552 123.547 416 123.547 417.2V421.984C123.547 423.616 123.131 424.08 121.659 424.08H120.875C119.371 424.08 118.987 423.616 118.987 421.984V419.84H120.571V421.728C120.571 422.288 120.619 422.496 121.115 422.496H121.323C121.819 422.496 121.867 422.288 121.867 421.728V417.84C121.867 417.312 121.819 417.104 121.371 417.104H121.163C120.715 417.104 120.571 417.424 120.571 418Z" fill="white"/>
<path opacity="0.6" d="M91.092 450V440.48H92.38V448.95H97.168V450H91.092ZM99.5892 444.988H98.3572C98.5952 443.35 99.6732 442.384 101.493 442.384C103.481 442.384 104.447 443.546 104.447 445.282V448.208C104.447 449.062 104.517 449.594 104.713 450H103.411C103.271 449.706 103.229 449.272 103.215 448.824C102.585 449.762 101.577 450.168 100.681 450.168C99.1412 450.168 98.1052 449.454 98.1052 448.04C98.1052 447.018 98.6652 446.276 99.7572 445.912C100.765 445.576 101.787 445.492 103.215 445.478V445.31C103.215 444.106 102.655 443.448 101.381 443.448C100.317 443.448 99.7432 444.036 99.5892 444.988ZM99.3652 448.012C99.3652 448.698 99.9392 449.104 100.807 449.104C102.179 449.104 103.215 448.026 103.215 446.752V446.402C100.051 446.43 99.3652 447.102 99.3652 448.012ZM111.059 446.962V442.566H112.291V450H111.059V448.992C110.555 449.776 109.771 450.168 108.805 450.168C107.251 450.168 106.327 449.258 106.327 447.536V442.566H107.559V447.284C107.559 448.404 108.049 449.118 109.141 449.118C110.345 449.118 111.059 448.026 111.059 446.962ZM114.117 450V442.566H115.349V443.574C115.853 442.79 116.665 442.384 117.645 442.384C119.227 442.384 120.165 443.308 120.165 445.03V450H118.933V445.282C118.933 444.162 118.429 443.434 117.309 443.434C116.077 443.434 115.349 444.54 115.349 445.604V450H114.117ZM128.134 445.128H126.902C126.706 443.994 125.95 443.448 124.97 443.448C123.598 443.448 122.87 444.456 122.87 446.29C122.87 448.096 123.64 449.118 125.012 449.118C126.006 449.118 126.72 448.586 126.958 447.522H128.19C127.854 449.37 126.608 450.168 124.984 450.168C122.87 450.168 121.61 448.698 121.61 446.29C121.61 443.77 122.898 442.384 124.97 442.384C126.608 442.384 127.896 443.308 128.134 445.128ZM129.573 450V439.92H130.805V443.574C131.309 442.79 132.121 442.384 133.101 442.384C134.683 442.384 135.621 443.308 135.621 445.03V450H134.389V445.282C134.389 444.162 133.885 443.434 132.765 443.434C131.533 443.434 130.805 444.54 130.805 445.604V450H129.573ZM140.219 450V440.48H146.673V441.53H141.507V444.54H146.155V445.59H141.507V448.95H146.673V450H140.219ZM150.916 450.168C148.942 450.168 147.752 448.712 147.752 446.29C147.752 443.77 148.97 442.384 150.916 442.384C151.798 442.384 152.512 442.748 153.002 443.434V439.92H154.234V450H153.002V449.062C152.512 449.762 151.798 450.168 150.916 450.168ZM151 449.104C152.302 449.104 153.002 448.11 153.002 446.29C153.002 444.484 152.274 443.448 151 443.448C149.712 443.448 149.012 444.456 149.012 446.29C149.012 448.082 149.74 449.104 151 449.104ZM160.788 446.962V442.566H162.02V450H160.788V448.992C160.284 449.776 159.5 450.168 158.534 450.168C156.98 450.168 156.056 449.258 156.056 447.536V442.566H157.288V447.284C157.288 448.404 157.778 449.118 158.87 449.118C160.074 449.118 160.788 448.026 160.788 446.962ZM164.49 440.48L167.388 447.914L167.668 448.754L167.948 447.914L170.846 440.48H172.12L168.382 450H166.898L163.146 440.48H164.49ZM173.74 444.988H172.508C172.746 443.35 173.824 442.384 175.644 442.384C177.632 442.384 178.598 443.546 178.598 445.282V448.208C178.598 449.062 178.668 449.594 178.864 450H177.562C177.422 449.706 177.38 449.272 177.366 448.824C176.736 449.762 175.728 450.168 174.832 450.168C173.292 450.168 172.256 449.454 172.256 448.04C172.256 447.018 172.816 446.276 173.908 445.912C174.916 445.576 175.938 445.492 177.366 445.478V445.31C177.366 444.106 176.806 443.448 175.532 443.448C174.468 443.448 173.894 444.036 173.74 444.988ZM173.516 448.012C173.516 448.698 174.09 449.104 174.958 449.104C176.33 449.104 177.366 448.026 177.366 446.752V446.402C174.202 446.43 173.516 447.102 173.516 448.012ZM185.21 446.962V442.566H186.442V450H185.21V448.992C184.706 449.776 183.922 450.168 182.956 450.168C181.402 450.168 180.478 449.258 180.478 447.536V442.566H181.71V447.284C181.71 448.404 182.2 449.118 183.292 449.118C184.496 449.118 185.21 448.026 185.21 446.962ZM188.267 450V439.92H189.499V450H188.267ZM191.481 447.858V443.546H190.445V442.566H191.481V440.858H192.713V442.566H194.351V443.546H192.713V447.858C192.713 448.754 192.979 449.174 194.071 449.174H194.323V450.056C194.183 450.126 193.875 450.168 193.525 450.168C192.139 450.168 191.481 449.426 191.481 447.858ZM197.137 443.546V442.566H198.173V442.062C198.173 440.494 198.817 439.752 200.189 439.752C200.497 439.752 200.749 439.808 200.875 439.864V440.746H200.749C199.671 440.746 199.405 441.166 199.405 442.062V442.566H200.875V443.546H199.405V450H198.173V443.546H197.137ZM204.745 450.168C202.617 450.168 201.343 448.712 201.343 446.29C201.343 443.77 202.659 442.384 204.745 442.384C206.873 442.384 208.147 443.868 208.147 446.29C208.147 448.796 206.831 450.168 204.745 450.168ZM204.745 449.104C206.131 449.104 206.887 448.11 206.887 446.29C206.887 444.484 206.117 443.448 204.745 443.448C203.359 443.448 202.603 444.456 202.603 446.29C202.603 448.082 203.373 449.104 204.745 449.104ZM209.593 450V442.566H210.825V443.714C211.329 442.804 212.127 442.384 213.023 442.384C213.317 442.384 213.583 442.454 213.723 442.566V443.672C213.513 443.602 213.247 443.574 212.953 443.574C211.469 443.574 210.825 444.498 210.825 445.842V450H209.593ZM225.29 443.224H223.946C223.596 442.062 222.602 441.418 221.384 441.418C219.522 441.418 218.416 442.874 218.416 445.254C218.416 447.634 219.508 449.062 221.384 449.062C222.56 449.062 223.512 448.46 223.918 447.312H225.276C224.744 449.118 223.19 450.168 221.37 450.168C218.71 450.168 217.1 448.306 217.1 445.254C217.1 442.216 218.738 440.312 221.426 440.312C223.26 440.312 224.828 441.32 225.29 443.224ZM226.727 450V442.566H227.959V443.714C228.463 442.804 229.261 442.384 230.157 442.384C230.451 442.384 230.717 442.454 230.857 442.566V443.672C230.647 443.602 230.381 443.574 230.087 443.574C228.603 443.574 227.959 444.498 227.959 445.842V450H226.727ZM238.099 447.578C237.693 449.314 236.447 450.168 234.753 450.168C232.597 450.168 231.295 448.712 231.295 446.29C231.295 443.77 232.597 442.384 234.683 442.384C236.783 442.384 238.043 443.826 238.043 446.192V446.5H232.555C232.625 448.166 233.409 449.104 234.753 449.104C235.803 449.104 236.545 448.6 236.811 447.578H238.099ZM234.683 443.448C233.493 443.448 232.779 444.19 232.597 445.576H236.755C236.587 444.204 235.845 443.448 234.683 443.448ZM242.331 450.168C240.357 450.168 239.167 448.712 239.167 446.29C239.167 443.77 240.385 442.384 242.331 442.384C243.213 442.384 243.927 442.748 244.417 443.434V439.92H245.649V450H244.417V449.062C243.927 449.762 243.213 450.168 242.331 450.168ZM242.415 449.104C243.717 449.104 244.417 448.11 244.417 446.29C244.417 444.484 243.689 443.448 242.415 443.448C241.127 443.448 240.427 444.456 240.427 446.29C240.427 448.082 241.155 449.104 242.415 449.104ZM253.898 447.578C253.492 449.314 252.246 450.168 250.552 450.168C248.396 450.168 247.094 448.712 247.094 446.29C247.094 443.77 248.396 442.384 250.482 442.384C252.582 442.384 253.842 443.826 253.842 446.192V446.5H248.354C248.424 448.166 249.208 449.104 250.552 449.104C251.602 449.104 252.344 448.6 252.61 447.578H253.898ZM250.482 443.448C249.292 443.448 248.578 444.19 248.396 445.576H252.554C252.386 444.204 251.644 443.448 250.482 443.448ZM255.343 450V442.566H256.575V443.574C257.079 442.79 257.891 442.384 258.871 442.384C260.453 442.384 261.391 443.308 261.391 445.03V450H260.159V445.282C260.159 444.162 259.655 443.434 258.535 443.434C257.303 443.434 256.575 444.54 256.575 445.604V450H255.343ZM263.383 447.858V443.546H262.347V442.566H263.383V440.858H264.615V442.566H266.253V443.546H264.615V447.858C264.615 448.754 264.881 449.174 265.973 449.174H266.225V450.056C266.085 450.126 265.777 450.168 265.427 450.168C264.041 450.168 263.383 449.426 263.383 447.858ZM267.286 441.572V439.92H268.518V441.572H267.286ZM267.286 450V442.566H268.518V450H267.286ZM271.465 444.988H270.233C270.471 443.35 271.549 442.384 273.369 442.384C275.357 442.384 276.323 443.546 276.323 445.282V448.208C276.323 449.062 276.393 449.594 276.589 450H275.287C275.147 449.706 275.105 449.272 275.091 448.824C274.461 449.762 273.453 450.168 272.557 450.168C271.017 450.168 269.981 449.454 269.981 448.04C269.981 447.018 270.541 446.276 271.633 445.912C272.641 445.576 273.663 445.492 275.091 445.478V445.31C275.091 444.106 274.531 443.448 273.257 443.448C272.193 443.448 271.619 444.036 271.465 444.988ZM271.241 448.012C271.241 448.698 271.815 449.104 272.683 449.104C274.055 449.104 275.091 448.026 275.091 446.752V446.402C271.927 446.43 271.241 447.102 271.241 448.012ZM278.203 450V439.92H279.435V450H278.203ZM281.249 441.572V439.92H282.481V441.572H281.249ZM281.249 450V442.566H282.481V450H281.249ZM284.294 450V442.566H285.526V443.574C286.03 442.79 286.842 442.384 287.822 442.384C289.404 442.384 290.342 443.308 290.342 445.03V450H289.11V445.282C289.11 444.162 288.606 443.434 287.486 443.434C286.254 443.434 285.526 444.54 285.526 445.604V450H284.294ZM294.812 450.056C292.922 450.056 291.788 448.614 291.788 446.234C291.788 443.742 292.95 442.384 294.812 442.384C295.806 442.384 296.548 442.734 297.038 443.378V442.566H298.27V450.224C298.27 452.296 296.94 453.262 295.232 453.262C293.482 453.262 292.25 452.422 291.984 450.728H293.216C293.37 451.708 294.14 452.24 295.218 452.24C296.31 452.24 297.038 451.652 297.038 450.266V448.992C296.52 449.692 295.764 450.056 294.812 450.056ZM295.036 448.992C296.338 448.992 297.038 448.012 297.038 446.22C297.038 444.47 296.31 443.448 295.036 443.448C293.748 443.448 293.048 444.428 293.048 446.234C293.048 447.984 293.762 448.992 295.036 448.992Z" fill="white"/>
<defs>
<filter id="filter0_f_2304_127" x="23" y="12" width="9" height="140" filterUnits="userSpaceOnUse" color-interpolation-filters="sRGB">
<feFlood flood-opacity="0" result="BackgroundImageFix"/>
<feBlend mode="normal" in="SourceGraphic" in2="BackgroundImageFix" result="shape"/>
<feGaussianBlur stdDeviation="2" result="effect1_foregroundBlur_2304_127"/>
</filter>
<filter id="filter1_f_2304_127" x="11" y="0" width="33" height="164" filterUnits="userSpaceOnUse" color-interpolation-filters="sRGB">
<feFlood flood-opacity="0" result="BackgroundImageFix"/>
<feBlend mode="normal" in="SourceGraphic" in2="BackgroundImageFix" result="shape"/>
<feGaussianBlur stdDeviation="8" result="effect1_foregroundBlur_2304_127"/>
</filter>
<linearGradient id="paint0_linear_2304_127" x1="122.903" y1="-42.501" x2="18.3856" y2="-33.8647" gradientUnits="userSpaceOnUse">
<stop stop-color="white"/>
<stop offset="0.5" stop-color="#F0F0F0"/>
<stop offset="0.75" stop-color="#C0C0C0"/>
<stop offset="1" stop-color="#969696"/>
</linearGradient>
<linearGradient id="paint1_linear_2304_127" x1="69.501" y1="138.903" x2="60.8647" y2="34.3856" gradientUnits="userSpaceOnUse">
<stop stop-color="white"/>
<stop offset="0.5" stop-color="#F0F0F0"/>
<stop offset="0.75" stop-color="#C0C0C0"/>
<stop offset="1" stop-color="#969696"/>
</linearGradient>
<linearGradient id="paint2_linear_2304_127" x1="122.487" y1="-42.501" x2="18.3186" y2="-33.9226" gradientUnits="userSpaceOnUse">
<stop stop-color="white"/>
<stop offset="0.5" stop-color="#F0F0F0"/>
<stop offset="0.75" stop-color="#C0C0C0"/>
<stop offset="1" stop-color="#969696"/>
</linearGradient>
<linearGradient id="paint3_linear_2304_127" x1="27" y1="40.5" x2="27" y2="66.5" gradientUnits="userSpaceOnUse">
<stop offset="0.261" stop-color="#EA382B"/>
<stop offset="1" stop-color="#311C60"/>
</linearGradient>
<linearGradient id="paint4_linear_2304_127" x1="27" y1="40.5" x2="27" y2="66.5" gradientUnits="userSpaceOnUse">
<stop stop-color="white"/>
<stop offset="0.5" stop-color="#F0F0F0"/>
<stop offset="0.75" stop-color="#C0C0C0"/>
<stop offset="1" stop-color="#969696"/>
</linearGradient>
<linearGradient id="paint5_linear_2304_127" x1="27" y1="49.5" x2="27" y2="57.5" gradientUnits="userSpaceOnUse">
<stop stop-color="white"/>
<stop offset="0.5" stop-color="#F0F0F0"/>
<stop offset="0.75" stop-color="#C0C0C0"/>
<stop offset="1" stop-color="#969696"/>
</linearGradient>
<linearGradient id="paint6_linear_2304_127" x1="27.5" y1="125" x2="27.5" y2="180" gradientUnits="userSpaceOnUse">
<stop offset="0.261" stop-color="#EA382B"/>
<stop offset="1" stop-color="#311C60"/>
</linearGradient>
<linearGradient id="paint7_linear_2304_127" x1="27.5" y1="125" x2="27.5" y2="180" gradientUnits="userSpaceOnUse">
<stop stop-color="white"/>
<stop offset="0.5" stop-color="#F0F0F0"/>
<stop offset="0.75" stop-color="#C0C0C0"/>
<stop offset="1" stop-color="#969696"/>
</linearGradient>
<linearGradient id="paint8_linear_2304_127" x1="27.4993" y1="238.499" x2="27.4993" y2="264.499" gradientUnits="userSpaceOnUse">
<stop offset="0.261" stop-color="#6C6C6C"/>
<stop offset="1" stop-color="#2E2E2E"/>
</linearGradient>
<linearGradient id="paint9_linear_2304_127" x1="27.4993" y1="327.999" x2="27.4993" y2="353.999" gradientUnits="userSpaceOnUse">
<stop offset="0.261" stop-color="#6C6C6C"/>
<stop offset="1" stop-color="#2E2E2E"/>
</linearGradient>
<linearGradient id="paint10_linear_2304_127" x1="27.4993" y1="327.999" x2="27.4993" y2="353.999" gradientUnits="userSpaceOnUse">
<stop offset="0.261" stop-color="#6C6C6C"/>
<stop offset="1" stop-color="#2E2E2E"/>
</linearGradient>
<linearGradient id="paint11_linear_2304_127" x1="27.5001" y1="418.5" x2="27.5001" y2="444.5" gradientUnits="userSpaceOnUse">
<stop offset="0.261" stop-color="#6C6C6C"/>
<stop offset="1" stop-color="#2E2E2E"/>
</linearGradient>
</defs>
</svg>
