<svg width="41" height="41" viewBox="0 0 41 41" fill="none" xmlns="http://www.w3.org/2000/svg">
<path d="M20.5 0L20.9334 18.6013L29.3946 2.03014L21.7142 18.9774L36.5275 7.71846L22.2546 19.655L40.486 15.9383L22.4475 20.5L40.486 25.0617L22.2546 21.345L36.5275 33.2815L21.7142 22.0226L29.3946 38.9699L20.9334 22.3987L20.5 41L20.0666 22.3987L11.6054 38.9699L19.2858 22.0226L4.47245 33.2815L18.7454 21.345L0.513977 25.0617L18.5525 20.5L0.513977 15.9383L18.7454 19.655L4.47245 7.71846L19.2858 18.9774L11.6054 2.03014L20.0666 18.6013L20.5 0Z" fill="#D9D9D9"/>
</svg>
