<svg width="184" height="47" viewBox="0 0 184 47" fill="none" xmlns="http://www.w3.org/2000/svg">
<g clip-path="url(#clip0_2178_81)">
<path fill-rule="evenodd" clip-rule="evenodd" d="M0.720045 1.40221C5.31139 7.03677 10.3526 14.1155 11.1679 15.2604C11.2114 15.3215 11.2429 15.3657 11.2616 15.3918C11.6963 15.9993 12.0551 16.4509 12.3276 16.7938C12.9325 17.5551 13.1121 17.781 12.7511 17.9885C12.4599 18.1558 12.1596 18.211 11.8599 18.211C11.5209 18.211 11.139 18.046 10.8609 17.7792C10.6643 17.5907 9.31935 15.6156 7.48789 12.7422C6.08658 10.5436 4.91384 8.7198 4.88185 8.68927C4.80788 8.61864 4.80915 8.62103 7.34502 13.2088C8.93731 16.0897 10.0265 18.2186 10.0265 18.3548C10.0265 18.6318 9.95175 18.7774 9.61375 19.1586C9.0503 19.7943 8.79841 20.5085 8.61659 21.9864C8.41275 23.6432 7.83958 24.8137 6.25113 26.8166C5.3213 27.9892 5.16916 28.2041 4.93454 28.6767C4.63903 29.2719 4.55775 29.6052 4.52482 30.3567C4.49001 31.1513 4.55781 31.6646 4.79789 32.4242C5.00808 33.0893 5.22747 33.5286 5.78833 34.407C6.27236 35.1648 6.55106 35.7281 6.55106 35.9486C6.55106 36.1239 6.58416 36.1241 7.3342 35.953C9.12913 35.543 10.5866 34.8223 11.4063 33.9389C11.9136 33.3921 12.0327 33.0902 12.0366 32.341C12.0391 31.8509 12.0221 31.7484 11.8911 31.4664C11.6778 31.0074 11.2895 30.626 10.4338 30.0345C9.31255 29.2594 8.83365 28.6355 8.70137 27.7774C8.59287 27.0734 8.71875 26.5766 9.33903 25.2622C9.98104 23.9015 10.1402 23.3218 10.2478 21.9502C10.3173 21.0641 10.4135 20.7147 10.6653 20.4343C10.9279 20.1418 11.1643 20.0427 11.8141 19.9528C12.8736 19.8066 13.5482 19.5294 14.1028 19.0127C14.5838 18.5645 14.7851 18.1326 14.816 17.4825L14.8394 16.9897L14.5706 16.6728C13.5971 15.5251 0.068093 0.5 0.00818304 0.5C-0.00461543 0.5 0.315735 0.906021 0.720045 1.40221ZM7.09754 31.2558C7.31766 30.8615 7.20071 30.355 6.83252 30.1073C6.48464 29.8735 5.94424 29.9837 5.94424 30.2885C5.94424 30.3814 5.9951 30.4491 6.10975 30.5089C6.30276 30.6093 6.31678 30.7222 6.16491 30.953C6.0111 31.1868 6.02351 31.3923 6.19993 31.5318C6.48426 31.757 6.88674 31.6332 7.09754 31.2558ZM13.7226 9.7622C13.2883 9.69408 13.27 9.68609 13.4744 9.65433C13.866 9.59341 14.7909 9.67642 15.4282 9.82966C16.9161 10.1873 18.27 11.1033 19.7151 12.7303L20.099 13.1626L20.6484 13.0733C22.9622 12.6973 25.3161 12.9961 27.285 13.9157C27.8266 14.1687 28.6806 14.6724 28.7872 14.8018C28.8211 14.843 28.8837 15.1085 28.9259 15.3918C29.0721 16.372 28.999 17.1233 28.7024 17.6845C28.5412 17.9898 28.5322 18.0866 28.6406 18.3479C28.7271 18.5565 28.9686 18.7108 29.2077 18.7105C29.6969 18.7098 30.2234 17.9101 30.4676 16.7974L30.5644 16.3554L30.7565 16.5753C31.8095 17.7818 32.6369 19.4272 32.7789 20.5984L32.8159 20.9037L32.639 20.6262C32.3342 20.1485 32.0282 19.8233 31.6361 19.561C30.9296 19.0882 30.1823 18.9274 28.2036 18.8219C26.4165 18.7267 25.4052 18.5723 24.4023 18.2417C22.6957 17.6791 21.8356 16.9299 19.8086 14.241C18.9083 13.0466 18.3519 12.3858 17.7983 11.8536C16.5405 10.6445 15.3047 10.0103 13.7226 9.7622ZM29.1903 12.4289C29.2353 11.6286 29.3427 11.1007 29.5585 10.6186C29.6439 10.4278 29.7239 10.2716 29.7361 10.2716C29.7486 10.2716 29.7115 10.4124 29.6536 10.5846C29.4968 11.0524 29.471 11.6924 29.5791 12.4369C29.7162 13.3816 29.7944 13.5179 30.7818 14.5383C31.2449 15.017 31.7837 15.6207 31.979 15.8798L32.3342 16.3511L31.979 16.0143C31.5448 15.6025 30.5461 14.7992 30.3255 14.6844C30.1775 14.6074 30.1555 14.6087 30.0643 14.7006C29.9803 14.7852 29.9625 14.9123 29.9508 15.5134C29.9326 16.4502 29.8064 17.0515 29.5016 17.6527C29.3368 17.9779 29.3107 17.9085 29.4599 17.5414C29.5713 17.2674 29.5826 17.1469 29.5818 16.2401C29.5801 14.4179 29.366 13.9799 28.1114 13.2294C27.7937 13.0394 27.2699 12.7652 26.9476 12.6202C26.6256 12.4751 26.3696 12.3488 26.3788 12.3394C26.4144 12.3036 27.6381 12.6648 28.1305 12.8563C28.8631 13.1412 28.9839 13.1782 29.0729 13.1438C29.1325 13.1207 29.1614 12.9451 29.1903 12.4289ZM13.2571 11.03C13.139 12.4368 13.6846 14.3186 14.5663 15.546C15.2498 16.4975 16.3093 17.2369 17.0915 17.3083C17.6036 17.355 17.7576 17.1929 17.5258 16.8508C17.2042 16.3757 16.8085 15.6443 16.7038 15.3312C16.6388 15.1366 16.4975 14.562 16.3897 14.0542C16.0219 12.3206 15.6604 11.6455 14.8254 11.1327C14.5211 10.9458 13.8712 10.7012 13.4943 10.6317L13.2937 10.5947L13.2571 11.03ZM28.1209 24.6809C24.0004 23.0034 22.549 21.5473 22.549 19.0905C22.549 18.7289 22.5615 18.4331 22.5764 18.4331C22.5916 18.4331 22.7509 18.5524 22.9306 18.6983C23.7662 19.3759 24.7019 19.6653 27.2923 20.0473C28.8163 20.2723 29.6741 20.4538 30.4654 20.7193C32.9804 21.5626 34.5364 23.274 34.9075 25.6053C35.0153 26.2826 34.9521 27.5528 34.7773 28.2223C34.6392 28.7511 34.218 29.7041 34.1064 29.7407C34.0754 29.7508 34.0449 29.6308 34.0371 29.4675C33.9948 28.5922 33.5573 27.7401 32.8226 27.1016C31.9872 26.3758 30.8649 25.7981 28.1209 24.6809ZM25.0291 24.4963C25.0869 24.6705 25.1765 25.0671 25.2281 25.3778C25.5581 27.3638 24.5271 28.9684 22.5215 29.5902C22.3091 29.656 21.4728 29.8216 20.6629 29.9578C19.0234 30.2338 18.2917 30.4293 17.5566 30.7874C17.0353 31.0413 16.4042 31.4216 16.4417 31.4593C16.4538 31.4716 16.5728 31.4429 16.706 31.3955C17.633 31.0664 18.6647 30.896 20.2321 30.8136C20.8542 30.781 21.5616 30.7289 21.8044 30.698C23.2008 30.5202 24.1687 30.0912 24.9213 29.3167C25.3401 28.8856 25.5897 28.4841 25.791 27.9179C25.9185 27.5587 25.9357 27.4253 25.9367 26.789C25.9378 26.1406 25.9223 26.0219 25.7841 25.6231C25.6031 25.1002 25.3897 24.7079 25.1193 24.401L24.924 24.1795L25.0291 24.4963ZM27.1171 28.7697C26.5695 27.5796 26.4439 26.4308 26.7437 25.3594C26.7759 25.2447 26.8274 25.151 26.8586 25.151C26.8896 25.151 27.0187 25.2217 27.1456 25.308C27.3978 25.4797 27.9038 25.769 29.2517 26.512C30.934 27.4393 31.893 28.1573 32.5452 28.9778C33.1163 29.6962 33.4698 30.5144 33.6398 31.5122C33.7363 32.0775 33.6798 33.4375 33.5364 34.0066C33.0841 35.8012 32.033 37.2107 30.5338 38.0333C30.3142 38.1537 30.117 38.2526 30.0955 38.2532C30.0743 38.2535 30.1543 38.0479 30.2734 37.7958C30.7777 36.7298 30.8352 35.6929 30.454 34.5389C30.2204 33.8322 29.7444 32.9699 28.7832 31.5124C27.6658 29.8181 27.3918 29.3671 27.1171 28.7697ZM16.8047 32.6728C15.0717 32.9574 13.1691 33.8847 11.64 35.1901L11.1848 35.5788L11.5849 35.6421C13.6726 35.9716 14.2348 36.2639 15.683 37.7723C16.5164 38.6401 16.7978 38.8333 17.4891 39.0118C18.5043 39.2738 19.5051 38.7923 19.8484 37.8765C20.0018 37.4673 19.9813 36.7898 19.8053 36.4496C19.3868 35.6394 18.1674 35.3776 17.5777 35.971C17.0866 36.4653 17.2297 37.2099 17.8405 37.338C17.9804 37.3675 17.9764 37.3611 17.8049 37.2828C17.5375 37.1605 17.4214 36.991 17.4199 36.7214C17.4165 36.0891 18.1321 35.7341 18.7979 36.0377C19.2853 36.2602 19.4789 36.5508 19.4789 37.0602C19.4789 37.8447 18.8186 38.4358 18.0501 38.3392C17.6393 38.2875 17.137 38.0218 16.8676 37.714C16.1898 36.9391 16.4539 35.7163 17.4002 35.2471C18.1206 34.89 19.0782 34.978 19.8208 35.4696C20.674 36.0346 21.0368 36.551 21.7717 38.2457C22.011 38.7975 22.3189 39.4187 22.4558 39.6261C23.152 40.6797 23.986 41.1964 24.9906 41.1964C25.5447 41.1964 25.9616 41.094 26.486 40.8294C26.8756 40.6325 27.428 40.2586 27.3882 40.2185C27.3769 40.2072 27.2153 40.258 27.029 40.3314C25.9321 40.764 24.817 40.7343 24.1694 40.2549C23.7616 39.9532 23.4327 39.3522 23.2636 38.6005C23.2343 38.4703 23.1378 37.8957 23.049 37.3234C22.8238 35.8729 22.6076 35.2208 22.1035 34.4725C21.5877 33.707 20.5961 33.0646 19.4875 32.7776C18.7958 32.5986 17.5516 32.5499 16.8047 32.6728ZM14.3775 21.4578C14.5272 20.8989 15.0107 20.3659 15.508 20.2114C15.8243 20.1133 16.478 20.1759 16.7854 20.3339C17.3811 20.6401 17.8135 21.3376 17.7197 21.8411C17.6052 22.455 16.6206 22.9463 15.4879 22.9543C14.9094 22.9584 14.6957 22.8798 14.4748 22.5815C14.3381 22.3968 14.2862 21.7988 14.3775 21.4578ZM16.6333 20.5527C16.9304 20.7362 17.0068 21.0074 16.8321 21.2583C16.7118 21.4312 16.3393 21.5954 16.0672 21.5954C15.6582 21.5954 15.2121 21.3018 15.2121 21.0329C15.2121 20.4926 16.0676 20.2033 16.6333 20.5527ZM105.417 22.0999C104.493 19.0231 106.016 16.4711 109.268 15.651C110.2 15.4157 114.423 15.5219 115.146 15.7989C115.412 15.9004 115.528 16.2901 115.53 17.0909C115.532 17.7216 115.601 18.4876 115.683 18.793C115.807 19.256 115.734 19.3471 115.246 19.3397C114.805 19.3328 114.538 19.0738 114.165 18.2903C113.57 17.0388 112.849 16.6407 111.169 16.6361C109.025 16.6299 107.456 18.0752 107.711 19.8215C107.877 20.9579 109.012 22.0761 111.557 23.6133C113.979 25.0755 115.392 26.278 115.956 27.3554C117.462 30.2357 116.176 33.3181 112.82 34.8712C111.098 35.6683 108.211 35.7508 106.181 35.0608L104.882 34.6188V32.54C104.882 30.6572 104.926 30.4608 105.355 30.4608C105.714 30.4608 105.869 30.698 105.994 31.4413C106.308 33.2896 107.711 34.4116 109.709 34.4116C111.667 34.4116 113.035 33.3409 113.559 31.3995C113.783 30.5725 113.744 30.2676 113.301 29.3552C112.771 28.2614 111.857 27.5355 108.753 25.7431C107.031 24.7483 105.813 23.4184 105.417 22.0999ZM44.5722 16.8793C44.1487 16.8793 43.9834 16.7407 43.9834 16.3854C43.9834 15.915 44.1487 15.8915 47.4674 15.8915C50.5477 15.8915 50.9419 15.9379 50.8713 16.2918C50.827 16.5121 50.4014 16.8175 49.9248 16.9709L49.0583 17.2497L48.9844 23.5466C48.9348 27.7483 49.0045 30.1721 49.1934 30.8311C49.7554 32.7909 51.4696 33.9179 53.8882 33.9179C55.572 33.9179 56.5555 33.5238 57.7913 32.3535C59.1204 31.0954 59.3324 29.8999 59.3282 23.6869C59.3242 17.5584 59.2175 17.0526 57.9027 16.9254C57.3044 16.8674 57.1039 16.7279 57.1039 16.3698C57.1039 15.9234 57.3013 15.8915 60.0745 15.8915C62.8801 15.8915 63.0451 15.9189 63.0451 16.3854C63.0451 16.6896 62.8787 16.8807 62.6118 16.883C61.4653 16.8931 61.4443 17.0023 61.29 23.7223C61.1299 30.7009 60.9804 31.5272 59.5675 33.2367C59.1601 33.7298 58.1884 34.4459 57.4083 34.8281C56.1372 35.4508 55.7328 35.5223 53.5143 35.5183C51.4692 35.514 50.8236 35.4152 49.801 34.9492C48.3083 34.269 47.3375 33.3887 46.6218 32.0658C46.1223 31.1423 46.0796 30.6427 45.964 24.3861C45.8315 17.2245 45.7673 16.8793 44.5722 16.8793ZM67.737 16.8793C67.1711 16.8793 67.006 16.7677 67.006 16.3854C67.006 15.9224 67.1642 15.8928 69.5433 15.9118L72.0808 15.932L73.2949 17.3316C73.9622 18.1013 76.138 20.5092 78.1295 22.6822C80.1211 24.8553 82.4076 27.3832 83.2105 28.2999C84.0135 29.2168 84.7692 29.9668 84.89 29.9668C85.0141 29.9668 85.0759 27.377 85.0317 24.0187L84.9536 18.0705L84.2589 17.4749C83.877 17.1472 83.2924 16.8793 82.9594 16.8793C82.5166 16.8793 82.3544 16.7449 82.3544 16.3785C82.3544 15.8962 82.4808 15.8802 85.7581 15.9463C88.5449 16.0026 89.162 16.0804 89.162 16.3753C89.162 16.5854 88.8174 16.8059 88.3345 16.9045C87.8796 16.9973 87.3781 17.2018 87.2206 17.3588C87.0172 17.5616 86.9136 20.1828 86.8633 26.3984L86.7922 35.1524H86.0748C85.4571 35.1524 84.7219 34.4566 80.7911 30.152C78.2796 27.4016 75.348 24.1329 74.2766 22.8882C73.205 21.6433 72.2447 20.6154 72.1427 20.6041C71.8553 20.5719 71.9248 31.6936 72.2187 32.7493C72.4479 33.5719 72.6055 33.7135 73.5791 33.9734C74.3631 34.1825 74.6802 34.3947 74.6802 34.7098C74.6802 35.1144 74.3813 35.1524 71.2145 35.1524C67.9907 35.1524 67.7487 35.1202 67.7487 34.6895C67.7487 34.3742 67.9819 34.1801 68.4801 34.0806C69.9918 33.7791 70.0921 33.3005 70.1769 25.9846C70.2244 21.8871 70.1547 19.0202 69.9925 18.4199C69.7076 17.3643 68.9977 16.8793 67.737 16.8793ZM93.6946 16.8793C93.1643 16.8793 92.9992 16.762 92.9992 16.3854C92.9992 15.9135 93.1643 15.8915 96.7125 15.8915C100.261 15.8915 100.426 15.9135 100.426 16.3854C100.426 16.7477 100.261 16.8793 99.8068 16.8793C99.4666 16.8793 98.9607 17.106 98.6829 17.383C98.1926 17.8722 98.1799 18.1155 98.2498 25.6756C98.3178 33.0557 98.3469 33.4828 98.802 33.8145C99.0664 34.0072 99.5397 34.1647 99.8541 34.1647C100.261 34.1647 100.426 34.3071 100.426 34.6586C100.426 35.1305 100.261 35.1524 96.7125 35.1524C93.2487 35.1524 92.9992 35.1213 92.9992 34.6903C92.9992 34.3426 93.2422 34.1891 93.9799 34.0714C95.4448 33.8377 95.5197 33.3593 95.4284 24.8227C95.3554 17.9863 95.324 17.5601 94.8704 17.2294C94.606 17.0368 94.077 16.8793 93.6946 16.8793ZM119.597 16.8793C119.258 16.8793 119.001 16.6913 118.92 16.3854C118.796 15.9078 118.913 15.8915 122.481 15.8915C126.006 15.8915 126.171 15.9135 126.171 16.3854C126.171 16.7649 126.006 16.8793 125.459 16.8793C123.9 16.8793 123.936 17.1617 126.294 23.6196C127.495 26.9069 128.66 30.0295 128.884 30.5587L129.292 31.5211L131.182 26.4843C133.408 20.5554 133.697 19.459 133.319 18.3777C133.056 17.624 132.032 16.8793 131.259 16.8793C131.04 16.8793 130.875 16.6669 130.875 16.3854C130.875 15.9128 131.04 15.8915 134.712 15.8915C138.384 15.8915 138.549 15.9128 138.549 16.3854C138.549 16.7368 138.384 16.8793 137.978 16.8793C136.937 16.8793 136.478 17.4329 136.627 18.5086C136.781 19.6158 141.039 31.5163 141.218 31.3382C141.508 31.0486 146.223 18.2377 146.223 17.7383C146.223 17.14 145.804 16.8793 144.841 16.8793C144.408 16.8793 144.243 16.7432 144.243 16.3854C144.243 15.9189 144.408 15.8915 147.214 15.8915C149.733 15.8915 150.184 15.9498 150.184 16.2748C150.184 16.4857 149.876 16.7654 149.498 16.8965C148.65 17.1916 148.436 17.5285 147.372 20.2568C146.905 21.4549 145.442 25.2047 144.121 28.5891C142.8 31.974 141.662 34.8909 141.593 35.0713C141.524 35.2519 141.114 35.3994 140.683 35.3994H139.9L138.121 30.7693C137.143 28.2231 135.988 25.2062 135.554 24.0654C134.81 22.1106 134.747 22.0257 134.467 22.5836C134.304 22.9097 133.129 25.9319 131.856 29.2998L129.542 35.4236L128.678 35.3498L127.815 35.276L124.52 26.6525C122.68 21.8346 120.988 17.7751 120.685 17.4541C120.387 17.1378 119.898 16.8793 119.597 16.8793ZM169.096 16.984C169.054 16.8902 169.055 16.5531 169.055 16.5531C169.055 16.5531 169.045 16.4315 169.096 16.3666C169.147 16.302 169.165 16.3003 169.347 16.2829L169.349 16.2828C170.017 16.2191 171.358 16.112 172.477 16.0631C172.58 16.0587 172.694 16.0535 172.818 16.0479L172.82 16.0478L172.822 16.0477L172.822 16.0476C174.054 15.9917 176.258 15.9169 177.773 15.9926C180.68 16.138 182.747 17.5444 183.451 19.8685C184.156 22.1925 183.783 24.374 182.823 25.7626C181.863 27.1513 180.248 28.3469 177.564 28.2691C175.348 28.2048 174.755 27.7895 174.282 27.4577C174.182 27.3876 174.087 27.3211 173.983 27.2626V30.2264C174.007 32.2477 174.023 33.2185 174.18 33.5778C174.39 34.0616 174.867 34.3596 175.794 34.5881C175.794 34.5881 176.214 34.6866 176.323 34.7917C176.431 34.8967 176.431 35.13 176.431 35.13C176.431 35.13 176.453 35.3481 176.366 35.4592C176.279 35.5704 176.111 35.5482 176.111 35.5482L172.002 35.515L169.525 35.5085C169.525 35.5085 169.265 35.5583 169.167 35.4537C169.07 35.3488 169.079 35.1305 169.079 35.1305C169.079 35.1305 169.1 34.8954 169.214 34.7901C169.328 34.6847 169.751 34.567 169.751 34.567C170.706 34.2985 171.12 34.0145 171.337 33.4793C171.511 33.0479 171.512 32.2479 171.511 25.7191C171.509 19.5277 171.5 18.3728 171.358 18.0406C171.148 17.5489 170.623 17.4186 169.874 17.2332L169.874 17.2331C169.726 17.1963 169.569 17.1574 169.404 17.113C169.404 17.113 169.137 17.0778 169.096 16.984ZM181.06 22.0361C181.06 23.0513 181.042 24.6408 179.962 25.6568C178.883 26.6729 176.757 26.951 175.314 26.6681C174.859 26.5789 174.599 26.4415 174.398 26.3355L174.378 26.325L174.009 26.1302L173.987 22.5631C173.974 20.3281 173.997 18.8719 174.05 18.6638C174.098 17.4853 175.834 17.3387 176.683 17.3823C180.313 17.3823 180.954 20.4441 181.06 22.0361ZM157.697 16.0298C157.697 16.0298 157.519 16.0979 157.251 16.2L156.281 16.7011L155.583 18.4454C155.2 19.4048 154.497 21.1659 154.023 22.359C153.159 24.5321 152.589 25.9599 151.988 27.4501C151.812 27.8884 151.278 29.2232 150.803 30.4163C150.328 31.6092 149.853 32.7447 149.748 32.9394C149.73 32.9718 149.712 33.0067 149.692 33.0435C149.427 33.5433 148.965 34.4116 148.15 34.5429C148.15 34.5429 147.702 34.587 147.536 34.751C147.37 34.9153 147.386 35.0494 147.386 35.0494V35.2563C147.386 35.2563 147.401 35.3565 147.495 35.4063C147.589 35.4564 147.717 35.4592 147.717 35.4592L150.698 35.4253H153.779C153.779 35.4253 153.997 35.4508 154.081 35.381C154.165 35.3113 154.189 35.2078 154.189 35.2078V34.99C154.189 34.99 154.146 34.7539 154.024 34.6617C153.902 34.5697 153.444 34.5067 153.444 34.5067C152.211 34.3443 151.998 33.4103 152.151 32.5704C152.225 32.1578 152.721 30.6313 153.279 29.0946L153.473 28.5635L156.701 28.5387C158.477 28.5251 160.01 28.5343 160.108 28.5592C160.249 28.5947 160.445 28.9936 161.021 30.4142C161.894 32.5666 161.964 32.8288 161.77 33.2315C161.759 33.256 161.746 33.2831 161.732 33.3122C161.551 33.7017 161.199 34.4584 160.312 34.5354C160.312 34.5354 159.841 34.5517 159.724 34.6926C159.607 34.8336 159.632 34.9958 159.632 34.9958V35.2112C159.632 35.2112 159.664 35.3375 159.724 35.3876C159.785 35.4376 159.887 35.4249 159.887 35.4249L162.818 35.4038L166.937 35.4037C166.937 35.4037 167.099 35.4209 167.143 35.3588C167.187 35.2965 167.196 35.2233 167.196 35.2233V34.9371C167.196 34.9371 167.178 34.785 167.099 34.701C167.02 34.6172 166.485 34.5287 166.485 34.5287C165.803 34.4185 165.463 33.8546 165.21 33.4347C165.145 33.3275 165.086 33.2298 165.029 33.1514C164.912 32.9913 164.493 32.1143 164.165 31.2707C163.837 30.4272 163.096 28.5217 162.52 27.0364C161.943 25.5512 161.138 23.4793 160.732 22.4324C160.325 21.3853 159.551 19.3932 159.013 18.0053C158.925 17.7775 158.846 17.5729 158.775 17.3897L158.775 17.3889C158.414 16.4568 158.268 16.0807 158.228 16.0298C158.099 15.8645 157.697 16.0298 157.697 16.0298ZM157.505 21.7014C157.375 21.385 157.146 20.8172 156.996 20.4398C156.724 19.7539 156.621 19.5959 156.537 19.7376C156.513 19.779 156.341 20.2478 156.157 20.7795C154.962 24.2218 154.421 25.7718 154.312 26.0639C154.244 26.2475 154.189 26.4367 154.189 26.4844C154.189 26.5393 155.16 26.5713 156.825 26.5713C158.276 26.5713 159.462 26.5533 159.462 26.5312C159.462 26.5092 159.333 26.1807 159.175 25.8008C159.017 25.4209 158.629 24.4727 158.314 23.6936C157.999 22.9145 157.635 22.018 157.505 21.7014Z" fill="white"/>
</g>
<defs>
<clipPath id="clip0_2178_81">
<rect width="184" height="46" fill="white" transform="translate(0 0.5)"/>
</clipPath>
</defs>
</svg>
